<svg width="164" height="79" viewBox="0 0 164 79" fill="none" xmlns="http://www.w3.org/2000/svg">
<path d="M27.5438 50.7826C29.2524 52.2266 28.9571 55.4819 28.9571 55.4819C28.9571 55.4819 25.8943 56.3898 24.1857 54.9459C22.4771 53.5019 22.7724 50.2465 22.7724 50.2465C22.7724 50.2465 25.8352 49.3387 27.5438 50.7826Z" fill="#1A1A4E" fill-opacity="0.5"/>
<path d="M23.5618 20.5889C25.3843 20.9952 26.5107 23.4249 26.7554 24.0042C27.3376 24.0388 29.814 24.2766 30.8391 25.9799C31.8643 27.6833 31.0965 30.2729 30.8982 30.8695C31.2863 31.345 32.8852 33.4331 32.5097 35.4304C32.1047 37.6007 29.5229 38.8717 29.3035 38.9798C29.2444 39.6629 28.9154 42.3043 27.346 43.3549C25.5362 44.5654 22.7687 43.1949 22.7687 43.1949C22.7687 43.1949 22.9332 39.8661 24.7388 38.6556C26.2027 37.6742 28.2994 38.3875 29.0419 38.6945C28.5019 37.9898 27.249 36.1265 27.5823 34.328C27.9071 32.5728 29.6536 31.4099 30.4341 30.9689C29.5608 30.8781 27.5443 30.5106 26.6457 29.0191C25.7471 27.5276 26.228 25.3487 26.4938 24.4365C25.8188 25.0504 24.1566 26.3517 22.5577 25.9929C20.4863 25.5303 19.3093 22.4522 19.3093 22.4522C19.3093 22.4522 21.4904 20.1263 23.5618 20.5932V20.5889Z" fill="#1A1A4E" fill-opacity="0.5"/>
<path d="M7.71972 30.8689C7.52144 30.2723 6.75363 27.6784 7.77878 25.9794C8.80394 24.2803 11.2803 24.0382 11.8625 24.0036C12.1072 23.4243 13.2378 20.999 15.0561 20.5883C17.1275 20.1257 19.3086 22.4473 19.3086 22.4473C19.3086 22.4473 18.1316 25.5211 16.0602 25.988C14.4613 26.3468 12.7991 25.0412 12.1241 24.4316C12.3899 25.3482 12.875 27.5227 11.9722 29.0142C11.0694 30.5058 9.05707 30.8732 8.18379 30.964C8.96426 31.405 10.7066 32.5679 11.0356 34.3231C11.3689 36.1173 10.116 37.9849 9.57597 38.6896C10.3185 38.3826 12.4152 37.6693 13.8791 38.6507C15.6889 39.8612 15.8492 43.19 15.8492 43.19C15.8492 43.19 13.0817 44.5605 11.2719 43.35C9.70252 42.2995 9.37347 39.658 9.31441 38.9749C9.09082 38.8712 6.51315 37.6001 6.10815 35.4256C5.73691 33.4282 7.33159 31.3401 7.71972 30.8646V30.8689Z" fill="#1A1A4E" fill-opacity="0.5"/>
<path d="M15.5847 49.9479C15.5847 49.9479 16.1796 53.16 14.6102 54.764C13.045 56.3679 9.91051 55.7626 9.91051 55.7626C9.91051 55.7626 9.31566 52.5505 10.885 50.9466C12.4502 49.3427 15.5847 49.9479 15.5847 49.9479Z" fill="#1A1A4E" fill-opacity="0.5"/>
<path d="M16.9213 45.7551C17.0394 45.6341 17.2039 45.5649 17.3727 45.5649H17.8663V45.0591C17.8663 44.8861 17.9338 44.7175 18.0519 44.5965L19.3049 43.3125L20.5578 44.5965C20.6759 44.7175 20.7434 44.8861 20.7434 45.0591V45.5649H21.237C21.4058 45.5649 21.5703 45.6341 21.6884 45.7551L22.9414 47.0391L21.6884 48.3231C21.5703 48.4441 21.4058 48.5133 21.237 48.5133H20.7434V49.0191C20.7434 49.1921 20.6759 49.3607 20.5578 49.4817L19.3049 50.7657L18.0519 49.4817C17.9338 49.3607 17.8663 49.1921 17.8663 49.0191V48.5133H17.3727C17.2039 48.5133 17.0394 48.4441 16.9213 48.3231L15.6683 47.0391L16.9213 45.7551Z" fill="#1A1A4E" fill-opacity="0.5"/>
<path d="M57.4971 47.6744C59.3312 47.4137 59.596 46.7378 59.596 44.3624V30.0617C56.7027 29.0479 54.5548 28.5457 52.7306 28.5457H52.5737V44.3624C52.5737 46.7378 52.868 47.4137 54.9079 47.6744V47.8579H47.2776V47.6744C49.3176 47.4137 49.6118 46.7378 49.6118 44.3624V28.5457H49.4549C47.6797 28.5457 45.9045 29.4341 42.668 30.7666V28.1016H62.8718L62.9208 28.285C62.4696 28.594 62.2833 29.1251 62.2833 31.7516V38.2211C63.0777 36.2416 64.7744 34.6484 67.295 34.6484C69.8156 34.6484 71.3259 35.9809 71.3259 39.2447V44.3624C71.3259 46.7378 71.5613 47.4137 73.16 47.6744V47.8579H66.8537V47.6744C68.4131 47.4137 68.6288 46.7378 68.6288 44.3624V39.1964C68.6288 36.792 67.756 35.8071 66.0592 35.8071C64.1467 35.8071 62.8521 37.2941 62.2931 39.1771V44.372C62.2931 46.7474 62.5285 47.4234 64.2841 47.6841V47.8675H57.5266V47.6841L57.4971 47.6744ZM75.2195 44.9128C75.2195 42.5664 77.1321 41.678 80.2803 40.8379C82.7715 40.133 84.0464 39.7661 84.0661 37.7287C84.1151 36.1644 83.2422 35.1215 81.5749 35.1215C80.1136 35.1215 78.2305 36.1161 78.2305 39.2157H75.7884C75.9159 35.923 79.2603 34.6484 81.9084 34.6484C84.5564 34.6484 86.7043 35.7685 86.7043 39.0033V45.2121C86.7043 46.4095 87.077 47.0178 87.7929 47.0178C88.2931 47.0178 88.558 46.8633 88.911 46.5736L88.9404 46.9116C88.195 47.6937 87.4791 48.1089 86.4493 48.1089C85.0468 48.1089 84.0366 47.1723 84.0366 45.0286V43.6478C83.4285 46.2357 81.7024 48.1862 78.8974 48.1862C76.779 48.1862 75.2097 47.0661 75.2097 44.8935L75.2195 44.9128ZM80.0449 46.7088C82.5067 46.7088 84.0464 44.4879 84.0464 41.1276V39.4861C83.7326 40.2972 82.693 40.6641 81.0257 41.1855C79.0348 41.8132 77.8186 42.5181 77.8186 44.372C77.8186 45.9653 78.7994 46.7185 80.0449 46.7185V46.7088ZM90.647 47.6744C92.3731 47.4137 92.6085 46.7378 92.6085 44.3624L92.6379 38.5205C92.6379 35.9616 92.4222 35.4981 90.7058 35.3629V35.1795L93.4912 34.9477L95.3252 34.8125V44.3624C95.3252 46.7378 95.5606 47.4137 97.2867 47.6744V47.8579H90.6568V47.6744H90.647ZM99.5916 47.6744C101.632 47.4137 101.926 46.7378 101.926 44.3624V31.5971C101.926 29.0382 101.632 28.5457 99.5916 28.285V28.1016H107.487C111.988 28.1016 115.627 29.1154 115.627 32.9586C115.627 36.8017 111.331 37.999 106.751 37.999H104.897V44.3624C104.897 46.7378 105.211 47.4137 107.467 47.6744V47.8579H99.5916V47.6744ZM106.427 37.5259C109.586 37.5259 112.528 36.4058 112.528 32.9586C112.528 29.5113 110.007 28.5747 107.094 28.5747H104.897V37.5259H106.437H106.427ZM116.627 44.9128C116.627 42.5664 118.54 41.678 121.688 40.8379C124.179 40.133 125.454 39.7661 125.474 37.7287C125.523 36.1644 124.65 35.1215 122.983 35.1215C121.521 35.1215 119.638 36.1161 119.638 39.2157H117.196C117.324 35.923 120.668 34.6484 123.316 34.6484C125.964 34.6484 128.112 35.7685 128.112 39.0033V45.2121C128.112 46.4095 128.485 47.0178 129.201 47.0178C129.701 47.0178 129.966 46.8633 130.319 46.5736L130.348 46.9116C129.603 47.6937 128.887 48.1089 127.857 48.1089C126.455 48.1089 125.445 47.1723 125.445 45.0286V43.6478C124.836 46.2357 123.11 48.1862 120.305 48.1862C118.187 48.1862 116.618 47.0661 116.618 44.8935L116.627 44.9128ZM121.453 46.7088C123.915 46.7088 125.454 44.4879 125.454 41.1276V39.4861C125.14 40.2972 124.101 40.6641 122.434 41.1855C120.443 41.8132 119.226 42.5181 119.226 44.372C119.226 45.9653 120.207 46.7185 121.453 46.7185V46.7088ZM131.976 43.5996H134.34C134.526 46.1294 135.772 47.8579 138.047 47.8579C139.822 47.8579 140.852 46.8923 140.852 45.5887C140.852 44.0727 139.499 43.474 136.929 42.3249C134.654 41.3304 132.663 40.3937 132.663 38.1246C132.663 35.8554 134.654 34.658 137.459 34.658C140.264 34.658 142.412 36.0678 142.941 38.5687H140.578C140.342 36.5313 139.362 35.1022 137.341 35.1022C135.801 35.1022 134.85 35.9133 134.85 37.0817C134.85 38.5687 136.253 39.3026 138.508 40.2682C140.95 41.3111 143.098 42.3346 143.098 44.6521C143.098 46.9695 140.901 48.3021 138.008 48.3021C134.585 48.3021 132.339 46.3998 131.967 43.5996H131.976ZM145.805 43.5996H148.169C148.355 46.1294 149.601 47.8579 151.876 47.8579C153.651 47.8579 154.681 46.8923 154.681 45.5887C154.681 44.0727 153.328 43.474 150.758 42.3249C148.483 41.3304 146.492 40.3937 146.492 38.1246C146.492 35.8554 148.483 34.658 151.288 34.658C154.093 34.658 156.241 36.0678 156.77 38.5687H154.406C154.171 36.5313 153.19 35.1022 151.17 35.1022C149.63 35.1022 148.679 35.9133 148.679 37.0817C148.679 38.5687 150.081 39.3026 152.337 40.2682C154.779 41.3111 156.927 42.3346 156.927 44.6521C156.927 46.9695 154.73 48.3021 151.837 48.3021C148.414 48.3021 146.168 46.3998 145.795 43.5996H145.805Z" fill="#1A1A4E" fill-opacity="0.5"/>
<path d="M94.4315 29.3279C94.5296 29.3279 94.6179 29.3665 94.6865 29.4341L95.3927 30.1293L94.6865 30.8246C94.6179 30.8922 94.5296 30.9308 94.4315 30.9308H94.1471V31.2108C94.1471 31.3074 94.1079 31.3943 94.0392 31.4619L93.3331 32.1571L92.6269 31.4619C92.5582 31.3943 92.519 31.3074 92.519 31.2108V30.9308H92.2346C92.1365 30.9308 92.0483 30.8922 91.9796 30.8246L91.2734 30.1293L91.9796 29.4341C92.0483 29.3665 92.1365 29.3279 92.2346 29.3279H92.519V29.0479C92.519 28.9513 92.5582 28.8644 92.6269 28.7968L93.3331 28.1016L94.0392 28.7968C94.1079 28.8644 94.1471 28.9513 94.1471 29.0479V29.3279H94.4315Z" fill="#1A1A4E" fill-opacity="0.5"/>
</svg>
