<svg width="164" height="79" viewBox="0 0 164 79" fill="none" xmlns="http://www.w3.org/2000/svg">
<mask id="mask0_4026_14316" style="mask-type:luminance" maskUnits="userSpaceOnUse" x="21" y="19" width="120" height="41">
<path d="M140.994 19.7148H21.9258V59.1869H140.994V19.7148Z" fill="white"/>
</mask>
<g mask="url(#mask0_4026_14316)">
<path d="M49.0689 34.0004C49.5152 33.7058 49.8127 33.264 49.8127 32.6748V29.5819C49.8127 28.7718 49.1433 28.109 48.3252 28.109C47.5071 28.109 46.8378 28.7718 46.8378 29.5819V31.7911L42.0037 34.5159V26.0471C42.0037 25.237 41.3343 24.5742 40.5162 24.5742C39.6982 24.5742 39.0288 25.237 39.0288 26.0471V39.3026L33.6741 36.3569V34.1477C33.6741 33.3376 33.0047 32.6748 32.1866 32.6748C31.3686 32.6748 30.6992 33.3376 30.6992 34.1477V37.2406C30.6992 37.7561 30.9967 38.2716 31.4429 38.5662L39.0288 42.6901V57.6394C39.0288 58.4495 39.6982 59.1123 40.5162 59.1123C41.3343 59.1123 42.0037 58.4495 42.0037 57.6394V37.9034L49.0689 34.0004Z" fill="#1A1A4E" fill-opacity="0.5"/>
<path d="M54.8728 36.7992C54.5009 36.0628 53.6085 35.8419 52.8647 36.2101L45.2789 40.334C44.8326 40.6286 44.5352 41.0704 44.5352 41.6596V57.7135C44.5352 58.5236 45.2045 59.1863 46.0226 59.1863C46.8407 59.1863 47.51 58.5236 47.51 57.7135V52.6322L52.121 50.1284C52.8647 49.7602 53.0879 48.8028 52.716 48.1401C52.3441 47.4036 51.3773 47.1827 50.708 47.5509L47.51 49.171V42.4696L54.2778 38.7875C55.0215 38.3457 55.2446 37.462 54.8728 36.7992Z" fill="#1A1A4E" fill-opacity="0.5"/>
<path d="M35.6844 45.4903L28.173 41.3663C27.4292 40.9981 26.5368 41.219 26.1649 41.9555C25.7931 42.6919 26.0162 43.5756 26.7599 43.9438L33.5277 47.6259V57.6412C33.5277 58.4512 34.197 59.114 35.0151 59.114C35.8332 59.114 36.5025 58.4512 36.5025 57.6412V46.7422C36.5025 46.2267 36.205 45.7112 35.6844 45.4903Z" fill="#1A1A4E" fill-opacity="0.5"/>
<path d="M48.4012 30.0235C46.5419 30.0235 45.1289 28.5506 45.1289 26.7832C45.1289 25.0158 46.6163 23.543 48.4012 23.543C50.1861 23.543 51.6736 25.0158 51.6736 26.7832C51.6736 28.5506 50.1861 30.0235 48.4012 30.0235ZM48.4012 25.6786C47.8062 25.6786 47.36 26.1204 47.36 26.7096C47.36 27.2987 47.8062 27.7406 48.4012 27.7406C48.9961 27.7406 49.4424 27.2987 49.4424 26.7096C49.4424 26.1204 48.9961 25.6786 48.4012 25.6786Z" fill="#1A1A4E" fill-opacity="0.5"/>
<path d="M54.0537 50.5703C52.1944 50.5703 50.7812 49.0975 50.7812 47.3301C50.7812 45.5627 52.2688 44.0898 54.0537 44.0898C55.8386 44.0898 57.3259 45.5627 57.3259 47.3301C57.3259 49.0975 55.8386 50.5703 54.0537 50.5703ZM54.0537 46.2255C53.4587 46.2255 53.0124 46.6673 53.0124 47.2564C53.0124 47.8456 53.4587 48.2874 54.0537 48.2874C54.6486 48.2874 55.0948 47.8456 55.0948 47.2564C55.0948 46.6673 54.6486 46.2255 54.0537 46.2255Z" fill="#1A1A4E" fill-opacity="0.5"/>
<path d="M32.1903 34.5117C30.331 34.5117 28.918 33.0389 28.918 31.2715C28.918 29.5041 30.4054 28.0312 32.1903 28.0312C33.9752 28.0312 35.4626 29.5041 35.4626 31.2715C35.4626 33.0389 33.9752 34.5117 32.1903 34.5117ZM32.1903 30.1669C31.5953 30.1669 31.1491 30.6087 31.1491 31.1978C31.1491 31.787 31.5953 32.2288 32.1903 32.2288C32.7853 32.2288 33.2315 31.787 33.2315 31.1978C33.2315 30.6087 32.7853 30.1669 32.1903 30.1669Z" fill="#1A1A4E" fill-opacity="0.5"/>
<path d="M40.5184 26.269C38.6591 26.269 37.2461 24.7961 37.2461 23.0287C37.2461 21.2613 38.7335 19.7148 40.5184 19.7148C42.3033 19.7148 43.7908 21.1877 43.7908 22.9551C43.7908 24.7225 42.3777 26.269 40.5184 26.269ZM40.5184 21.9241C39.9235 21.9241 39.4772 22.366 39.4772 22.9551C39.4772 23.5442 39.9235 23.9861 40.5184 23.9861C41.1134 23.9861 41.5596 23.5442 41.5596 22.9551C41.5596 22.366 41.1134 21.9241 40.5184 21.9241Z" fill="#1A1A4E" fill-opacity="0.5"/>
<path d="M55.7645 39.4453C53.9052 39.4453 52.4922 37.9725 52.4922 36.2051C52.4922 34.4377 53.9796 32.9648 55.7645 32.9648C57.5494 32.9648 59.0369 34.4377 59.0369 36.2051C59.0369 37.9725 57.5494 39.4453 55.7645 39.4453ZM55.7645 35.1005C55.1696 35.1005 54.7233 35.5423 54.7233 36.1314C54.7233 36.7206 55.1696 37.1624 55.7645 37.1624C56.3595 37.1624 56.8057 36.7206 56.8057 36.1314C56.8057 35.5423 56.3595 35.1005 55.7645 35.1005Z" fill="#1A1A4E" fill-opacity="0.5"/>
<path d="M25.1981 44.6016C23.3388 44.6016 21.9258 43.1287 21.9258 41.3613C21.9258 39.5939 23.4132 38.1211 25.1981 38.1211C26.983 38.1211 28.4705 39.5939 28.4705 41.3613C28.4705 43.1287 27.0574 44.6016 25.1981 44.6016ZM25.1981 40.2567C24.6031 40.2567 24.1569 40.6986 24.1569 41.2877C24.1569 41.8768 24.6031 42.3187 25.1981 42.3187C25.7931 42.3187 26.2393 41.8768 26.2393 41.2877C26.2393 40.6986 25.7931 40.2567 25.1981 40.2567Z" fill="#1A1A4E" fill-opacity="0.5"/>
<path d="M72.5 37.7547L75.3261 23.3945L79.9371 33.778L84.6969 23.3945L87.2255 37.7547H85.1431L83.8788 29.7277L79.8628 38.4175L75.9955 29.7277L74.5824 37.7547H72.5Z" fill="#1A1A4E" fill-opacity="0.5"/>
<path d="M97.5621 26.3405H92.133V29.5071H97.339V31.4218H92.133V35.8403H97.5621V37.755H90.125V24.4258H97.5621V26.3405Z" fill="#1A1A4E" fill-opacity="0.5"/>
<path d="M104.775 32.0845L108.94 37.755H106.485L102.618 32.3055H102.246V37.755H100.238V24.4258H102.618C104.403 24.4258 105.667 24.7203 106.485 25.3831C107.378 26.1195 107.824 27.0769 107.824 28.3288C107.824 29.2861 107.527 30.0962 107.006 30.759C106.485 31.4218 105.667 31.8636 104.775 32.0845ZM102.246 30.5381H102.916C104.849 30.5381 105.816 29.8016 105.816 28.3288C105.816 26.9296 104.849 26.2668 102.99 26.2668H102.246V30.5381Z" fill="#1A1A4E" fill-opacity="0.5"/>
<path d="M112.961 29.728L118.167 24.4258H120.845L114.746 30.4644L120.845 37.755H118.093L113.259 31.79L112.813 32.2318V37.755H110.805V24.4258H112.813V29.728H112.961Z" fill="#1A1A4E" fill-opacity="0.5"/>
<path d="M124.782 24.4258V35.8403H128.723V37.755H122.699V24.4258H124.782Z" fill="#1A1A4E" fill-opacity="0.5"/>
<path d="M138.089 26.3405H132.735V29.5071H137.941V31.4218H132.735V35.8403H138.164V37.755H130.727V24.4258H138.164V26.3405H138.089Z" fill="#1A1A4E" fill-opacity="0.5"/>
<path d="M82.9084 46.3708V48.7274C81.7184 47.77 80.5285 47.2545 79.2642 47.2545C77.8511 47.2545 76.7356 47.77 75.7687 48.7274C74.8019 49.6847 74.3557 50.9366 74.3557 52.3358C74.3557 53.735 74.8019 54.9133 75.7687 55.8706C76.7356 56.828 77.9255 57.3435 79.2642 57.3435C80.0079 57.3435 80.6029 57.1962 81.0491 56.9753C81.3466 56.828 81.6441 56.6807 81.9416 56.5334C82.239 56.3861 82.5365 56.0916 82.9084 55.797V58.2272C81.7184 58.8899 80.5285 59.1845 79.2642 59.1845C77.3305 59.1845 75.6944 58.5217 74.3557 57.1962C73.017 55.8706 72.3477 54.2505 72.3477 52.3358C72.3477 50.6421 72.9426 49.0956 74.0582 47.77C75.4712 46.1499 77.2562 45.3398 79.4873 45.3398C80.6029 45.4135 81.7928 45.7081 82.9084 46.3708Z" fill="#1A1A4E" fill-opacity="0.5"/>
<path d="M93.695 55.7232H87.9684L86.481 58.9635H84.3242L91.0176 44.8242L97.4135 58.9635H95.1824L93.695 55.7232ZM92.8769 53.8085L90.8689 49.2427L88.7865 53.8085H92.8769Z" fill="#1A1A4E" fill-opacity="0.5"/>
<path d="M101.055 53.59V58.9659H99.0469V45.6367H101.352C102.468 45.6367 103.36 45.7104 103.881 45.8576C104.476 46.0049 104.997 46.2995 105.443 46.7413C106.187 47.4778 106.633 48.4351 106.633 49.5397C106.633 50.7916 106.187 51.749 105.368 52.4118C104.55 53.0745 103.435 53.5164 102.022 53.5164H101.055V53.59ZM101.055 51.6754H101.799C103.658 51.6754 104.625 50.9389 104.625 49.5397C104.625 48.1405 103.658 47.4778 101.724 47.4778H101.055V51.6754Z" fill="#1A1A4E" fill-opacity="0.5"/>
<path d="M110.649 45.6367V58.9659H108.641V45.6367H110.649Z" fill="#1A1A4E" fill-opacity="0.5"/>
<path d="M117.643 47.5514V58.9659H115.635V47.5514H112.512V45.6367H120.693V47.5514H117.643Z" fill="#1A1A4E" fill-opacity="0.5"/>
<path d="M129.687 55.7232H123.961L122.473 58.9635H120.316L127.01 44.8242L133.406 58.9635H131.175L129.687 55.7232ZM128.869 53.8085L126.861 49.2427L124.779 53.8085H128.869Z" fill="#1A1A4E" fill-opacity="0.5"/>
<path d="M137.051 45.6367V57.0512H140.993V58.9659H134.969V45.6367H137.051Z" fill="#1A1A4E" fill-opacity="0.5"/>
</g>
</svg>
