<svg width="164" height="79" viewBox="0 0 164 79" fill="none" xmlns="http://www.w3.org/2000/svg">
<g opacity="0.5">
<mask id="mask0_4026_14406" style="mask-type:alpha" maskUnits="userSpaceOnUse" x="52" y="9" width="60" height="60">
<rect x="52.1445" y="9.43359" width="59.4316" height="59.4316" fill="#D9D9D9"/>
</mask>
<g mask="url(#mask0_4026_14406)">
<path d="M86.5138 67.9682C102.423 65.3858 113.227 50.3952 110.644 34.4858C108.062 18.5764 93.0713 7.77285 77.1619 10.3553C61.2526 12.9378 50.449 27.9283 53.0314 43.8377C55.6139 59.7471 70.6045 70.5507 86.5138 67.9682Z" fill="white"/>
<path d="M81.8351 10.5103C89.4886 10.5103 96.6824 13.4905 102.093 18.9013C107.504 24.3121 110.484 31.5059 110.484 39.1594C110.484 46.8128 107.504 54.0066 102.093 59.4174C96.6824 64.8283 89.4886 67.8084 81.8351 67.8084C74.1817 67.8084 66.9879 64.8283 61.5771 59.4174C56.1662 54.0066 53.1861 46.8128 53.1861 39.1594C53.1861 31.5059 56.1662 24.3121 61.5771 18.9013C66.9879 13.4905 74.1817 10.5103 81.8351 10.5103M81.8351 9.44141C65.423 9.44141 52.1172 22.7472 52.1172 39.1594C52.1172 55.5715 65.423 68.8773 81.8351 68.8773C98.2472 68.8773 111.553 55.5715 111.553 39.1594C111.553 22.7472 98.2472 9.44141 81.8351 9.44141Z" fill="#222C5F"/>
<path d="M58.3897 43.0959C59.1832 43.0959 59.8264 42.4527 59.8264 41.6593C59.8264 40.8659 59.1832 40.2227 58.3897 40.2227C57.5963 40.2227 56.9531 40.8659 56.9531 41.6593C56.9531 42.4527 57.5963 43.0959 58.3897 43.0959Z" fill="#212B5F"/>
<path d="M105.421 43.0959C106.214 43.0959 106.858 42.4527 106.858 41.6593C106.858 40.8659 106.214 40.2227 105.421 40.2227C104.628 40.2227 103.984 40.8659 103.984 41.6593C103.984 42.4527 104.628 43.0959 105.421 43.0959Z" fill="#212B5F"/>
<path d="M59.9319 36.2094L60.1136 35.4141C60.1521 35.2431 60.1457 35.1234 60.0922 35.0528C60.0388 34.9823 59.9383 34.931 59.7908 34.901L57.2895 34.3922L57.5268 33.3789L60.12 33.9091C60.8362 34.0545 61.1098 34.4991 60.9409 35.2431L60.4556 37.3831L58.0805 36.9042V36.9106C58.0271 37.1329 57.9223 37.2933 57.7641 37.3895C57.6059 37.4857 57.4263 37.5156 57.2275 37.475C57.0287 37.4344 56.8812 37.3296 56.785 37.1586C56.6888 36.9876 56.6695 36.7759 56.7294 36.5194C56.7914 36.25 56.9175 36.0448 57.1057 35.9037C57.2938 35.7626 57.5418 35.7241 57.8496 35.7861L59.9319 36.2073V36.2094ZM57.7214 36.7503C57.7449 36.6476 57.7363 36.5621 57.6978 36.4916C57.6594 36.421 57.5888 36.374 57.4883 36.3548C57.3879 36.3334 57.3023 36.3483 57.2361 36.3975C57.1698 36.4467 57.1228 36.5237 57.0992 36.6241C57.0757 36.7267 57.0821 36.8123 57.1228 36.8849C57.1634 36.9576 57.2318 37.0025 57.3344 37.0218C57.437 37.041 57.5204 37.0282 57.5867 36.9769C57.6529 36.9277 57.6978 36.8507 57.7235 36.7503H57.7214Z" fill="#212B5F"/>
<path d="M60.7727 30.3134L61.553 30.5935C61.8438 30.6982 62.0297 30.8564 62.1088 31.0681C62.1901 31.2797 62.1837 31.5106 62.0939 31.7586C62.0041 32.0044 61.8737 32.1733 61.7005 32.2631C61.5274 32.355 61.3478 32.3679 61.1596 32.2994C60.9715 32.2332 60.839 32.1177 60.7577 31.9574C60.6765 31.7971 60.6765 31.6111 60.7535 31.4016V31.3951L60.5055 31.3054C60.4306 31.2776 60.3665 31.2754 60.3152 31.2968C60.2618 31.3182 60.2126 31.378 60.1656 31.4807L59.5114 32.9023L58.9342 32.6949C58.5729 32.5667 58.3377 32.3508 58.2223 32.0515C58.109 31.7522 58.1261 31.4037 58.2736 31.0103C58.3548 30.7923 58.4382 30.6148 58.5194 30.478C58.6007 30.3412 58.6734 30.1894 58.7354 30.0248C58.8038 29.8409 58.8508 29.6721 58.8764 29.5117L59.6097 29.6721C59.5926 29.8303 59.5477 30.0098 59.4708 30.2151C59.413 30.3733 59.3404 30.5272 59.2506 30.6811C59.1629 30.835 59.0924 30.9825 59.0411 31.1215C58.9235 31.4379 58.9791 31.6346 59.2035 31.7158L59.2848 31.7458L59.6803 30.8906C59.8321 30.5699 59.9945 30.3711 60.1698 30.2984C60.343 30.2258 60.544 30.23 60.7727 30.3113V30.3134ZM61.1383 31.4529C61.1041 31.5448 61.1019 31.6282 61.1297 31.7073C61.1575 31.7842 61.2195 31.8398 61.3157 31.874C61.4119 31.9082 61.4953 31.9061 61.5658 31.8633C61.6385 31.8227 61.6898 31.7564 61.724 31.6645C61.7582 31.5683 61.7625 31.4828 61.7326 31.408C61.7027 31.3331 61.6407 31.2797 61.5445 31.2434C61.4483 31.207 61.3649 31.2113 61.2943 31.2498C61.2238 31.2883 61.1703 31.3567 61.1361 31.4529H61.1383Z" fill="#212B5F"/>
<path d="M57.2622 32.5849L56.9736 32.5421C56.6465 32.4524 56.4092 32.26 56.266 31.9607C56.1227 31.6635 56.1142 31.2979 56.2446 30.8682C56.3301 30.586 56.4605 30.3423 56.6337 30.1392C56.809 29.9361 57.0014 29.7715 57.2087 29.6475C57.4182 29.5235 57.6149 29.438 57.8009 29.3867L58.1622 29.5513L57.26 32.5828L57.2622 32.5849ZM57.0527 31.6742L57.4781 30.2483C57.3391 30.2974 57.2002 30.3851 57.0612 30.5112C56.9244 30.6373 56.8261 30.7934 56.7726 30.9773C56.7128 31.1739 56.7149 31.3321 56.7748 31.4476C56.8346 31.563 56.9287 31.64 57.0527 31.6742V31.6742Z" fill="#212B5F"/>
<path d="M63.5671 26.1794C64.1892 26.5364 64.3218 27.0345 63.9648 27.6716L62.8702 29.6256L60.8072 28.4391L60.8008 28.4519C60.6918 28.6443 60.5507 28.7619 60.3775 28.8047C60.2043 28.8474 60.0312 28.8175 59.8601 28.7192C59.687 28.6208 59.5801 28.4754 59.5395 28.2873C59.4967 28.0992 59.5395 27.8918 59.6677 27.6673C59.7981 27.4386 59.9692 27.2868 60.183 27.2098C60.3967 27.1329 60.6362 27.1714 60.9034 27.3253L62.7163 28.3664L63.146 27.5904C63.2294 27.4429 63.2572 27.3253 63.2315 27.2355C63.2058 27.1479 63.1289 27.0666 62.9985 26.9918L62.8339 26.8977C62.665 27.1329 62.4854 27.3018 62.2887 27.4001C62.0942 27.5006 61.8932 27.4899 61.688 27.3723C61.5362 27.2847 61.4357 27.1543 61.3887 26.9832C61.3417 26.8122 61.3823 26.6155 61.5063 26.3975C61.5448 26.3291 61.5896 26.2692 61.641 26.2136L60.8307 25.7476L61.3181 24.8924L62.5816 25.6193C62.5239 25.4183 62.4277 25.2217 62.2909 25.0271L62.9621 24.668C63.0754 24.8582 63.1524 25.0699 63.1952 25.3008C63.2379 25.5317 63.2443 25.7604 63.2123 25.9827L63.565 26.1858L63.5671 26.1794ZM60.5165 28.1911C60.5656 28.1035 60.5849 28.0179 60.5678 27.9388C60.5528 27.8576 60.5015 27.7935 60.4138 27.7422C60.3262 27.6909 60.245 27.6802 60.168 27.708C60.091 27.7358 60.0269 27.7935 59.9777 27.8811C59.9307 27.9645 59.9136 28.0479 59.9286 28.1291C59.9435 28.2104 59.9948 28.2745 60.0825 28.3258C60.1701 28.3771 60.2535 28.3878 60.3283 28.36C60.4053 28.3322 60.4673 28.2766 60.5143 28.1911H60.5165ZM62.2524 26.8763C62.2951 26.8015 62.3101 26.731 62.2973 26.6647C62.2844 26.5984 62.2417 26.545 62.169 26.5044C62.0963 26.4638 62.03 26.4531 61.9659 26.4744C61.9039 26.4958 61.8505 26.545 61.8077 26.6219C61.765 26.6968 61.75 26.7695 61.7671 26.8357C61.7821 26.902 61.8248 26.9554 61.8932 26.9961C61.9659 27.0367 62.0322 27.0474 62.0963 27.026C62.1583 27.0046 62.2118 26.9555 62.2545 26.8785L62.2524 26.8763Z" fill="#212B5F"/>
<path d="M60.3493 25.5321C60.236 25.7502 60.1035 25.9405 59.9538 26.1008C59.8042 26.2611 59.6417 26.3659 59.4664 26.4172C59.2911 26.4685 59.1094 26.445 58.9213 26.3466C58.7545 26.259 58.6369 26.1243 58.5728 25.9447C58.5087 25.763 58.5365 25.5621 58.6519 25.3376C58.7609 25.1302 58.9042 24.9934 59.0837 24.925C59.2633 24.8566 59.4429 24.8673 59.6225 24.9613C59.7165 25.0105 59.7935 25.081 59.8534 25.173L59.879 25.1238C59.9709 24.9506 59.9945 24.7561 59.9496 24.5402C59.9068 24.3243 59.817 24.1212 59.6802 23.9266L60.3151 23.4648C60.5097 23.7556 60.6144 24.0698 60.6358 24.4119C60.6551 24.754 60.5588 25.1259 60.3493 25.5321V25.5321ZM59.5113 25.7844C59.5541 25.7032 59.5626 25.6262 59.5391 25.5535C59.5156 25.4808 59.4643 25.4252 59.3852 25.3846C59.3039 25.3419 59.227 25.3312 59.1522 25.3525C59.0795 25.3739 59.0218 25.4252 58.979 25.5065C58.9384 25.5834 58.932 25.6583 58.9555 25.7267C58.9811 25.7972 59.0346 25.8528 59.1158 25.8956C59.1928 25.9362 59.2697 25.9469 59.3403 25.9276C59.413 25.9084 59.4686 25.8592 59.5092 25.7822L59.5113 25.7844Z" fill="#212B5F"/>
<path d="M65.4596 25.3789L63.7323 23.7648L63.728 23.7691C63.5847 23.9294 63.4244 24.0107 63.2512 24.0128C63.0781 24.0128 62.9177 23.9465 62.7745 23.8119C62.6313 23.6772 62.5586 23.5147 62.5586 23.3223C62.5586 23.1299 62.6398 22.9418 62.8044 22.7579C62.9669 22.5783 63.1465 22.4736 63.3432 22.4415C63.5399 22.4116 63.7429 22.4757 63.9525 22.6339C63.8541 22.3838 63.822 22.1315 63.8541 21.8771C63.8862 21.6227 63.9952 21.394 64.1791 21.1887C64.4121 20.9301 64.6622 20.7997 64.9337 20.7933C65.2052 20.7868 65.4511 20.8894 65.6734 21.0947L67.6338 22.9225L66.9818 23.6579L65.1411 21.9413C65.0385 21.8472 64.9359 21.7938 64.829 21.7809C64.7221 21.7702 64.6173 21.8215 64.5168 21.9327C64.395 22.0695 64.348 22.2406 64.3757 22.4479C64.4035 22.6553 64.4912 22.8755 64.6387 23.1107C64.7862 23.3458 64.9786 23.5746 65.218 23.799L66.1138 24.6349L65.4575 25.3767L65.4596 25.3789ZM63.5099 23.4548C63.5762 23.3822 63.6104 23.3052 63.6104 23.2261C63.6104 23.147 63.5741 23.0722 63.5014 23.0038C63.4287 22.9354 63.3517 22.9054 63.2748 22.9118C63.1978 22.9204 63.1251 22.961 63.0588 23.0337C62.9926 23.1064 62.9584 23.1833 62.9584 23.2624C62.9584 23.3415 62.9947 23.4164 63.0674 23.4848C63.1401 23.5532 63.217 23.5831 63.294 23.5767C63.371 23.5682 63.4437 23.5275 63.5099 23.4548Z" fill="#212B5F"/>
<path d="M68.2286 15.2109L68.669 15.7946C68.5749 15.8908 68.4509 15.987 68.2928 16.0874C68.1581 16.173 68.0191 16.2414 67.878 16.2927C67.7369 16.344 67.598 16.4145 67.459 16.5022C67.2174 16.6561 67.1533 16.8271 67.2687 17.0153L67.2858 17.0431C67.6685 16.902 67.9742 16.8763 68.2072 16.9661C68.4403 17.0559 68.6498 17.2547 68.8358 17.5604L70.0586 19.5636L70.0693 19.5571C70.2446 19.4438 70.4135 19.4118 70.576 19.4588C70.7384 19.5058 70.871 19.6127 70.9736 19.7795C71.0762 19.9462 71.1019 20.1215 71.0548 20.3054C71.0078 20.4892 70.8838 20.6453 70.6828 20.7757C70.4755 20.9104 70.2638 20.9596 70.0522 20.9254C69.8384 20.889 69.6524 20.7415 69.4942 20.4807L68.017 18.0543C67.8759 17.8212 67.7006 17.7015 67.4911 17.693C67.2816 17.6844 67.0314 17.7656 66.7385 17.9388L66.5333 17.601C66.3217 17.2526 66.2682 16.9362 66.3708 16.6497C66.4735 16.3632 66.6808 16.1238 66.993 15.925C67.164 15.8159 67.32 15.7368 67.4569 15.6877C67.5937 15.6385 67.7326 15.5701 67.8716 15.4824C67.94 15.4376 68.0063 15.3927 68.0661 15.3478C68.126 15.3029 68.1816 15.2558 68.2286 15.2109ZM70.1933 19.9206C70.1163 19.9697 70.0671 20.0339 70.0458 20.1087C70.0244 20.1857 70.0394 20.2669 70.0907 20.3524C70.142 20.4379 70.2061 20.4871 70.2831 20.4999C70.36 20.5128 70.437 20.4935 70.5118 20.4443C70.5931 20.393 70.6422 20.3289 70.6657 20.2519C70.6871 20.175 70.6722 20.0937 70.6208 20.0082C70.5695 19.9227 70.5054 19.8735 70.4284 19.8607C70.3515 19.8479 70.2745 19.8671 70.1933 19.9206Z" fill="#212B5F"/>
<path d="M71.7381 16.0019C72.0481 15.8715 72.3388 15.8053 72.606 15.801C72.8733 15.7967 73.1084 15.8587 73.3094 15.987C73.5103 16.1152 73.6643 16.3141 73.7712 16.5813L74.6605 18.7982L73.7947 19.1659L72.9673 17.0944C72.8733 16.8613 72.7429 16.716 72.574 16.654C72.4051 16.5941 72.2191 16.607 72.0139 16.6925C71.8086 16.778 71.6739 16.887 71.6119 17.0153C71.5478 17.1457 71.5307 17.2889 71.5606 17.445L72.3409 17.4129L72.4799 17.9174C72.1571 18.0543 72.0673 18.3022 72.2105 18.6657L72.6082 19.6662L71.7359 20.036L71.3383 19.0334C71.2571 18.826 71.2357 18.6379 71.2784 18.4647C71.3212 18.2916 71.4067 18.1441 71.5393 18.0222L71.535 18.0094L70.806 18.0543L70.7098 17.8127C70.6179 17.5797 70.5965 17.3466 70.6499 17.12C70.7034 16.8913 70.821 16.6796 71.0048 16.483C71.1887 16.2863 71.4324 16.1259 71.7359 15.9998L71.7381 16.0019Z" fill="#212B5F"/>
<path d="M76.0865 18.4882C75.8513 18.5417 75.6418 18.5139 75.458 18.407C75.2741 18.3001 75.1501 18.097 75.0881 17.7999L74.9983 17.3808C74.9235 17.0345 74.9748 16.7459 75.1501 16.515C75.3254 16.2841 75.5991 16.1281 75.9732 16.0447C76.1207 16.0105 76.2703 16.0019 76.4178 16.0148C76.5675 16.0276 76.7107 16.0661 76.8497 16.1259L76.8689 16.1217L76.8304 15.9442C76.7278 15.4782 76.4178 15.3029 75.8962 15.4183C75.7038 15.4611 75.5285 15.5273 75.3724 15.6129C75.2164 15.6984 75.0689 15.7967 74.9278 15.9036L74.543 15.2601C74.7225 15.1276 74.9235 15.0121 75.1501 14.9117C75.3767 14.8112 75.6162 14.7321 75.8706 14.6765C76.3665 14.5675 76.7727 14.591 77.0913 14.7492C77.4077 14.9074 77.6108 15.1853 77.6984 15.5829L78.2158 17.941L77.3115 18.1462L77.1169 17.2526C77.0699 17.0324 76.9694 16.8785 76.8155 16.7865C76.6616 16.6946 76.4713 16.6754 76.2468 16.7245C76.0822 16.7609 75.9603 16.8207 75.8834 16.902C75.8064 16.9832 75.7679 17.0751 75.7679 17.1778C75.8128 17.1628 75.8599 17.15 75.909 17.1393C76.1057 17.0944 76.2725 17.1222 76.4093 17.2226C76.5461 17.3231 76.6338 17.4685 76.6765 17.6588C76.7171 17.849 76.6872 18.0222 76.5846 18.1761C76.482 18.33 76.3174 18.4348 76.0908 18.4861L76.0865 18.4882ZM76.033 18.1205C76.1228 18.0992 76.1912 18.0585 76.2361 17.9944C76.281 17.9303 76.2917 17.8512 76.2725 17.7528C76.2511 17.6545 76.2083 17.5882 76.1399 17.5497C76.0715 17.5113 75.9946 17.5027 75.9048 17.5219C75.8171 17.5412 75.753 17.5839 75.7081 17.6459C75.6632 17.7101 75.6525 17.7892 75.6717 17.8875C75.6931 17.9859 75.7359 18.0521 75.8043 18.0906C75.8727 18.1291 75.9475 18.1376 76.0352 18.1184L76.033 18.1205Z" fill="#212B5F"/>
<path d="M79.5691 14.1836L79.8192 16.4839H79.8256C80.0287 16.4625 80.1912 16.5096 80.3131 16.6229C80.4349 16.7383 80.5055 16.8922 80.5268 17.0846C80.5482 17.277 80.5012 17.4438 80.3858 17.5849C80.2703 17.726 80.0993 17.8072 79.8705 17.8307C79.629 17.8564 79.4237 17.8051 79.2548 17.6768C79.086 17.5485 78.9833 17.3348 78.9513 17.0355L78.6562 14.2755L79.5691 14.1836V14.1836ZM79.7914 16.858C79.6995 16.8687 79.629 16.9008 79.5819 16.9585C79.5328 17.0162 79.5135 17.0932 79.5242 17.1915C79.5349 17.2899 79.5691 17.3625 79.629 17.4074C79.6888 17.4523 79.7636 17.4716 79.8556 17.4609C79.9475 17.4502 80.0159 17.4181 80.0651 17.3604C80.1142 17.3027 80.1313 17.2257 80.1207 17.1274C80.11 17.029 80.0758 16.9564 80.0159 16.9115C79.956 16.8666 79.8812 16.8473 79.7893 16.858H79.7914Z" fill="#212B5F"/>
<path d="M82.4019 16.8914H83.1181C83.272 16.8914 83.3746 16.8615 83.4238 16.7974C83.4751 16.7332 83.4986 16.6285 83.4965 16.4831L83.4602 14.0524L84.3687 14.0567L84.4115 16.5815C84.4222 17.2848 84.093 17.6354 83.4217 17.6354H81.4934L81.4677 15.318H81.4613C81.2625 15.318 81.1064 15.2539 80.9952 15.1277C80.8841 15.0016 80.8264 14.8413 80.8242 14.6489C80.8242 14.4565 80.8841 14.2983 81.0123 14.1743C81.1385 14.0503 81.3181 13.9883 81.5447 13.9883C81.7841 13.9883 81.9829 14.061 82.1368 14.2042C82.2908 14.3474 82.372 14.5676 82.3741 14.8669L82.3998 16.8957L82.4019 16.8914ZM81.5318 14.9503C81.6238 14.9503 81.6943 14.9246 81.7478 14.8733C81.8012 14.822 81.8269 14.7472 81.8269 14.6489C81.8269 14.5505 81.7969 14.4757 81.7435 14.4244C81.6879 14.3731 81.6152 14.3474 81.5254 14.3474C81.4335 14.3474 81.3608 14.3731 81.3095 14.4244C81.2561 14.4757 81.2304 14.5505 81.2304 14.6489C81.2304 14.7472 81.2603 14.822 81.3138 14.8733C81.3694 14.9246 81.4421 14.9503 81.5318 14.9503Z" fill="#212B5F"/>
<path d="M81.3815 13.5658L81.3345 13.2943C81.3152 12.9715 81.4093 12.7 81.6167 12.4798C81.8219 12.2596 82.1233 12.1399 82.5188 12.1228C82.7775 12.1121 83.017 12.1527 83.2371 12.2468C83.4573 12.3408 83.6497 12.4627 83.8122 12.6123C83.9768 12.762 84.1051 12.9138 84.2013 13.0655L84.1692 13.4418L81.3815 13.5658V13.5658ZM82.0806 13.0955L83.3889 13.0378C83.3077 12.9266 83.1944 12.8282 83.049 12.7449C82.9036 12.6594 82.7454 12.6209 82.5787 12.6294C82.397 12.638 82.2666 12.6872 82.1875 12.7769C82.1084 12.8667 82.072 12.9736 82.0784 13.0976L82.0806 13.0955Z" fill="#212B5F"/>
<path d="M85.869 17.8557C85.636 17.8215 85.45 17.721 85.3153 17.5543C85.1807 17.3875 85.1315 17.1588 85.1678 16.8616L85.2191 16.4426C85.2619 16.0963 85.4009 15.8483 85.6339 15.6986C85.8669 15.549 86.1705 15.5041 86.5425 15.5597C86.69 15.581 86.8289 15.6259 86.9636 15.6901C87.0983 15.7542 87.218 15.8419 87.3249 15.9466H87.3441L87.3655 15.7735C87.4211 15.3074 87.1902 15.0338 86.6729 14.9547C86.4805 14.9247 86.3009 14.9226 86.1299 14.9483C85.9588 14.9739 85.7899 15.0102 85.6275 15.0573L85.48 14.3283C85.6873 14.2706 85.9097 14.2342 86.1491 14.2235C86.3885 14.2107 86.6344 14.2235 86.8866 14.2641C87.3783 14.339 87.7461 14.5079 87.9876 14.7665C88.2313 15.0252 88.3275 15.3544 88.2826 15.7542L88.0069 18.1165L87.1047 17.9818L87.2095 17.0861C87.2351 16.8659 87.1924 16.6863 87.0791 16.5473C86.9657 16.4084 86.799 16.3207 86.5745 16.2865C86.412 16.2609 86.2816 16.2737 86.1833 16.3207C86.085 16.3678 86.0208 16.4383 85.9888 16.5324C86.0337 16.5345 86.0807 16.5388 86.1299 16.5473C86.3265 16.5773 86.4698 16.6628 86.5638 16.8039C86.6579 16.945 86.6921 17.1117 86.6707 17.302C86.6472 17.4923 86.5638 17.6398 86.4206 17.7467C86.2774 17.8536 86.0914 17.8878 85.8669 17.8536L85.869 17.8557ZM85.9374 17.4965C86.0272 17.5094 86.1042 17.4965 86.1641 17.4538C86.2261 17.411 86.2624 17.3405 86.2731 17.2443C86.2838 17.1459 86.2667 17.069 86.2175 17.0091C86.1683 16.9493 86.0978 16.9129 86.008 16.9001C85.9225 16.8873 85.8477 16.9001 85.7878 16.945C85.7258 16.9877 85.6895 17.0583 85.6788 17.1545C85.6659 17.2528 85.6852 17.3298 85.7344 17.3897C85.7835 17.4495 85.8519 17.4859 85.9374 17.4987V17.4965Z" fill="#212B5F"/>
<path d="M90.5156 18.8107L91.3451 16.7028L91.3109 16.6878C91.1292 16.6044 91.0116 16.4847 90.956 16.3244C90.9004 16.164 90.909 15.9973 90.9774 15.822C91.0458 15.6467 91.1612 15.5291 91.3237 15.4692C91.4862 15.4094 91.6701 15.4243 91.8774 15.5184C92.0955 15.6168 92.2494 15.7643 92.3371 15.9567C92.4247 16.1491 92.4162 16.3821 92.3114 16.6536L91.9758 17.5109C91.9416 17.5964 91.9073 17.6819 91.8689 17.7674C91.8304 17.8529 91.7919 17.9384 91.7491 18.0197L91.7598 18.0239L93.1345 16.3286L93.4509 16.4719L93.3589 18.7508L93.376 18.7594C93.4017 18.6696 93.4295 18.5798 93.4573 18.49C93.4851 18.4002 93.5171 18.3126 93.5492 18.2249L94.601 15.5099L95.4006 15.8733L93.7117 20.2601L92.7561 19.8261L92.8288 17.6648L92.801 17.652L91.4841 19.2489L90.5156 18.8107V18.8107ZM91.5097 16.3864C91.5931 16.4249 91.6679 16.4313 91.7342 16.4056C91.8026 16.3821 91.8518 16.3244 91.8881 16.2346C91.9245 16.1448 91.9244 16.0657 91.8945 15.9973C91.8646 15.9289 91.8069 15.8754 91.7235 15.8369C91.6401 15.7985 91.5653 15.7921 91.499 15.8177C91.4306 15.8412 91.3814 15.8989 91.3451 15.9866C91.3088 16.0742 91.3088 16.1555 91.3387 16.2239C91.3686 16.2923 91.4263 16.3457 91.5097 16.3842V16.3864Z" fill="#212B5F"/>
<path d="M91.5742 14.9987L91.6191 14.7293C91.7089 14.4087 91.8735 14.1842 92.1087 14.0538C92.3438 13.9234 92.6153 13.9106 92.9275 14.0153C93.1519 14.0923 93.3379 14.2077 93.4833 14.3638C93.6287 14.5198 93.742 14.693 93.8211 14.8811C93.9002 15.0693 93.9494 15.2488 93.9707 15.4177L93.8189 15.7555L91.5764 14.9966L91.5742 14.9987ZM92.3289 14.7999L93.2738 15.1206C93.2567 14.988 93.2075 14.8619 93.1306 14.7464C93.0515 14.631 92.9467 14.5498 92.8163 14.5049C92.6987 14.4643 92.5982 14.4749 92.5106 14.5327C92.4229 14.5904 92.3631 14.6802 92.3289 14.7999V14.7999Z" fill="#212B5F"/>
<path d="M95.5268 21.7282C95.1634 21.4461 94.9304 21.1403 94.8256 20.8111C94.7209 20.484 94.7743 20.1676 94.9817 19.8641L95.1228 19.6588C95.2168 19.522 95.3173 19.4258 95.4242 19.3638C95.5311 19.3039 95.6359 19.2633 95.7385 19.2441C95.8411 19.2249 95.933 19.2056 96.0185 19.1885C96.0057 19.1778 95.9929 19.1671 95.9779 19.1586C95.8197 19.0346 95.7278 18.8849 95.7043 18.7118C95.6808 18.5386 95.7214 18.3761 95.824 18.2286C95.9287 18.0768 96.0677 17.9913 96.2451 17.9721C96.4204 17.9528 96.6022 18.017 96.7903 18.1645C96.9912 18.3205 97.1174 18.5044 97.1623 18.7139C97.2072 18.9234 97.1644 19.1265 97.0319 19.3232C96.9186 19.4899 96.8095 19.6097 96.7026 19.6823C96.5957 19.755 96.4953 19.8106 96.3969 19.847C96.2986 19.8833 96.2045 19.9239 96.1169 19.9731C96.0271 20.0223 95.9437 20.1035 95.8646 20.2189L95.7534 20.3836C95.6701 20.5054 95.6401 20.6358 95.6658 20.7705C95.6914 20.9052 95.7791 21.0313 95.9287 21.1468C96.2259 21.3776 96.4782 21.3392 96.6877 21.0313L97.019 20.5439C97.1516 20.3493 97.1174 20.174 96.9186 20.0201L97.2414 19.5455C97.3568 19.6353 97.4509 19.6695 97.5193 19.6439C97.5898 19.6203 97.6561 19.5584 97.7245 19.46L97.949 19.1286L98.6438 19.6695L98.4065 20.0201C98.321 20.1463 98.2269 20.236 98.1243 20.2916C98.0217 20.3472 97.9105 20.3536 97.7908 20.313L97.7844 20.3237C97.8592 20.4605 97.8848 20.6059 97.8635 20.7641C97.84 20.9201 97.7844 21.0655 97.6967 21.1938L97.3739 21.6705C97.1644 21.9784 96.8993 22.1387 96.5765 22.1473C96.2537 22.1558 95.9052 22.0169 95.5332 21.7261L95.5268 21.7282ZM96.2216 18.9127C96.2943 18.9683 96.3691 18.9961 96.4418 18.9918C96.5166 18.9876 96.5808 18.9448 96.6364 18.8636C96.6898 18.7866 96.7069 18.7075 96.6898 18.6284C96.6727 18.5493 96.6278 18.483 96.5551 18.4253C96.4824 18.3676 96.4076 18.3441 96.3328 18.3505C96.258 18.3569 96.1938 18.3996 96.1404 18.4766C96.0869 18.5536 96.0677 18.6327 96.0869 18.7118C96.104 18.7909 96.1489 18.8571 96.2216 18.9149V18.9127Z" fill="#212B5F"/>
<path d="M98.5785 24.5994L99.3545 23.958L99.346 23.9474C99.222 23.7827 99.1749 23.6139 99.2006 23.445C99.2263 23.2761 99.3096 23.135 99.4464 23.0195C99.5875 22.9041 99.7436 22.8613 99.9168 22.8913C100.088 22.9212 100.246 23.0324 100.389 23.2248C100.535 23.4214 100.603 23.6245 100.59 23.8362C100.577 24.0478 100.462 24.2445 100.242 24.4262L99.6624 24.9072L99.7115 24.9757C99.827 25.1317 99.9809 25.1873 100.173 25.1467C100.366 25.1039 100.592 24.9756 100.851 24.7597C101.133 24.5246 101.287 24.283 101.317 24.0286C101.347 23.7763 101.266 23.5219 101.075 23.2675C100.958 23.1093 100.836 22.9746 100.708 22.8656C100.579 22.7566 100.445 22.654 100.297 22.5599L100.665 21.957C100.845 22.0746 101.016 22.2114 101.182 22.3675C101.349 22.5236 101.52 22.7181 101.693 22.9511C101.941 23.2846 102.089 23.6032 102.136 23.9089C102.181 24.2146 102.142 24.5011 102.014 24.7726C101.888 25.0441 101.687 25.292 101.415 25.5208C101.174 25.7218 100.926 25.8714 100.669 25.9676C100.413 26.0638 100.16 26.0788 99.9146 26.0104C99.6688 25.9441 99.44 25.7666 99.2284 25.4823L98.5742 24.5994H98.5785ZM99.6602 23.7892C99.7137 23.8618 99.7778 23.9067 99.8505 23.9217C99.9232 23.9367 99.9959 23.9153 100.066 23.8554C100.139 23.7956 100.178 23.7272 100.182 23.6481C100.186 23.569 100.163 23.4941 100.107 23.4214C100.051 23.3466 99.9852 23.3017 99.9146 23.2889C99.8419 23.2761 99.7693 23.2996 99.6987 23.3595C99.6303 23.4172 99.5918 23.4834 99.5854 23.5604C99.579 23.6374 99.6046 23.7143 99.6602 23.7892V23.7892Z" fill="#212B5F"/>
<path d="M102.685 23.6497C102.524 23.4381 102.45 23.2264 102.462 23.0127C102.475 22.801 102.563 22.6257 102.725 22.4868C102.892 22.3457 103.074 22.2922 103.273 22.3264C103.471 22.3585 103.651 22.4803 103.811 22.692C103.972 22.9036 104.046 23.1153 104.034 23.3269C104.021 23.5386 103.933 23.716 103.766 23.8571C103.604 23.9961 103.422 24.0495 103.223 24.0174C103.025 23.9854 102.843 23.8635 102.683 23.6519L102.685 23.6497ZM103.003 23.3804C103.065 23.4616 103.138 23.5086 103.217 23.5172C103.298 23.5279 103.375 23.5001 103.448 23.4381C103.525 23.3718 103.568 23.297 103.576 23.2115C103.585 23.126 103.557 23.0426 103.495 22.9614C103.433 22.8801 103.36 22.8331 103.281 22.8245C103.2 22.8138 103.121 22.8416 103.046 22.9079C102.971 22.9699 102.931 23.0447 102.922 23.1302C102.913 23.2158 102.941 23.2991 103.003 23.3804Z" fill="#212B5F"/>
<path d="M102.545 25.7195L102.981 25.168C103.122 25.2855 103.259 25.4224 103.392 25.5784C103.524 25.7345 103.646 25.9141 103.757 26.1214C103.978 26.5255 104.063 26.8911 104.018 27.216C103.973 27.5431 103.785 27.8039 103.454 28.0006L101.461 29.1892L101.004 28.3384L102.87 27.2288C103.043 27.1262 103.15 27.0022 103.189 26.8569C103.227 26.7115 103.191 26.5383 103.08 26.3309C103.016 26.2134 102.937 26.1001 102.842 25.9953C102.748 25.8906 102.648 25.7986 102.541 25.7195H102.545Z" fill="#212B5F"/>
<path d="M105.586 30.0399C105.71 30.3649 105.777 30.6663 105.785 30.9442C105.792 31.2221 105.738 31.4637 105.618 31.6689C105.499 31.8742 105.315 32.0281 105.065 32.1307L102.989 32.988L102.643 32.073L104.577 31.2777C104.795 31.1879 104.93 31.0575 104.986 30.8843C105.041 30.7112 105.026 30.5188 104.945 30.305C104.864 30.0912 104.761 29.9501 104.639 29.8796C104.518 29.8112 104.385 29.7898 104.24 29.8154L104.276 30.6214L103.806 30.7497C103.677 30.4119 103.444 30.3114 103.104 30.4504L102.172 30.8309L101.828 29.9202L102.758 29.5418C102.95 29.4648 103.126 29.4499 103.288 29.4969C103.451 29.5439 103.588 29.638 103.701 29.777L103.712 29.7727L103.665 29.0223L103.889 28.9304C104.105 28.8427 104.321 28.8278 104.532 28.8876C104.746 28.9475 104.945 29.0757 105.129 29.2703C105.315 29.4648 105.467 29.7214 105.589 30.0378L105.586 30.0399Z" fill="#212B5F"/>
<path d="M106.211 30.5558C106.119 30.3356 106.059 30.1219 106.029 29.9145C106 29.705 106.019 29.5211 106.081 29.3608C106.143 29.2005 106.262 29.0807 106.438 29.0016C106.596 28.9311 106.756 28.9268 106.921 28.9888C107.086 29.0508 107.216 29.194 107.31 29.4164C107.398 29.6216 107.415 29.814 107.361 29.9893C107.308 30.1646 107.199 30.2908 107.03 30.3677C106.942 30.4083 106.848 30.4212 106.746 30.4105C106.752 30.4254 106.758 30.4425 106.767 30.4596C106.84 30.6328 106.968 30.7718 107.145 30.8701C107.325 30.9706 107.524 31.0283 107.74 31.0454L107.714 31.8065C107.393 31.7723 107.105 31.659 106.848 31.4644C106.592 31.2699 106.378 30.9684 106.207 30.5622L106.211 30.5558ZM106.506 29.7777C106.54 29.8589 106.59 29.9124 106.656 29.938C106.722 29.9637 106.791 29.9594 106.863 29.9273C106.94 29.8931 106.992 29.8418 107.017 29.7734C107.043 29.7071 107.039 29.6323 107.004 29.5511C106.972 29.4741 106.923 29.4249 106.859 29.4014C106.795 29.3779 106.724 29.3822 106.647 29.4185C106.575 29.4506 106.523 29.4998 106.498 29.566C106.47 29.6302 106.474 29.7028 106.506 29.7798V29.7777Z" fill="#212B5F"/>
<path d="M103.237 33.8063L103.623 33.7123C103.824 33.6631 104 33.6075 104.145 33.5434C104.29 33.4792 104.442 33.4151 104.6 33.351C104.759 33.2847 104.955 33.2248 105.19 33.1671C105.494 33.0944 105.766 33.1072 106.009 33.2099C106.253 33.3103 106.46 33.4856 106.631 33.7315C106.802 33.9773 106.933 34.2852 107.023 34.6486C107.108 35.0014 107.132 35.322 107.093 35.6128C107.055 35.9035 106.958 36.1472 106.802 36.3439C106.646 36.5406 106.435 36.671 106.165 36.7373L104.053 37.261L103.824 36.2926L105.787 35.8095C106.016 35.7539 106.182 35.6406 106.289 35.4717C106.394 35.3028 106.413 35.0762 106.345 34.794C106.281 34.5246 106.157 34.3322 105.977 34.2189C105.798 34.1035 105.567 34.08 105.287 34.1484C105.096 34.1954 104.943 34.2403 104.821 34.2852C104.699 34.3301 104.585 34.3771 104.476 34.422C104.367 34.4669 104.233 34.5097 104.07 34.5481L104.607 34.9009C104.652 34.6636 104.795 34.5161 105.041 34.4562C105.227 34.4113 105.387 34.4391 105.524 34.5375C105.661 34.6379 105.755 34.7961 105.808 35.0142C105.86 35.2322 105.845 35.4204 105.759 35.5764C105.674 35.7325 105.539 35.8351 105.357 35.88C105.218 35.9142 105.086 35.9057 104.955 35.8565C104.827 35.8073 104.69 35.7368 104.545 35.6427L103.508 34.9607L103.234 33.8042L103.237 33.8063ZM104.949 35.2194C104.97 35.3071 105.011 35.3733 105.071 35.4182C105.133 35.4631 105.205 35.476 105.293 35.4546C105.376 35.4332 105.434 35.3904 105.468 35.322C105.503 35.2536 105.509 35.1767 105.488 35.089C105.464 34.9928 105.424 34.9244 105.364 34.8838C105.304 34.8432 105.233 34.8325 105.15 34.8539C105.066 34.8752 105.007 34.918 104.97 34.9843C104.934 35.0505 104.928 35.1296 104.949 35.2216V35.2194Z" fill="#212B5F"/>
<path d="M58.8969 50.8432C58.7045 50.6166 58.3838 50.1719 58.1871 49.6759C57.9135 48.9918 57.8899 48.4296 58.0845 47.9507C58.2683 47.4782 58.6831 47.0934 59.2346 46.8796C60.481 46.3879 61.5542 47.01 62.0459 48.2393C62.2383 48.7224 62.2939 49.1329 62.2768 49.351L61.5285 49.4429C61.5349 49.2013 61.505 48.917 61.3404 48.5065C61.0582 47.801 60.4447 47.4269 59.6344 47.7497C58.8627 48.0576 58.5997 48.7246 58.8755 49.4194C58.9524 49.6139 59.038 49.7614 59.0978 49.8149L59.8824 49.5028L59.6515 48.9255L60.3121 48.6626L60.8679 50.0586L58.8947 50.8453L58.8969 50.8432Z" fill="#212B5F"/>
<path d="M62.7269 49.8519L63.1801 50.6472L60.339 52.2634L61.1321 53.6573L60.4651 54.0357L59.2188 51.8444L62.7248 49.8477L62.7269 49.8519Z" fill="#212B5F"/>
<path d="M64.6977 56.2716C63.6501 57.0797 62.5256 56.9365 61.8052 56.0023C61.0741 55.0552 61.3605 53.9478 62.2691 53.2445C63.2268 52.5048 64.4133 52.5625 65.1423 53.5053C65.8991 54.4865 65.5785 55.5875 64.6977 56.2695V56.2716ZM62.872 53.997C62.2477 54.4801 62.0339 55.1151 62.4059 55.5982C62.7822 56.0856 63.462 56.0065 64.0841 55.5277C64.6571 55.0851 64.9371 54.4288 64.5523 53.9328C64.176 53.4454 63.4919 53.5202 62.872 53.9991V53.997Z" fill="#212B5F"/>
<path d="M66.4833 55.3242C66.6928 55.4482 67.0776 55.7475 67.4154 56.0511C67.8301 56.4231 68.0461 56.6924 68.1487 57.0174C68.2577 57.3167 68.2256 57.6587 67.9798 57.9302C67.7404 58.1975 67.3598 58.3065 66.9087 58.1269L66.9002 58.1355C67.1589 58.5374 67.1802 59.0227 66.8318 59.4117C66.5881 59.6833 66.2717 59.7837 65.9467 59.7666C65.5726 59.7431 65.1194 59.5144 64.5229 58.9756C64.1894 58.6742 63.9607 58.4283 63.8281 58.2701L66.479 55.3242H66.4833ZM64.9248 58.407C64.9826 58.4754 65.0638 58.5481 65.1792 58.6528C65.4871 58.9286 65.8612 59.0569 66.1455 58.7426C66.417 58.439 66.2546 58.0756 65.9168 57.772L65.6859 57.5647L64.9248 58.4091V58.407ZM66.122 57.0772L66.3443 57.2782C66.7014 57.5989 67.0242 57.6245 67.2251 57.4022C67.4304 57.1756 67.3641 56.8998 67.0562 56.6219C66.9087 56.4893 66.8168 56.4231 66.7505 56.3803L66.122 57.0794V57.0772Z" fill="#212B5F"/>
<path d="M68.2468 60.526L67.4643 61.2614L66.6562 60.7718L69.8031 57.9648L70.8272 58.587L69.8031 62.683L68.9651 62.1742L69.2366 61.1288L68.2489 60.5302L68.2468 60.526ZM69.476 60.4747L69.7048 59.6131C69.7668 59.3715 69.8609 59.0787 69.9357 58.8435L69.925 58.8371C69.7497 59.0102 69.5402 59.2411 69.3627 59.4057L68.715 60.0129L69.476 60.4747Z" fill="#212B5F"/>
<path d="M72.1725 59.3012L73.0276 59.6304L71.8497 62.6789L73.3461 63.2561L73.0704 63.9702L70.7188 63.0616L72.1725 59.2969V59.3012Z" fill="#212B5F"/>
<path d="M75.9252 60.5607L78.358 60.9712L78.234 61.7087L76.7055 61.4501L76.5516 62.3587L77.9796 62.6002L77.8556 63.3314L76.4276 63.0898L76.1582 64.691L75.2539 64.5392L75.9252 60.5586V60.5607Z" fill="#212B5F"/>
<path d="M79.8076 61.0503L79.5339 65.0758L78.6211 65.0138L78.8947 60.9883L79.8076 61.0503Z" fill="#212B5F"/>
<path d="M80.5464 64.1836C80.7944 64.3054 81.1728 64.4251 81.5619 64.4187C81.9809 64.4123 82.1989 64.2349 82.1947 63.9719C82.1904 63.7196 81.998 63.5807 81.5084 63.4139C80.835 63.1916 80.3925 62.826 80.3818 62.2403C80.3711 61.5519 80.9376 61.0153 81.8889 61.0003C82.3443 60.9939 82.6799 61.0837 82.9215 61.1885L82.7291 61.9281C82.5666 61.8533 82.278 61.7443 81.8825 61.7507C81.487 61.7571 81.2989 61.9388 81.3032 62.1483C81.3075 62.4049 81.5362 62.516 82.06 62.7063C82.7761 62.9586 83.1182 63.3241 83.1268 63.8928C83.1374 64.5684 82.6265 65.152 81.5191 65.1691C81.0573 65.1755 80.602 65.0643 80.3711 64.9425L80.5443 64.1857L80.5464 64.1836Z" fill="#212B5F"/>
<path d="M84.4125 60.8936L84.637 62.4264L86.1227 62.2083L85.8961 60.6755L86.7962 60.543L87.3841 64.5343L86.484 64.6668L86.2382 62.9972L84.7524 63.2153L84.9982 64.8849L84.0918 65.0174L83.5039 61.0261L84.4103 60.8936H84.4125Z" fill="#212B5F"/>
<path d="M92.5625 62.79C92.4343 62.9268 92.1093 63.1385 91.6475 63.3074C90.337 63.7841 89.3643 63.2133 88.9731 62.1316C88.5028 60.8382 89.1655 59.7821 90.3135 59.3652C90.7582 59.2049 91.128 59.1707 91.3098 59.1942L91.3824 59.9382C91.1815 59.9275 90.9143 59.9488 90.6107 60.0579C89.9309 60.3059 89.5503 60.9066 89.856 61.751C90.1318 62.51 90.7561 62.8264 91.5214 62.5484C91.7801 62.4544 92.0473 62.294 92.1905 62.1658L92.5625 62.7879V62.79Z" fill="#212B5F"/>
<path d="M95.5803 58.9467C96.2323 60.0969 95.9287 61.1914 94.9026 61.7729C93.8615 62.363 92.8054 61.9204 92.2389 60.9199C91.6424 59.8681 91.869 58.7009 92.9059 58.113C93.9833 57.5015 95.0309 57.9761 95.5781 58.9467H95.5803ZM93.0705 60.4304C93.4595 61.1188 94.056 61.4202 94.5883 61.1188C95.1249 60.8152 95.1442 60.1311 94.7572 59.4491C94.4002 58.8184 93.7909 58.4486 93.2436 58.7586C92.707 59.0622 92.6835 59.7505 93.0705 60.4325V60.4304Z" fill="#212B5F"/>
<path d="M96.7345 59.9573C96.5421 59.6986 96.5806 59.378 96.8371 59.1898C97.0915 59.0017 97.4015 59.0552 97.596 59.3202C97.7842 59.5746 97.7499 59.891 97.4913 60.0835C97.2411 60.2694 96.9247 60.2139 96.7345 59.9573V59.9573Z" fill="#212B5F"/>
<path d="M98.6432 60.0298C98.438 59.5039 98.1558 58.9267 97.8672 58.4564L98.5342 57.8086C98.78 58.4008 98.9831 59.055 99.0686 59.5958L98.6432 60.0298Z" fill="#212B5F"/>
<path d="M97.7266 54.4661L98.3252 53.7734L100.799 55.9091L101.846 54.6948L102.426 55.1951L100.779 57.102L97.7266 54.4661Z" fill="#212B5F"/>
<path d="M100.288 52.5421L99.6676 53.4315L99.0391 52.9932L100.813 50.4492L101.442 50.8875L100.811 51.7918L103.492 53.6624L102.968 54.4127L100.288 52.5421V52.5421Z" fill="#212B5F"/>
<path d="M101.01 50.2457C101.113 49.9207 101.281 49.5167 101.487 49.1062C101.831 48.42 102.175 48.0373 102.611 47.8214C103.077 47.5862 103.639 47.5734 104.277 47.8919C104.967 48.2382 105.318 48.7278 105.437 49.2238C105.564 49.7625 105.422 50.4146 105.07 51.1222C104.858 51.5455 104.681 51.8319 104.552 52.0222L101.008 50.2478L101.01 50.2457ZM104.364 50.902C104.416 50.84 104.471 50.7288 104.522 50.6262C104.899 49.8908 104.732 49.2045 103.87 48.7727C103.124 48.3922 102.506 48.6316 102.156 49.3328C102.064 49.5145 102.021 49.6407 102.004 49.7176L104.364 50.8998V50.902Z" fill="#212B5F"/>
<path d="M105.862 48.1439C105.559 48.0328 105.416 47.7442 105.525 47.447C105.634 47.1498 105.922 47.0258 106.23 47.1391C106.527 47.2482 106.673 47.5304 106.561 47.8339C106.455 48.1268 106.16 48.253 105.86 48.1439H105.862Z" fill="#212B5F"/>
<path d="M82.2503 57.063C92.3275 57.063 100.497 48.8939 100.497 38.8167C100.497 28.7395 92.3275 20.5703 82.2503 20.5703C72.1731 20.5703 64.0039 28.7395 64.0039 38.8167C64.0039 48.8939 72.1731 57.063 82.2503 57.063Z" fill="white"/>
<mask id="mask1_4026_14406" style="mask-type:alpha" maskUnits="userSpaceOnUse" x="64" y="20" width="37" height="38">
<path d="M82.2503 57.063C92.3275 57.063 100.497 48.8939 100.497 38.8167C100.497 28.7395 92.3275 20.5703 82.2503 20.5703C72.1731 20.5703 64.0039 28.7395 64.0039 38.8167C64.0039 48.8939 72.1731 57.063 82.2503 57.063Z" fill="white"/>
</mask>
<g mask="url(#mask1_4026_14406)">
<path d="M122.31 63.0166C128.039 56.9217 131.639 48.178 131.639 38.4786C131.639 27.0904 126.682 17.0213 119.135 11.0097C121.846 5.47271 123.37 -0.748372 123.37 -7.31792C123.37 -30.3808 104.607 -49.1445 81.5437 -49.1445C58.4808 -49.1445 39.7171 -30.3808 39.7171 -7.31792C39.7171 -0.57307 41.3247 5.80407 44.1723 11.4501C36.6857 17.4702 31.7729 27.4988 31.7729 38.8335C31.7729 48.349 35.2341 56.9431 40.7753 63.0209C33.3207 72.2713 29.2695 83.6959 29.2695 95.7447C29.2695 109.707 34.706 122.835 44.5807 132.708C54.4553 142.58 67.5816 148.019 81.5437 148.019C95.5059 148.019 108.634 142.582 118.507 132.708C128.379 122.833 133.818 109.707 133.818 95.7447C133.818 83.6937 129.765 72.2692 122.31 63.0166V63.0166ZM130.998 38.4786C130.998 47.977 127.492 56.5412 121.904 62.5164C120.837 61.2273 119.706 59.9788 118.509 58.7816C118.077 58.3498 117.637 57.9286 117.192 57.5139C122.481 52.7508 125.765 46.1363 125.765 38.8357C125.765 30.4447 121.429 22.9623 114.697 18.1522C116.273 16.1063 117.662 13.915 118.845 11.5955C126.182 17.498 130.998 27.3448 130.998 38.4786V38.4786ZM103.58 77.0515C103.58 88.8309 93.9966 98.4148 82.2171 98.4148C70.4377 98.4148 60.8538 88.8309 60.8538 77.0515C60.8538 75.3583 61.0526 73.7122 61.4267 72.1323C69.1892 71.8566 76.1842 67.9999 81.2252 61.9435V71.2152H81.8665V61.1909C87.1192 67.7092 94.5973 71.7924 102.884 71.7924C102.898 71.7924 102.911 71.7924 102.926 71.7924C103.354 73.4749 103.583 75.2365 103.583 77.0515H103.58ZM102.353 5.17128C94.2787 5.34017 87.0059 9.38494 81.8665 15.7642V3.00352H81.2252V15.7236C76.0538 9.51107 68.8258 5.61595 60.8239 5.52188C60.4049 3.85438 60.1804 2.11204 60.1804 0.316268C60.1804 -11.4632 69.7643 -21.0471 81.5437 -21.0471C93.3231 -21.0471 102.907 -11.4632 102.907 0.316268C102.907 1.98591 102.715 3.61066 102.351 5.16914L102.353 5.17128ZM93.8854 38.0318C93.8854 38.1922 93.8811 38.3525 93.879 38.515H89.2848C89.272 36.9309 89.1651 35.3724 88.9662 33.8481C90.4392 33.583 91.8844 33.2388 93.2996 32.8241C93.6823 34.5066 93.8854 36.2489 93.8854 38.0318ZM86.3688 55.4402C86.0887 55.3867 85.8087 55.3376 85.5243 55.2948C86.3196 53.6807 87.0016 51.9833 87.5574 50.2153C88.4361 50.3628 89.304 50.5424 90.1592 50.7583C89.0902 52.4494 87.8161 54.0185 86.3666 55.4402H86.3688ZM74.7668 38.4786C74.7668 36.9586 74.8587 35.4643 75.0319 33.9999C77.0521 34.3163 79.1194 34.4873 81.2252 34.5044V38.515H74.7689C74.7689 38.5022 74.7689 38.4915 74.7689 38.4786H74.7668ZM82.2171 49.1293C82.0995 49.1293 81.9841 49.1336 81.8665 49.1336V44.114C84.0065 44.1268 86.1272 44.27 88.218 44.5372C87.9593 46.2368 87.5873 47.8915 87.1106 49.4927C85.5137 49.2554 83.8804 49.1293 82.2171 49.1293ZM86.9203 50.1127C86.3581 51.8871 85.6654 53.5888 84.8573 55.2029C83.9915 55.0981 83.1107 55.0447 82.2171 55.0447C82.0995 55.0447 81.9841 55.0468 81.8665 55.049V49.7749C81.9841 49.7749 82.0995 49.7707 82.2171 49.7707C83.8141 49.7707 85.3854 49.8882 86.9203 50.1127V50.1127ZM81.8665 43.4726V39.1542H88.6434C88.6306 40.7683 88.5173 42.3524 88.3078 43.9023C86.1871 43.6308 84.0364 43.4854 81.8644 43.4726H81.8665ZM81.8665 38.5128V34.5023C84.0663 34.4852 86.2255 34.2971 88.3334 33.9529C88.5259 35.4429 88.6306 36.9651 88.6434 38.5128H81.8665ZM81.8665 33.8609V28.6917C83.6559 28.6746 85.4132 28.5142 87.1256 28.2213C87.613 29.8653 87.9893 31.567 88.2458 33.3158C86.1678 33.6578 84.0364 33.8438 81.8665 33.8588V33.8609ZM81.8665 28.0503V22.3188C82.8179 22.306 83.7542 22.2311 84.6713 22.1007C85.5671 23.8388 86.3282 25.6795 86.9374 27.6057C85.2849 27.8836 83.5917 28.0354 81.8665 28.0525V28.0503ZM81.8665 21.6775V17.5771C82.7751 18.8085 83.6067 20.119 84.3528 21.4979C83.5383 21.6048 82.7088 21.6668 81.8665 21.6775V21.6775ZM82.6447 17.56C84.1476 18.5904 85.5308 19.7534 86.7792 21.0318C86.2042 21.1772 85.6184 21.2991 85.0262 21.3974C84.3101 20.0527 83.5148 18.77 82.6468 17.56H82.6447ZM81.2252 17.6647V21.6775C80.4256 21.6646 79.6368 21.6112 78.8629 21.5128C79.5705 20.1639 80.3615 18.8769 81.2252 17.6647ZM78.1916 21.4166C77.6913 21.3375 77.1996 21.2413 76.7122 21.128C77.6828 20.2045 78.7282 19.3494 79.8399 18.5669C79.2498 19.4819 78.7004 20.4332 78.1916 21.4166V21.4166ZM81.2252 22.3188V28.0503C79.5705 28.0332 77.9457 27.8943 76.3595 27.6377C76.9452 25.7094 77.6806 23.8623 78.5529 22.1178C79.4294 22.2376 80.3209 22.306 81.2252 22.3188ZM81.2252 28.6917V33.8609C79.1472 33.846 77.1077 33.6749 75.1131 33.3607C75.3504 31.6098 75.7096 29.906 76.1778 28.2577C77.8239 28.5271 79.5085 28.6767 81.2252 28.6917ZM81.2252 39.1542V43.4726C79.1793 43.4854 77.1526 43.6116 75.1495 43.8553C74.9293 42.3225 74.801 40.7512 74.7732 39.1542H81.223H81.2252ZM81.2252 44.114V49.1443C79.6047 49.1913 78.012 49.3581 76.4557 49.6317C75.9362 47.9749 75.53 46.2561 75.2457 44.4881C77.2146 44.2508 79.2113 44.1247 81.2252 44.114ZM81.2252 49.7856V55.0661C80.4021 55.1024 79.5919 55.1836 78.7945 55.3098C77.9628 53.7064 77.2445 52.0132 76.6566 50.2474C78.1467 49.9887 79.6731 49.8327 81.2252 49.7856V49.7856ZM81.2252 55.7095V59.2883C80.462 58.2172 79.7586 57.0906 79.1151 55.9105C79.8078 55.81 80.5111 55.7416 81.2252 55.7074V55.7095ZM80.7335 59.7009C80.7335 59.7009 80.7335 59.7009 80.7313 59.7009C79.2413 58.7346 77.8602 57.6379 76.6053 56.4321C77.2082 56.2675 77.8217 56.1286 78.446 56.0152C79.1365 57.3044 79.9019 58.5336 80.7335 59.6987V59.7009ZM81.8665 59.7736C82.0076 59.6859 82.1487 59.5961 82.2877 59.5063C82.1487 59.703 82.0098 59.8975 81.8665 60.09V59.7736ZM81.8665 59.0146V55.6903C81.9841 55.6903 82.0995 55.686 82.2171 55.686C83.0038 55.686 83.7799 55.7309 84.5452 55.8143C84.1348 56.5946 83.6965 57.3514 83.2347 58.0868C82.7901 58.4096 82.3347 58.7175 81.8687 59.0168L81.8665 59.0146ZM85.2208 55.8977C85.4132 55.9255 85.6056 55.9554 85.7958 55.9875C85.4132 56.3423 85.0198 56.6865 84.6136 57.02C84.821 56.6502 85.0241 56.2761 85.2208 55.8977ZM87.7498 49.5932C88.2244 47.9877 88.5943 46.3266 88.8551 44.6228C90.157 44.8066 91.4483 45.0375 92.7267 45.3176C92.1708 47.0193 91.4269 48.6483 90.5162 50.1833C89.6097 49.9481 88.6883 49.7514 87.752 49.5932H87.7498ZM88.9449 43.9878C89.1565 42.4101 89.272 40.796 89.2869 39.1542H93.8576C93.7657 41.0654 93.445 42.9232 92.917 44.704C91.6065 44.4154 90.2832 44.1781 88.9449 43.99V43.9878ZM88.8786 33.211C88.6199 31.4602 88.2458 29.7542 87.7605 28.108C88.9513 27.8793 90.1207 27.5907 91.2644 27.2379C92.0704 28.8114 92.7074 30.4725 93.1521 32.1977C91.7561 32.6082 90.3323 32.9481 88.8807 33.211H88.8786ZM87.5724 27.4902C86.9695 25.5704 86.2191 23.7319 85.3362 21.9939C85.9968 21.8784 86.6446 21.733 87.2838 21.562C88.7183 23.1141 89.9561 24.8243 90.9566 26.6586C89.8513 26.9942 88.7225 27.2721 87.5724 27.4902V27.4902ZM87.9722 21.3632C92.5621 19.9586 96.5171 17.0918 99.2941 13.3079C102.161 13.5195 104.906 14.1245 107.467 15.063C103.508 20.3392 97.9793 24.3711 91.5787 26.4619C90.591 24.6341 89.3788 22.9238 87.9722 21.3653V21.3632ZM87.4869 20.8394C86.0567 19.3365 84.4426 17.9833 82.6768 16.8096C86.8755 14.5328 91.7775 13.2245 97.0088 13.2245C97.5197 13.2245 98.0264 13.2373 98.5309 13.263C95.7881 16.8524 91.9357 19.5524 87.4869 20.8416V20.8394ZM97.0088 12.581C91.615 12.581 86.5633 13.9449 82.2449 16.3136C87.2389 10.037 94.3194 6.03496 102.193 5.81263C101.532 8.29465 100.434 10.6014 98.9862 12.6451C98.3321 12.6045 97.6736 12.581 97.0109 12.581H97.0088ZM79.9083 15.1763C75.7309 13.015 70.9059 11.7772 65.7708 11.7772C65.0311 11.7772 64.2978 11.8028 63.5731 11.8541C62.4529 10.1139 61.5764 8.20058 60.9949 6.16537C68.3148 6.30433 74.9635 9.70775 79.9061 15.1763H79.9083ZM65.7708 12.4185C71.4168 12.4185 76.6759 13.9428 81.0862 16.5616C81.1119 16.5937 81.1397 16.6279 81.1653 16.66C81.0435 16.8246 80.9216 16.9892 80.8019 17.1559C79.0467 18.2527 77.4305 19.5247 75.9832 20.9399C71.0555 19.6102 66.8269 16.5574 63.9879 12.4677C64.5779 12.4335 65.1722 12.4142 65.7708 12.4142V12.4185ZM75.4637 21.4637C73.9822 22.9944 72.6931 24.6811 71.6306 26.4961C64.89 24.3241 59.1093 19.9993 55.0988 14.3361C57.6492 13.3784 60.3878 12.7542 63.2482 12.5211C66.1064 16.7904 70.4163 20.0078 75.4659 21.4637H75.4637ZM76.1713 21.6539C76.7357 21.795 77.3087 21.9148 77.888 22.0131C77.0286 23.7576 76.3017 25.6025 75.7224 27.5266C74.5445 27.3106 73.3879 27.0306 72.257 26.6928C73.3387 24.8692 74.6556 23.1803 76.1713 21.6561V21.6539ZM75.5428 28.1444C75.0768 29.7948 74.7198 31.5008 74.4803 33.2517C72.9069 32.978 71.3655 32.6146 69.8583 32.1678C70.365 30.4554 71.0619 28.8135 71.9278 27.2615C73.1057 27.6206 74.3114 27.9156 75.5428 28.1422V28.1444ZM74.3991 33.8887C74.2195 35.3873 74.1254 36.918 74.1254 38.4722C74.1254 38.4851 74.1254 38.4957 74.1254 38.5086H68.8963C68.922 36.5396 69.1935 34.6241 69.6852 32.7856C71.2223 33.241 72.7957 33.6108 74.3991 33.8887V33.8887ZM74.134 39.1499C74.1618 40.7768 74.2922 42.3738 74.5145 43.9344C72.8812 44.1524 71.265 44.4453 69.6702 44.8152C69.1892 42.9937 68.9241 41.0975 68.8963 39.1499H74.1319H74.134ZM74.6107 44.5693C74.8951 46.3501 75.3034 48.0796 75.8229 49.7493C74.5573 49.9994 73.3173 50.3201 72.1073 50.7113C71.1496 49.0502 70.3842 47.2844 69.8434 45.4351C71.4125 45.0738 73.0031 44.7852 74.6107 44.5715V44.5693ZM76.0217 50.3628C76.6053 52.1265 77.3129 53.8154 78.136 55.4209C77.4391 55.5513 76.755 55.716 76.0816 55.9105C74.6898 54.4974 73.467 52.9411 72.443 51.2735C73.6081 50.9037 74.8031 50.6001 76.0196 50.3628H76.0217ZM75.3953 56.1243C71.1517 57.5117 67.4704 60.1562 64.796 63.6174C61.9633 63.5297 59.2376 63.0594 56.6765 62.2598C60.5289 57.3257 65.7751 53.5332 71.8166 51.4788C72.8256 53.1463 74.0271 54.7026 75.3932 56.1243H75.3953ZM75.8998 56.6352C77.174 57.8944 78.5828 59.0381 80.1028 60.0493C75.9041 62.3261 71.0021 63.6345 65.7708 63.6345C65.7152 63.6345 65.6575 63.6345 65.6019 63.6345C68.2357 60.3764 71.8059 57.9072 75.8998 56.6374V56.6352ZM65.7708 64.2758C71.2394 64.2758 76.3573 62.8755 80.7142 60.4448C80.8831 60.5517 81.0541 60.6565 81.2252 60.7591V60.9216C76.306 67.1384 69.3453 71.1404 61.5914 71.4739C62.3054 68.8358 63.509 66.3965 65.1059 64.2651C65.3283 64.2694 65.5485 64.2737 65.7708 64.2737V64.2758ZM83.3117 61.905C87.3864 63.9274 92.0533 65.0775 97.0066 65.0775C97.9558 65.0775 98.8922 65.0348 99.8179 64.9514C101.107 66.822 102.105 68.9064 102.749 71.1425C95.2001 71.1019 88.3463 67.5873 83.3096 61.905H83.3117ZM97.0066 64.4362C91.6022 64.4362 86.5526 63.0402 82.262 60.6223C82.7665 59.9467 83.2476 59.2455 83.7072 58.5251C84.7205 57.7854 85.6804 56.9837 86.5762 56.1264C91.7925 57.2124 96.3182 60.2054 99.386 64.3421C98.6014 64.4019 97.8083 64.434 97.0088 64.434L97.0066 64.4362ZM87.1192 55.5898C88.5259 54.166 89.7637 52.6011 90.8069 50.9229C97.6864 52.8171 103.655 56.9281 107.895 62.4373C105.462 63.3715 102.854 64.0022 100.13 64.278C97.0472 59.966 92.4488 56.8084 87.1213 55.5898H87.1192ZM91.1511 50.3521C92.0554 48.8065 92.7951 47.1668 93.3509 45.4565C101.832 47.4319 109.675 51.5301 116.234 57.4946C113.977 59.4251 111.373 61.022 108.512 62.1936C104.218 56.5497 98.1525 52.3232 91.149 50.3543L91.1511 50.3521ZM93.5412 44.843C94.0799 43.0151 94.407 41.1103 94.4989 39.1499H117.049V38.5086H94.5203C94.5225 38.3482 94.5267 38.1879 94.5267 38.0254C94.5267 36.1783 94.3151 34.374 93.9153 32.6338C102.048 30.1112 109.124 25.1685 114.302 18.6524C120.884 23.3428 125.121 30.6435 125.121 38.8293C125.121 45.961 121.902 52.4216 116.72 57.0692C110.079 51.0149 102.133 46.8504 93.5412 44.843ZM93.7635 32.0096C93.3167 30.2779 92.6818 28.6147 91.8801 27.0327C98.4219 24.8714 104.066 20.7197 108.089 15.2939C110.118 16.0892 112.025 17.0961 113.774 18.2847C108.686 24.6747 101.74 29.5254 93.7614 32.0096H93.7635ZM108.48 14.7594C110.028 12.5831 111.319 10.2101 112.307 7.68964C114.445 8.57684 116.463 9.75478 118.327 11.185C117.149 13.5174 115.753 15.7236 114.169 17.7781C112.416 16.583 110.507 15.5675 108.478 14.7594H108.48ZM107.86 14.52C105.31 13.5665 102.578 12.9401 99.7259 12.6943C101.143 10.6206 102.214 8.29464 102.858 5.79766C102.866 5.79766 102.875 5.79766 102.881 5.79766C105.964 5.79766 108.934 6.37915 111.711 7.4502C110.721 9.97712 109.421 12.348 107.86 14.52ZM103.012 5.15845C103.365 3.59783 103.551 1.97522 103.551 0.311992C103.551 -11.8223 93.678 -21.6927 81.5458 -21.6927C69.4137 -21.6927 59.5412 -11.8202 59.5412 0.311992C59.5412 2.10563 59.7592 3.84796 60.1654 5.51974C57.0741 5.56464 54.0961 6.17606 51.3105 7.27063C49.921 3.66411 49.1577 -0.250256 49.1577 -4.33992C49.1577 -22.1993 63.6864 -36.728 81.5458 -36.728C99.4053 -36.728 113.934 -22.1993 113.934 -4.33992C113.934 -0.408455 113.228 3.36267 111.939 6.85161C109.128 5.76773 106.129 5.17555 103.012 5.15845V5.15845ZM60.33 6.15681C60.8966 8.20913 61.7517 10.1417 62.8527 11.9076C59.9987 12.1705 57.2665 12.8183 54.7204 13.791C53.4676 11.9439 52.4008 9.95788 51.5478 7.86494C54.3099 6.77893 57.2623 6.18247 60.3322 6.15681H60.33ZM54.109 14.0304C52.0759 14.8578 50.1668 15.8925 48.4138 17.1068C47.1332 15.3751 45.9852 13.5409 44.9847 11.6168C46.8318 10.1866 48.8328 9.00226 50.9535 8.10651C51.8065 10.1952 52.8669 12.1791 54.109 14.0304V14.0304ZM54.4809 14.5713C58.5492 20.3755 64.4347 24.8158 71.3056 27.0626C70.4462 28.6211 69.7536 30.2672 69.2448 31.9818C61.027 29.4057 53.9123 24.3155 48.7986 17.6198C50.5452 16.412 52.45 15.3858 54.4809 14.5713V14.5713ZM69.0695 32.5996C68.5628 34.4959 68.2806 36.4734 68.255 38.5064H48.8349V39.1478H68.255C68.2806 41.1467 68.5543 43.0921 69.046 44.9605C60.7747 46.9808 53.1191 51.0085 46.6693 56.7977C41.1281 52.118 37.6541 45.433 37.6541 38.0233C37.6541 29.9209 41.8079 22.6865 48.2748 17.9897C53.4719 24.803 60.7106 29.9808 69.0695 32.5975V32.5996ZM69.217 45.5784C69.7621 47.4468 70.5275 49.2319 71.4852 50.9123C65.3005 53.0415 59.9431 56.9602 56.0287 62.0461C52.745 60.9365 49.7478 59.284 47.1696 57.2103C53.5275 51.5215 61.0697 47.5644 69.2149 45.5784H69.217ZM55.6225 62.5848C53.9914 64.7975 52.6274 67.2196 51.582 69.8021C47.8515 68.3441 44.4695 65.9989 41.6219 62.9846C42.6908 61.6848 43.8303 60.4299 45.0339 59.2263C45.5747 58.6854 46.1284 58.1595 46.6886 57.6464C49.2903 59.7565 52.311 61.4432 55.6225 62.5869V62.5848ZM56.2618 62.7964C58.8079 63.6131 61.5144 64.1133 64.3278 64.2395C62.7779 66.3987 61.6085 68.8508 60.9201 71.4931C60.7897 71.4931 60.6614 71.4995 60.531 71.4995C57.6257 71.4995 54.8209 70.9843 52.1828 70.0287C53.2324 67.4355 54.6092 65.007 56.2618 62.7964V62.7964ZM60.531 72.1409C60.608 72.1409 60.6849 72.1388 60.7619 72.1366C60.4006 73.7143 60.2103 75.3562 60.2103 77.0429C60.2103 89.1772 70.0828 99.0476 82.215 99.0476C94.3472 99.0476 104.22 89.1751 104.22 77.0429C104.22 75.2279 103.997 73.4621 103.58 71.7753C106.599 71.6919 109.504 71.0656 112.226 69.9774C113.757 73.7379 114.603 77.8467 114.603 82.1523C114.603 100.012 100.074 114.54 82.215 114.54C64.3556 114.54 49.8269 100.012 49.8269 82.1523C49.8269 78.0947 50.5794 74.2082 51.9476 70.6252C54.6584 71.6086 57.5423 72.1409 60.531 72.1409V72.1409ZM103.416 71.1361C102.787 68.885 101.81 66.7792 100.545 64.8787C103.264 64.573 105.866 63.9188 108.296 62.9696C109.757 64.9492 110.997 67.0999 111.982 69.3874C109.286 70.4627 106.409 71.072 103.416 71.1361ZM108.91 62.7216C111.796 61.518 114.428 59.8933 116.709 57.9307C117.164 58.354 117.615 58.7837 118.056 59.2263C119.257 60.4277 120.392 61.6784 121.459 62.9739C118.874 65.6227 115.869 67.7327 112.576 69.1415C111.593 66.8562 110.359 64.7055 108.91 62.7216V62.7216ZM40.3584 -7.31792C40.3584 -30.0281 58.8336 -48.5032 81.5437 -48.5032C104.254 -48.5032 122.729 -30.0281 122.729 -7.31792C122.729 -0.895882 121.25 5.18624 118.618 10.6099C116.732 9.17543 114.693 7.99107 112.536 7.09746C113.855 3.5337 114.575 -0.31653 114.575 -4.33137C114.575 -22.5435 99.758 -37.3608 81.5458 -37.3608C63.3337 -37.3608 48.5143 -22.5457 48.5143 -4.33351C48.5143 -0.158329 49.2946 3.83727 50.7141 7.51861C48.5763 8.42077 46.556 9.60941 44.6875 11.0439C41.9191 5.51119 40.3584 -0.724854 40.3584 -7.32006V-7.31792ZM32.4143 38.8335C32.4143 27.751 37.188 17.9405 44.4716 12.0294C45.4721 13.9385 46.6159 15.7621 47.89 17.4852C41.267 22.2996 37.0127 29.7178 37.0127 38.0297C37.0127 45.6062 40.5487 52.4429 46.1926 57.2381C45.6474 57.7405 45.1087 58.2514 44.5828 58.7795C43.3835 59.9788 42.2504 61.2273 41.1836 62.5185C35.7856 56.5604 32.4164 48.1459 32.4164 38.8335H32.4143ZM118.054 132.252C108.301 142.005 95.3348 147.375 81.5437 147.375C67.7526 147.375 54.7866 142.005 45.0339 132.252C35.2811 122.502 29.9109 109.536 29.9109 95.7447C29.9109 83.8754 33.8915 72.6198 41.2157 63.4955C44.1167 66.5462 47.5565 68.9235 51.3469 70.4071C49.9509 74.0607 49.1834 78.0221 49.1834 82.1588C49.1834 100.371 64.0007 115.188 82.2128 115.188C100.425 115.188 115.242 100.371 115.242 82.1588C115.242 77.7677 114.379 73.5754 112.816 69.7401C116.166 68.3056 119.225 66.1678 121.857 63.4827C129.187 72.6091 133.172 83.869 133.172 95.7425C133.172 109.534 127.802 122.5 118.049 132.252H118.054Z" fill="#222C5F"/>
</g>
<path d="M82.0816 20.8384C91.9605 20.8384 99.9966 28.8745 99.9966 38.7535C99.9966 48.6324 91.9605 56.6685 82.0816 56.6685C72.2027 56.6685 64.1666 48.6324 64.1666 38.7535C64.1666 28.8745 72.2027 20.8384 82.0816 20.8384ZM82.0816 19.7695C71.5977 19.7695 63.0977 28.2695 63.0977 38.7535C63.0977 49.2374 71.5977 57.7374 82.0816 57.7374C92.5655 57.7374 101.065 49.2374 101.065 38.7535C101.065 28.2695 92.5655 19.7695 82.0816 19.7695Z" fill="#222C5F"/>
<path d="M68.6833 32.4254L66.6523 32.1924C66.6523 32.1924 67.0885 33.9818 67.7106 34.6509C68.3327 35.32 69.5619 37.1778 69.5619 37.1778C69.5619 37.1778 69.0809 40.9254 70.6308 40.9468C70.6308 40.9468 71.0905 42.6079 71.7233 42.3791C71.7233 42.3791 72.4437 42.3898 72.5976 41.1884C72.5976 41.1884 75.9391 47.7387 80.11 49.5965C80.11 49.5965 83.7999 54.3125 85.3947 53.374C85.3947 53.374 86.5085 53.0042 85.3947 51.2789C85.3947 51.2789 90.2625 51.3538 92.7103 49.962C92.7103 49.962 96.5499 50.3939 96.9325 47.2513L96.8941 47.0289C96.8941 47.0289 98.1404 45.8681 96.7124 44.8697C96.7124 44.8697 96.8812 43.9162 96.5114 43.82C96.5114 43.82 96.0817 43.5357 95.838 43.9098C95.5943 44.284 94.5104 47.9909 90.5362 48.9658C90.5362 48.9658 86.9425 46.9605 85.3134 44.3331C85.3134 44.3331 86.0767 43.6512 86.066 43.2899C86.0553 42.9286 85.6747 42.7426 85.7581 42.6207C85.8415 42.4989 86.1686 42.3236 85.6598 41.5304C85.027 40.5449 84.7875 39.3007 84.8217 38.5482C84.8217 38.5482 83.9987 37.6973 83.9859 36.111C83.9859 36.111 84.1547 35.1255 82.8785 34.6894C82.8785 34.6894 82.0768 34.078 81.2003 34.0972C80.3238 34.1164 78.8807 33.9219 78.7375 33.9967L78.5943 34.0694C78.5943 34.0694 76.9075 30.356 72.3988 29.9797C72.3988 29.9797 69.1686 29.4816 67.779 30.185C67.779 30.185 67.5182 31.4164 68.6833 32.4254V32.4254Z" fill="#1A1A4E"/>
<path d="M84.866 53.7531C83.4144 53.7531 81.4005 51.4999 80.3188 50.2898C80.1521 50.1017 79.9639 49.8922 79.8784 49.811C77.065 48.2268 74.6429 45.5396 72.6739 41.824L72.6226 41.963C72.5393 42.2965 72.2635 42.5659 71.9107 42.6471C71.838 42.6642 71.7632 42.6728 71.6884 42.6728C71.4105 42.6728 71.1582 42.5552 70.9765 42.3414C70.8418 42.1832 70.7306 41.9758 70.6473 41.7236C70.6131 41.6252 70.5831 41.5547 70.5532 41.4905C70.5169 41.4136 70.4827 41.3324 70.4485 41.219C70.2518 41.1955 69.9247 41.1036 69.6126 40.7145C69.232 40.2356 69.2 38.2239 69.2898 37.3239C69.294 37.2833 69.2812 37.2448 69.2577 37.2128C68.9627 36.8322 67.9386 35.5025 67.199 34.2946C66.3139 32.8537 66.4358 32.268 66.4935 32.1247L66.5234 32.052C66.5491 31.9858 66.6132 31.9451 66.6816 31.9451C66.6859 31.9451 66.6923 31.9451 66.6966 31.9451L68.0199 32.0606L67.928 31.9366C67.4726 31.3808 67.4427 30.6902 67.4662 30.3289C67.4854 30.0553 67.6864 29.8287 67.9557 29.7774C68.3213 29.709 69.3069 29.5508 70.5511 29.5508C72.9005 29.5508 76.1394 30.1066 78.2216 32.7575L78.243 32.7896C78.2537 32.8088 78.4204 33.1445 78.7261 33.7174C78.8865 33.711 79.1323 33.7067 79.4273 33.7067C80.5561 33.7067 82.0248 33.7922 82.6084 34.2027C82.8436 34.3673 83.0702 34.4763 83.269 34.5725C83.7586 34.8077 84.2182 35.03 84.2888 35.8445C84.3144 36.1331 84.3165 36.3491 84.3187 36.5222C84.3251 36.9156 84.3272 37.0952 84.5881 37.6104C84.727 37.8819 84.8211 38.0059 84.8916 38.0935C85.0733 38.3287 85.114 38.4335 85.114 39.0128C85.114 39.7311 85.1353 39.7824 85.3384 40.2741L85.4047 40.4323C85.4774 40.6119 85.5928 40.83 85.7147 41.0608C86.0696 41.7343 86.3796 42.3222 86.0995 42.6535C86.1102 42.6728 86.1252 42.7006 86.1465 42.7412C86.2748 42.9635 86.5399 43.4253 86.0632 43.9255L85.6783 44.3274C87.4036 46.3755 89.0305 47.8356 90.5184 48.6672C90.8882 48.5988 92.5472 48.214 93.8726 46.647C94.7834 45.5695 95.2451 44.6054 95.4696 43.9854C95.5872 43.6626 95.8865 43.4531 96.2307 43.4531C96.252 43.4531 96.2756 43.4531 96.2969 43.4552C96.6561 43.483 96.934 43.7267 97.0046 44.0752C97.043 44.2719 97.0388 44.4942 96.9896 44.7336C97.2226 44.8683 97.5754 45.1591 97.6823 45.7341C97.7891 46.3092 97.4556 46.7389 97.2568 46.9955C97.2354 47.0232 97.2012 47.0681 97.1756 47.1023C97.291 47.6069 96.7459 48.8554 95.9912 49.4839C95.1831 50.1573 93.0881 50.245 92.5878 50.2578C91.489 50.7388 89.2656 51.5277 86.4993 51.5277C86.2983 51.5277 86.0909 51.5234 85.8707 51.5127C86.061 51.9424 86.2727 52.6179 86.0225 53.1289C85.8515 53.4795 85.5095 53.6847 85.0071 53.7403C84.9579 53.7446 84.9087 53.7489 84.8596 53.7489L84.866 53.7531ZM81.2359 50.478C82.2471 51.579 83.8548 53.1973 84.8596 53.1973C84.8895 53.1973 84.9216 53.1973 84.9493 53.193C85.2508 53.1588 85.4432 53.0583 85.5266 52.8894C85.7168 52.5025 85.4111 51.797 85.2337 51.4763C84.8873 51.4443 84.5581 51.4037 84.2353 51.3502C83.2027 51.1792 82.1958 50.8863 81.2359 50.4801V50.478ZM80.197 49.3535C81.4839 50.0718 82.8735 50.5592 84.3272 50.8008C85.037 50.9184 85.7703 50.9782 86.5057 50.9782C87.2774 50.9782 88.062 50.912 88.8466 50.7837C79.5898 49.2509 77.6765 42.5873 77.4049 41.3815C77.2703 41.4072 77.1377 41.42 77.0052 41.42C76.8256 41.42 76.6396 41.3986 76.4579 41.3559C75.4788 41.1228 74.6728 40.3105 74.3543 39.2351C74.3414 39.1924 74.3457 39.1453 74.3671 39.1047C74.3885 39.0641 74.4248 39.0342 74.4697 39.0214L74.6749 38.9615C74.692 38.9572 74.707 38.9551 74.7241 38.9551C74.7989 38.9551 74.8652 39.0021 74.8887 39.0769C75.1495 39.962 75.8016 40.629 76.5883 40.815C76.7273 40.8471 76.8662 40.8642 77.003 40.8642C77.5012 40.8642 77.9693 40.6461 78.3563 40.2314C78.4931 40.086 78.5401 39.9321 78.5081 39.7504C78.352 38.8888 76.6011 37.7023 75.1025 36.922C74.8973 37.1251 74.6835 37.294 74.4547 37.4351C73.8305 37.8199 73.0951 38.0166 72.2635 38.0166C71.5323 38.0166 70.7135 37.8627 69.8263 37.5591C69.6895 39.1625 69.9247 40.2121 70.0487 40.3661C70.1556 40.5007 70.2454 40.5734 70.3287 40.614C70.2261 39.9706 70.224 39.5195 70.224 39.4981C70.224 39.404 70.3009 39.3271 70.395 39.3271H70.6088C70.7029 39.3271 70.7798 39.404 70.7798 39.4981C70.7798 39.5045 70.7841 40.1117 70.9444 40.892C70.9808 41.0651 71.0193 41.1571 71.0684 41.2746C71.1026 41.3516 71.1368 41.435 71.1753 41.5483C71.2373 41.7321 71.3121 41.8775 71.4019 41.9823C71.4768 42.0699 71.5794 42.1191 71.6927 42.1191C71.7247 42.1191 71.7547 42.1148 71.7867 42.1084C71.9407 42.072 72.0518 41.9651 72.0903 41.8112L72.4153 40.7444C72.4345 40.6782 72.4944 40.629 72.5649 40.6247C72.5692 40.6247 72.5735 40.6247 72.5799 40.6247C72.644 40.6247 72.7039 40.6611 72.7317 40.7188L72.8599 40.9753C74.8203 44.879 77.2553 47.6774 80.0943 49.2979C80.1093 49.3022 80.1264 49.3064 80.1392 49.315C80.1563 49.3236 80.1756 49.3385 80.197 49.3556V49.3535ZM77.9373 41.2169C78.1532 42.226 80.0601 49.4454 90.4457 50.4309C91.0956 50.2514 91.6365 50.0568 92.0405 49.8943C89.2485 49.1889 86.0375 46.2109 82.4823 41.0331C79.8357 37.1764 77.9244 33.3967 77.7662 33.0825C75.8187 30.624 72.7701 30.1088 70.5532 30.1088C69.356 30.1088 68.4068 30.2605 68.0562 30.3268C68.037 30.3311 68.022 30.3482 68.0199 30.3674C68.0006 30.6475 68.0199 31.1777 68.3662 31.5967L68.9712 32.4176C69.0118 32.471 69.0161 32.5437 68.9819 32.6036C68.952 32.657 68.8943 32.6912 68.8323 32.6912C68.828 32.6912 68.8216 32.6912 68.8173 32.6912L67.0237 32.533C67.0621 32.7768 67.2032 33.2449 67.6714 34.006C68.3961 35.1861 69.4031 36.4987 69.6959 36.8728C69.713 36.8942 69.7301 36.9177 69.7451 36.9434C70.6729 37.2876 71.5195 37.4629 72.2613 37.4629C72.9882 37.4629 73.6274 37.2961 74.1619 36.9648C75.6904 36.0198 75.9213 33.9975 75.9234 33.9782C75.932 33.8906 76.0068 33.8243 76.0945 33.8243C76.1009 33.8243 76.1051 33.8243 76.1116 33.8243L76.3253 33.8457C76.3702 33.85 76.413 33.8735 76.4408 33.9077C76.4686 33.944 76.4835 33.9889 76.4771 34.0338C76.4707 34.0915 76.3275 35.3956 75.483 36.4944C76.4622 37.0139 78.8266 38.3886 79.0554 39.652C79.1195 40.0069 79.019 40.3404 78.7625 40.614C78.5145 40.8791 78.2387 41.0801 77.9394 41.2169H77.9373ZM96.8164 45.2895C96.3333 46.4161 95.0313 47.8955 92.9405 49.6934C93.6353 49.6528 95.1019 49.5138 95.6406 49.0649C96.3183 48.5005 96.6518 47.5 96.6497 47.2734C96.515 47.0596 96.6903 46.833 96.8207 46.6641C96.9896 46.446 97.2012 46.1745 97.1392 45.8432C97.0879 45.561 96.9468 45.39 96.8164 45.2895V45.2895ZM91.2859 49.0499C91.6728 49.2145 92.0512 49.3364 92.4168 49.4091C94.7235 47.4465 96.0639 45.9009 96.4017 44.8149C96.4765 44.5733 96.4979 44.3638 96.4616 44.1906C96.4316 44.0431 96.3076 44.0175 96.2563 44.0132H96.2371C96.1943 44.0132 96.0511 44.0239 95.9955 44.1778C95.7539 44.8405 95.2622 45.8688 94.3002 47.0061C93.2527 48.244 92.0384 48.8019 91.2859 49.0456V49.0499ZM84.3101 42.6086C84.6522 43.0619 84.9921 43.4937 85.3235 43.8999L85.6655 43.5429C85.8558 43.344 85.7959 43.2436 85.6698 43.0212C85.6185 42.9336 85.5543 42.8224 85.5351 42.6984C85.3213 42.6471 84.9964 42.5894 84.6372 42.5894C84.5239 42.5894 84.417 42.5958 84.3123 42.6065L84.3101 42.6086ZM84.6436 42.0357C85.0284 42.0357 85.3748 42.0934 85.6121 42.149C85.5223 41.8946 85.3064 41.4863 85.2208 41.3259C85.1182 41.1314 85.0263 40.954 84.9515 40.7915C84.7527 40.7594 84.3315 40.706 83.8013 40.706C83.517 40.706 83.2391 40.7209 82.9719 40.753C83.2947 41.2212 83.6175 41.6765 83.936 42.1105C84.1562 42.0614 84.3914 42.0357 84.6415 42.0357H84.6436ZM81.9457 39.2095C82.1702 39.5558 82.3968 39.9021 82.6234 40.2378C83.0039 40.1779 83.4037 40.148 83.812 40.148C84.1669 40.148 84.4769 40.1715 84.7056 40.1972C84.5987 39.9128 84.5645 39.7097 84.5581 39.2245C84.3486 39.1689 83.9232 39.0812 83.3118 39.0812C82.8757 39.0812 82.4182 39.1261 81.9457 39.2116V39.2095ZM80.8618 37.4757C81.1098 37.8862 81.3663 38.2966 81.6229 38.705C82.2151 38.581 82.7859 38.519 83.3225 38.519C83.8591 38.519 84.2759 38.5831 84.5453 38.643C84.5325 38.5425 84.5089 38.5104 84.4512 38.4377C84.3721 38.3373 84.2545 38.1833 84.0921 37.8648C84.0279 37.7365 83.9745 37.6211 83.9296 37.5142C83.7436 37.4372 83.2263 37.2576 82.4374 37.2576C81.9329 37.2576 81.4006 37.3303 80.8575 37.4736L80.8618 37.4757ZM79.8207 35.7077C80.0644 36.1353 80.3145 36.5607 80.5625 36.9797C81.2146 36.7916 81.8495 36.6975 82.4524 36.6975C83.0552 36.6975 83.4742 36.7852 83.7757 36.8707C83.7671 36.7574 83.765 36.6462 83.7628 36.5329C83.7628 36.3897 83.7586 36.2486 83.7479 36.0733C82.9077 35.7868 81.9735 35.6415 80.9666 35.6415C80.4898 35.6415 80.0943 35.6757 79.8207 35.7077V35.7077ZM80.9644 35.0856C81.8987 35.0856 82.7794 35.2053 83.5854 35.4384C83.4785 35.2973 83.3032 35.2096 83.0253 35.0749C82.8051 34.968 82.5571 34.8483 82.2856 34.658C81.9286 34.4079 80.8811 34.2647 79.4166 34.2647C79.2691 34.2647 79.1345 34.2647 79.0169 34.269C79.1793 34.5683 79.3504 34.8761 79.5235 35.1861C79.7929 35.1455 80.3081 35.0856 80.9623 35.0856H80.9644Z" fill="white"/>
<path d="M97.5198 45.7763C97.4065 45.1649 96.9918 44.9191 96.7994 44.8357C96.8699 44.5727 96.887 44.329 96.8443 44.1195C96.7887 43.8459 96.5727 43.6577 96.2906 43.6364C95.9998 43.6128 95.7369 43.7817 95.6385 44.0532C95.4076 44.686 94.9373 45.6694 94.0095 46.7661C92.5665 48.4721 90.7578 48.8142 90.4928 48.8548C88.7782 47.9099 87.0509 46.2424 85.4518 44.329L85.9435 43.8159C86.3325 43.4098 86.1337 43.0634 86.0033 42.8368C85.9007 42.6594 85.8964 42.6252 85.937 42.591C86.2043 42.3622 85.9093 41.8 85.5672 41.1522C85.4432 40.917 85.3256 40.6947 85.2487 40.5087L85.1845 40.3527C84.9772 39.8567 84.9451 39.7797 84.9451 39.0272C84.9451 38.4714 84.9088 38.4051 84.7591 38.2127C84.6864 38.1186 84.5838 37.9882 84.4384 37.7018C84.1584 37.1502 84.1562 36.9471 84.1498 36.5388C84.1477 36.3677 84.1455 36.1561 84.1199 35.8739C84.0579 35.1556 83.6774 34.9739 83.1964 34.7409C82.9911 34.6404 82.756 34.5292 82.5101 34.3561C81.7255 33.8066 79.096 33.8879 78.6257 33.9071C78.2965 33.2914 78.1105 32.9194 78.0998 32.8959L78.0869 32.8767C74.955 28.8896 69.123 29.7469 67.9857 29.9585C67.7933 29.9949 67.6501 30.1574 67.6372 30.3519C67.6159 30.6875 67.6415 31.3289 68.0648 31.8462L68.3812 32.2738L66.6816 32.1242L66.6517 32.199C66.6303 32.2546 66.4614 32.7783 67.3444 34.2171C68.0798 35.4143 69.0974 36.7419 69.3924 37.1181C69.4437 37.1844 69.4694 37.2678 69.4608 37.3511C69.3561 38.4051 69.4394 40.2308 69.7473 40.6178C70.0573 41.0068 70.3715 41.0624 70.5832 41.0667C70.6452 41.3532 70.72 41.4173 70.8076 41.6802C70.8846 41.909 70.9851 42.0993 71.1048 42.2404C71.2951 42.4648 71.5815 42.5589 71.8701 42.4905C72.1609 42.4221 72.3875 42.2019 72.4602 41.9133L72.644 41.4066C74.6429 45.2953 77.0993 48.0617 79.9789 49.68C80.0602 49.7548 80.2462 49.9643 80.4428 50.1824C81.4412 51.3005 83.4892 53.5901 84.8639 53.5901C84.9066 53.5901 84.9494 53.588 84.9921 53.5837C85.4304 53.5345 85.7275 53.3613 85.8729 53.0663C86.1508 52.4998 85.7639 51.6618 85.5929 51.339C85.9007 51.3582 86.2064 51.371 86.5036 51.371C89.3105 51.371 91.5702 50.5351 92.5536 50.1012C92.8123 50.0969 95.0848 50.0327 95.8844 49.3657C96.6925 48.6923 97.1542 47.3712 96.9896 47.0975C97.0046 47.059 97.0709 46.9692 97.1222 46.9051C97.3146 46.6571 97.6075 46.2809 97.5134 45.7806L97.5198 45.7763ZM85.7895 43.6663L85.3149 44.1623C84.8681 43.6193 84.4299 43.0591 84.0066 42.4905C84.6907 42.3323 85.4197 42.4926 85.704 42.5717C85.6762 42.6957 85.7511 42.8283 85.8152 42.9416C85.9435 43.166 86.0653 43.3777 85.7874 43.6663H85.7895ZM85.3769 41.2484C85.5672 41.6097 85.8729 42.1912 85.8216 42.3815C85.5587 42.3045 84.6864 42.0864 83.8698 42.3066C83.4572 41.7487 83.0595 41.1843 82.6769 40.622C83.8227 40.4403 84.8382 40.5985 85.0734 40.6413C85.1525 40.8251 85.2615 41.0303 85.3748 41.2484H85.3769ZM84.9772 40.4061C84.5795 40.3441 83.6239 40.2394 82.5465 40.4275C82.2429 39.9785 81.95 39.5317 81.6678 39.0935C83.3952 38.7279 84.4662 39.0101 84.7313 39.0978C84.7335 39.8118 84.7805 39.9379 84.9772 40.4061V40.4061ZM84.2503 37.7915C84.4042 38.0951 84.5175 38.2405 84.5924 38.3367C84.695 38.4692 84.727 38.512 84.7313 38.8711C84.3508 38.7557 83.2605 38.5205 81.5459 38.8989C81.2124 38.373 80.8961 37.8621 80.601 37.3747C82.6085 36.7782 83.8569 37.2913 84.0686 37.3896C84.1113 37.5051 84.1691 37.6355 84.2482 37.7915H84.2503ZM83.9382 36.5345C83.9403 36.7568 83.9446 36.9279 83.9895 37.1245C83.5213 36.9471 82.3049 36.6328 80.4899 37.1865C80.1457 36.6115 79.8314 36.0684 79.5514 35.5767C80.0944 35.4934 82.0141 35.271 83.9147 35.9551C83.9339 36.1924 83.936 36.3763 83.9382 36.5366V36.5345ZM82.3904 34.5249C82.6512 34.7067 82.8928 34.8242 83.1066 34.9268C83.5277 35.1299 83.7971 35.2625 83.8847 35.7178C81.8709 35.0273 79.8613 35.3074 79.438 35.3801C79.1665 34.8991 78.9335 34.4715 78.739 34.1123C79.391 34.091 81.7148 34.0546 82.3883 34.5271L82.3904 34.5249ZM85.6848 52.9701C85.5736 53.1946 85.3342 53.3293 84.9729 53.3678C83.7094 53.511 81.5353 51.076 80.6074 50.037C80.5882 50.0156 80.5732 49.9985 80.554 49.9793C81.7255 50.5651 82.9633 50.967 84.2674 51.185C84.6308 51.2449 84.99 51.2877 85.3427 51.3176C85.3598 51.3475 85.9734 52.3801 85.6848 52.968V52.9701ZM84.3016 50.9755C82.8158 50.7275 81.4155 50.2358 80.1029 49.5004C80.0858 49.4855 80.0687 49.4726 80.0559 49.4662L80.0516 49.4726C77.1591 47.8372 74.7006 45.0217 72.7082 41.056L72.5799 40.7995L72.2571 41.8577C72.2036 42.0715 72.0412 42.2275 71.8252 42.2788C71.6157 42.328 71.4084 42.2596 71.2715 42.0971C71.1689 41.9753 71.0813 41.8107 71.0129 41.6076C70.9188 41.3275 70.8397 41.242 70.7756 40.932C70.611 40.1282 70.6088 39.5104 70.6088 39.5039H70.395C70.395 39.5275 70.395 40.0833 70.5404 40.8444C70.3373 40.8315 70.1471 40.7695 69.914 40.4788C69.7302 40.25 69.5057 39.0272 69.6725 37.3661C69.6725 37.3533 69.6725 37.3405 69.6725 37.3276C70.6238 37.674 71.4896 37.8493 72.2614 37.8493C73.0331 37.8493 73.7621 37.6633 74.3628 37.2934C74.6344 37.1245 74.8652 36.9279 75.0683 36.7162C75.5493 36.9621 78.4525 38.4949 78.677 39.7241C78.7197 39.9614 78.6556 40.1667 78.4824 40.3527C77.9437 40.9277 77.2575 41.1522 76.5498 40.9833C75.7033 40.7824 75.0042 40.0726 74.7263 39.1277L74.521 39.1875C74.8225 40.2052 75.5814 40.9726 76.5007 41.1907C76.6717 41.2313 76.8406 41.2505 77.0095 41.2505C77.1912 41.2505 77.3686 41.2249 77.5418 41.1779C77.6188 41.6118 79.1687 49.4876 89.8707 50.7575C88.3635 51.1081 86.4223 51.324 84.3038 50.9713L84.3016 50.9755ZM92.4916 49.8959C92.0555 50.0883 91.3543 50.3662 90.4628 50.61C79.1601 49.5517 77.762 41.2163 77.7492 41.1308L77.6829 41.1415C78.0292 41.0218 78.3542 40.8059 78.6406 40.5023C78.8608 40.2671 78.9442 39.9935 78.8908 39.6878C78.6535 38.3859 75.8593 36.883 75.2223 36.5537C76.1479 35.4677 76.3019 34.0931 76.3104 34.0204L76.0966 33.999C76.0966 34.0204 75.8615 36.1198 74.2538 37.1138C73.1101 37.8215 71.5537 37.8129 69.6254 37.0839C69.6083 37.0476 69.5891 37.0134 69.5634 36.9813C69.2705 36.605 68.2572 35.2881 67.5282 34.0995C66.8869 33.0541 66.8334 32.5303 66.842 32.3486L68.8366 32.5239L68.2358 31.7094C67.8553 31.2434 67.8318 30.664 67.8532 30.3604C67.8596 30.2621 67.9323 30.1809 68.0285 30.1638C69.1444 29.9564 74.8567 29.1162 77.9138 32.9964C78.0249 33.2187 79.9426 37.0369 82.6256 40.9427C86.3283 46.3364 89.644 49.323 92.4809 49.8211C92.5109 49.8254 92.5173 49.8489 92.5173 49.8574C92.5173 49.8703 92.5173 49.8874 92.4938 49.8981L92.4916 49.8959ZM92.4681 49.5988C91.9166 49.4961 91.3586 49.2952 90.7963 49.0151C91.4313 48.8698 92.9171 48.3909 94.172 46.9051C95.119 45.7849 95.6 44.7758 95.8373 44.1281C95.9186 43.9057 96.1238 43.8395 96.2734 43.8501C96.4188 43.8608 96.5898 43.9485 96.6326 44.1623C96.6732 44.3632 96.6518 44.6027 96.5685 44.872C96.2179 45.9987 94.8368 47.5892 92.4681 49.5988V49.5988ZM96.9597 46.7726C96.8271 46.9436 96.7138 47.089 96.8143 47.2108C96.8827 47.3712 96.5278 48.5555 95.7518 49.2011C95.1083 49.7377 93.3168 49.8553 92.7268 49.881C92.7268 49.8639 92.7311 49.8468 92.7268 49.8297C92.7204 49.7826 92.699 49.7399 92.6712 49.7035C94.9587 47.756 96.3248 46.1889 96.7331 45.0431C96.8934 45.1179 97.2162 45.3274 97.3082 45.8169C97.383 46.2231 97.1371 46.5395 96.9576 46.7726H96.9597Z" fill="white"/>
<path d="M71.0357 32.8174C70.6594 32.8174 70.3516 32.5117 70.3516 32.1333C70.3516 31.7549 70.6573 31.4492 71.0357 31.4492C71.4141 31.4492 71.7198 31.7549 71.7198 32.1333C71.7198 32.5117 71.4141 32.8174 71.0357 32.8174Z" fill="white"/>
<path d="M71.0365 31.6211C70.7543 31.6211 70.5234 31.8498 70.5234 32.1342C70.5234 32.4185 70.7522 32.6472 71.0365 32.6472C71.3208 32.6472 71.5496 32.4185 71.5496 32.1342C71.5496 31.8498 71.3208 31.6211 71.0365 31.6211Z" fill="white"/>
</g>
</g>
</svg>
