<svg width="164" height="79" viewBox="0 0 164 79" fill="none" xmlns="http://www.w3.org/2000/svg">
<path d="M39.7817 39.7586C39.7817 32.9825 34.2887 27.4894 27.5125 27.4894V26.7227C34.7121 26.7227 40.5485 32.559 40.5485 39.7586H39.7817Z" fill="#1A1A4E" fill-opacity="0.5"/>
<path d="M15.2433 39.7586C15.2433 46.5347 20.7364 52.0278 27.5125 52.0278V52.7946C20.3129 52.7946 14.4766 46.9582 14.4766 39.7586H15.2433Z" fill="#1A1A4E" fill-opacity="0.5"/>
<path fill-rule="evenodd" clip-rule="evenodd" d="M22.6436 33.4003C20.7221 34.8631 19.4817 37.1747 19.4817 39.7761C19.4817 44.1988 23.0671 47.7842 27.4898 47.7842C29.3318 47.7842 31.0285 47.1623 32.3814 46.117C34.303 44.6542 35.5433 42.3426 35.5433 39.7412C35.5433 35.3185 31.958 31.7331 27.5353 31.7331C25.6933 31.7331 23.9966 32.355 22.6436 33.4003ZM23.1522 34.0644C23.3397 33.9218 23.5345 33.7882 23.7358 33.6643L26.6529 35.9435C26.6043 35.9544 26.5561 35.9662 26.5082 35.9789L23.0537 34.142C23.0863 34.1158 23.1192 34.09 23.1522 34.0644ZM27.1831 35.8624C27.2319 35.8583 27.2809 35.8551 27.3302 35.8529L24.8551 33.1039C24.5959 33.2063 24.3442 33.3234 24.1008 33.4541L27.1831 35.8624ZM27.8659 35.8644C27.9145 35.8688 27.9628 35.874 28.0109 35.8801L26.0539 32.7482C25.7804 32.8038 25.5126 32.875 25.2514 32.9607L27.8659 35.8644ZM28.5361 35.984C28.5829 35.9967 28.6294 36.0102 28.6754 36.0245L27.2947 32.6071C27.0153 32.6145 26.7399 32.638 26.4694 32.6765L28.5361 35.984ZM29.1749 36.2186C29.2185 36.2391 29.2616 36.2604 29.3043 36.2825L28.5387 32.6806C28.2691 32.6411 27.9946 32.6166 27.7161 32.608L29.1749 36.2186ZM29.7624 36.5605C29.8015 36.588 29.84 36.6162 29.878 36.6452L29.7496 32.9678C29.4905 32.8818 29.2247 32.8102 28.9534 32.7539L29.7624 36.5605ZM30.2809 36.9975C30.3145 37.0312 30.3475 37.0655 30.3799 37.1004L30.8914 33.4609C30.6506 33.331 30.4016 33.2144 30.1453 33.1121L30.2809 36.9975ZM30.7157 37.5158C30.7429 37.5547 30.7695 37.5941 30.7954 37.634L31.9295 34.1436C31.7146 33.9739 31.4898 33.8163 31.256 33.6718L30.7157 37.5158ZM31.0544 38.1002C31.0745 38.1433 31.094 38.1867 31.1126 38.2306L32.8339 34.9934C32.6512 34.7894 32.4569 34.5958 32.2521 34.4139L31.0544 38.1002ZM31.2869 38.7343C31.2993 38.7802 31.311 38.8265 31.3218 38.8731L33.5785 35.9847C33.4333 35.7521 33.2752 35.5285 33.1052 35.3147L31.2869 38.7343ZM31.4062 39.3991C31.4105 39.4466 31.414 39.4944 31.4166 39.5424L34.1411 37.0892C34.0381 36.8344 33.9208 36.5869 33.7904 36.3476L31.4062 39.3991ZM31.41 40.0736C31.4061 40.1217 31.4014 40.1695 31.3959 40.217L34.5041 38.2749C34.4466 38.005 34.3739 37.7408 34.287 37.4831L31.41 40.0736ZM31.2988 40.7379C31.2867 40.785 31.2737 40.8318 31.2598 40.8782L34.6564 39.5059C34.6462 39.229 34.6202 38.9561 34.5794 38.6881L31.2988 40.7379ZM31.0741 41.3742C31.0539 41.4187 31.0329 41.4628 31.011 41.5065L34.5966 40.7444C34.6328 40.4758 34.6542 40.2026 34.6599 39.9255L31.0741 41.3742ZM30.7426 41.9626C30.7147 42.0033 30.6861 42.0435 30.6568 42.083L34.3244 41.9551C34.4071 41.6954 34.4754 41.4294 34.5284 41.1579L30.7426 41.9626ZM30.3146 42.4856C30.2799 42.5212 30.2446 42.5561 30.2086 42.5904L33.8454 43.1016C33.9726 42.8591 34.0863 42.6084 34.1855 42.3505L30.3146 42.4856ZM29.8033 42.9276C29.7627 42.957 29.7215 42.9856 29.6798 43.0134L33.1744 44.149C33.3422 43.9312 33.4977 43.7035 33.64 43.4669L29.8033 42.9276ZM29.2231 43.2755C29.1777 43.2977 29.1317 43.319 29.0852 43.3394L32.3323 45.066C32.5357 44.8796 32.7284 44.6817 32.9092 44.4733L29.2231 43.2755ZM28.5901 43.5182C28.5409 43.5323 28.4914 43.5454 28.4414 43.5575L31.3394 45.8218C31.523 45.7068 31.701 45.5836 31.8729 45.4528C31.9209 45.4157 31.9685 45.378 32.0155 45.3396L28.5901 43.5182ZM27.9223 43.6473C27.8712 43.6527 27.8198 43.657 27.768 43.6603L30.2264 46.3908C30.4846 46.2862 30.7352 46.1671 30.9774 46.0343L27.9223 43.6473ZM27.2419 43.6593C27.1899 43.6558 27.1381 43.6512 27.0867 43.6456L29.0306 46.7567C29.3041 46.6987 29.5718 46.6251 29.8327 46.5369L27.2419 43.6593ZM26.5691 43.554C26.5182 43.5414 26.4676 43.5277 26.4174 43.5131L27.7892 46.9084C28.0696 46.8987 28.3459 46.8728 28.6172 46.8317L26.5691 43.554ZM25.9233 43.3321C25.875 43.3106 25.8273 43.2881 25.78 43.2647L26.5409 46.8444C26.8124 46.8821 27.0888 46.9046 27.3692 46.9109L25.9233 43.3321ZM25.3246 42.9996C25.2807 42.9699 25.2375 42.9394 25.1949 42.908L25.3226 46.565C25.5845 46.6498 25.8529 46.72 26.127 46.7746L25.3246 42.9996ZM24.7925 42.5673C24.7544 42.5304 24.717 42.4928 24.6805 42.4544L24.1714 46.0766C24.4152 46.2063 24.6675 46.3224 24.9271 46.4238L24.7925 42.5673ZM24.3433 42.0489C24.3121 42.0059 24.2819 41.9623 24.2525 41.918L23.1227 45.395C23.3408 45.5655 23.5691 45.7237 23.8064 45.8684L24.3433 42.0489ZM23.991 41.4596C23.9679 41.4119 23.9457 41.3636 23.9245 41.3147L22.2081 44.5427C22.3938 44.7486 22.5912 44.9437 22.7994 45.1268L23.991 41.4596ZM23.7474 40.8164C23.7331 40.7654 23.7197 40.7139 23.7075 40.662L21.4546 43.5454C21.6022 43.7807 21.763 44.0069 21.9361 44.2229L23.7474 40.8164ZM23.6208 40.1389C23.6158 40.0864 23.6118 40.0337 23.6088 39.9807L20.8857 42.4324C20.9903 42.6906 21.1094 42.9412 21.2422 43.1833L23.6208 40.1389ZM23.6146 39.4502C23.6187 39.3976 23.6238 39.3452 23.63 39.2932L20.5198 41.2366C20.5778 41.5101 20.6514 41.7778 20.7396 42.0387L23.6146 39.4502ZM23.7283 38.7715C23.7415 38.7207 23.7557 38.6703 23.7709 38.6204L20.3681 39.9952C20.3778 40.2756 20.4037 40.5519 20.4447 40.8232L23.7283 38.7715ZM23.9601 38.1229C23.982 38.0756 24.0047 38.0288 24.0284 37.9825L20.432 38.7469C20.3944 39.0184 20.3719 39.2948 20.3655 39.5752L23.9601 38.1229ZM24.3029 37.525C24.3325 37.4827 24.3628 37.441 24.3939 37.3999L20.7115 37.5284C20.6267 37.7903 20.5564 38.0588 20.5019 38.3329L24.3029 37.525ZM24.7446 36.9971C24.7806 36.961 24.8172 36.9257 24.8546 36.891L21.1999 36.3773C21.0702 36.6212 20.9541 36.8734 20.8527 37.1329L24.7446 36.9971ZM25.2701 36.5552C25.3115 36.5262 25.3534 36.498 25.3959 36.4706L21.8815 35.3286C21.711 35.5467 21.5528 35.775 21.408 36.0124L25.2701 36.5552ZM25.8639 36.2122C25.9093 36.1911 25.9551 36.1708 26.0013 36.1514L22.7338 34.414C22.528 34.5997 22.3329 34.7971 22.1497 35.0053L25.8639 36.2122ZM27.5125 37.9399C26.5081 37.9399 25.6938 38.7541 25.6938 39.7586C25.6938 40.7631 26.5081 41.5774 27.5125 41.5774C28.517 41.5774 29.3313 40.7631 29.3313 39.7586C29.3313 38.7541 28.517 37.9399 27.5125 37.9399Z" fill="#1A1A4E" fill-opacity="0.5"/>
<path d="M66.6153 40.6118C67.0335 41.0765 67.3402 41.5877 67.5354 42.1453C67.7399 42.6937 67.8421 43.335 67.8421 44.0692C67.8421 45.8165 67.1962 47.2571 65.9043 48.391C64.6124 49.5249 63.0092 50.0918 61.0946 50.0918C60.2117 50.0918 59.3287 49.957 58.4458 49.6875C57.5628 49.4087 56.8007 49.0741 56.1594 48.6837L55.56 49.7014H54.4447L54.2495 42.926H55.3787C55.6111 43.7625 55.8806 44.52 56.1873 45.1984C56.5033 45.8676 56.9169 46.495 57.4281 47.0805C57.9114 47.6289 58.4737 48.0657 59.115 48.391C59.7656 48.7163 60.5184 48.8789 61.3734 48.8789C62.0147 48.8789 62.5724 48.7953 63.0464 48.628C63.5297 48.4607 63.92 48.2237 64.2174 47.917C64.5148 47.6103 64.7333 47.2524 64.8727 46.8435C65.0214 46.4253 65.0957 45.9466 65.0957 45.4076C65.0957 44.6176 64.8727 43.8833 64.4265 43.2049C63.9804 42.5171 63.3159 41.9966 62.433 41.6434C61.8288 41.4018 61.1364 41.1369 60.3557 40.8488C59.575 40.5514 58.9012 40.2726 58.3343 40.0123C57.219 39.5105 56.35 38.8552 55.7273 38.0466C55.1139 37.2287 54.8071 36.1646 54.8071 34.8541C54.8071 34.1013 54.9605 33.3996 55.2672 32.749C55.5739 32.0984 56.0107 31.5175 56.5777 31.0063C57.1167 30.5231 57.7534 30.1466 58.4876 29.8771C59.2218 29.5983 59.9886 29.4589 60.7879 29.4589C61.6987 29.4589 62.512 29.5983 63.2276 29.8771C63.9525 30.1559 64.6124 30.4812 65.2073 30.853L65.7788 29.905H66.8941L67.0057 36.4713H65.8764C65.672 35.7185 65.4396 34.9982 65.1794 34.3104C64.9284 33.6226 64.5985 32.9999 64.1895 32.4423C63.7899 31.9032 63.302 31.4757 62.7257 31.1597C62.1495 30.8344 61.4431 30.6718 60.6067 30.6718C59.7237 30.6718 58.9709 30.9552 58.3482 31.5222C57.7255 32.0891 57.4141 32.7815 57.4141 33.5994C57.4141 34.4545 57.614 35.1655 58.0136 35.7324C58.4133 36.29 58.9941 36.7501 59.7563 37.1126C60.4347 37.4379 61.0993 37.7213 61.7498 37.963C62.4097 38.1953 63.0464 38.4463 63.6598 38.7158C64.2174 38.9575 64.7518 39.2316 65.263 39.5383C65.7835 39.845 66.2343 40.2029 66.6153 40.6118ZM76.6529 49.6875H70.003V48.7674C70.2168 48.7488 70.4352 48.7302 70.6582 48.7116C70.8906 48.693 71.0904 48.6559 71.2577 48.6001C71.518 48.5164 71.7085 48.3724 71.8293 48.1679C71.9594 47.9541 72.0245 47.68 72.0245 47.3454V38.8552C72.0245 38.5578 71.9548 38.2883 71.8154 38.0466C71.6852 37.7957 71.4994 37.5866 71.2577 37.4193C71.0811 37.3077 70.8255 37.2148 70.491 37.1405C70.1564 37.0568 69.8497 37.0057 69.5708 36.9871V36.0809L74.4224 35.7742L74.6175 35.9694V47.1781C74.6175 47.5034 74.6779 47.7729 74.7988 47.9867C74.9289 48.2004 75.1287 48.3584 75.3982 48.4607C75.6027 48.5443 75.8025 48.614 75.9977 48.6698C76.1929 48.7163 76.4113 48.7488 76.6529 48.7674V49.6875ZM74.8964 30.3511C74.8964 30.8809 74.7198 31.3456 74.3666 31.7452C74.0227 32.1356 73.5952 32.3308 73.084 32.3308C72.61 32.3308 72.1964 32.1449 71.8432 31.7731C71.4994 31.392 71.3274 30.9599 71.3274 30.4766C71.3274 29.9654 71.4994 29.5193 71.8432 29.1382C72.1964 28.7572 72.61 28.5666 73.084 28.5666C73.6138 28.5666 74.0459 28.7479 74.3805 29.1103C74.7244 29.4635 74.8964 29.8771 74.8964 30.3511ZM90.9008 37.5726C91.4492 38.2232 91.872 38.9807 92.1695 39.845C92.4762 40.7001 92.6295 41.6806 92.6295 42.7866C92.6295 43.874 92.4483 44.8685 92.0858 45.77C91.7233 46.6623 91.2447 47.4244 90.6499 48.0564C90.0272 48.6977 89.3348 49.1903 88.5726 49.5341C87.8105 49.878 87.0019 50.05 86.1469 50.05C85.3197 50.05 84.6412 49.957 84.1115 49.7711C83.5817 49.5853 83.1495 49.3669 82.8149 49.1159H82.7034V53.2425C82.7034 53.5771 82.7685 53.8559 82.8986 54.079C83.0287 54.302 83.2285 54.4647 83.4981 54.5669C83.7211 54.6506 84.0371 54.7296 84.4461 54.8039C84.8643 54.8876 85.2082 54.934 85.4777 54.9433V55.8774H77.7961V54.9433C78.0842 54.9247 78.3631 54.9015 78.6326 54.8736C78.9021 54.8457 79.1438 54.7993 79.3575 54.7342C79.6364 54.6413 79.8315 54.4786 79.9431 54.2463C80.0546 54.0139 80.1104 53.7397 80.1104 53.4237V38.7995C80.1104 38.5206 80.0406 38.2511 79.9012 37.9909C79.7618 37.7306 79.5806 37.5215 79.3575 37.3635C79.1902 37.252 78.9579 37.1683 78.6605 37.1126C78.3631 37.0475 78.0749 37.0057 77.7961 36.9871V36.0809L82.4804 35.7742L82.6755 35.9415V37.489L82.7871 37.5169C83.2703 36.9592 83.8698 36.4945 84.5855 36.1228C85.3011 35.751 86.0121 35.5651 86.7185 35.5651C87.5735 35.5651 88.3542 35.7463 89.0606 36.1088C89.7762 36.4713 90.3896 36.9592 90.9008 37.5726ZM88.6284 47.4569C89.0002 46.8807 89.2743 46.2115 89.4509 45.4494C89.6275 44.6873 89.7158 43.8369 89.7158 42.8982C89.7158 42.2104 89.6415 41.5087 89.4928 40.793C89.344 40.0774 89.1117 39.4547 88.7957 38.9249C88.4797 38.3859 88.0661 37.949 87.5549 37.6145C87.0438 37.2799 86.4303 37.1126 85.7147 37.1126C85.0269 37.1126 84.4414 37.2659 83.9581 37.5726C83.4748 37.87 83.0566 38.2279 82.7034 38.6461V46.7738C82.7871 47.0247 82.9218 47.285 83.1077 47.5545C83.3029 47.824 83.5166 48.0564 83.749 48.2516C84.0371 48.4839 84.3485 48.6744 84.6831 48.8231C85.0176 48.9626 85.4266 49.0323 85.9099 49.0323C86.4303 49.0323 86.9322 48.8975 87.4155 48.628C87.8988 48.3491 88.3031 47.9588 88.6284 47.4569ZM118.198 49.6875H111.492V48.7674C111.706 48.7488 111.919 48.7302 112.133 48.7116C112.356 48.693 112.551 48.6559 112.719 48.6001C112.979 48.5164 113.169 48.3724 113.29 48.1679C113.42 47.9541 113.485 47.68 113.485 47.3454V40.2493C113.485 39.2827 113.262 38.5392 112.816 38.0187C112.379 37.489 111.831 37.2241 111.171 37.2241C110.716 37.2241 110.288 37.2938 109.889 37.4332C109.489 37.5726 109.122 37.7678 108.787 38.0187C108.518 38.2232 108.29 38.4463 108.104 38.6879C107.928 38.9203 107.793 39.1155 107.7 39.2735V47.206C107.7 47.5313 107.756 47.8008 107.867 48.0146C107.979 48.219 108.169 48.377 108.439 48.4886C108.653 48.5722 108.843 48.6373 109.01 48.6837C109.187 48.7209 109.415 48.7488 109.693 48.7674V49.6875H103.127V48.7674C103.341 48.7488 103.545 48.7302 103.741 48.7116C103.945 48.693 104.131 48.6559 104.298 48.6001C104.559 48.5164 104.749 48.3724 104.87 48.1679C105 47.9541 105.065 47.68 105.065 47.3454V40.2493C105.065 39.2827 104.842 38.5392 104.396 38.0187C103.959 37.489 103.411 37.2241 102.751 37.2241C102.295 37.2241 101.868 37.2985 101.468 37.4472C101.069 37.5866 100.701 37.7817 100.367 38.0327C100.097 38.2372 99.8696 38.4695 99.6837 38.7297C99.4979 38.9807 99.3584 39.1712 99.2655 39.3013V47.1781C99.2655 47.4941 99.3306 47.759 99.4607 47.9727C99.5908 48.1865 99.786 48.3491 100.046 48.4607C100.241 48.5536 100.441 48.6233 100.646 48.6698C100.85 48.7163 101.078 48.7488 101.329 48.7674V49.6875H94.651V48.7674C94.8647 48.7488 95.0832 48.7302 95.3062 48.7116C95.5386 48.693 95.7384 48.6559 95.9057 48.6001C96.1659 48.5164 96.3565 48.3724 96.4773 48.1679C96.6074 47.9541 96.6725 47.68 96.6725 47.3454V38.7995C96.6725 38.502 96.6027 38.2372 96.4633 38.0048C96.3332 37.7632 96.1473 37.5587 95.9057 37.3914C95.7291 37.2799 95.5107 37.1916 95.2505 37.1265C94.9902 37.0522 94.7207 37.0057 94.4419 36.9871V36.0809L99.0425 35.7742L99.2376 35.9694V37.9351H99.3352C99.5676 37.7027 99.851 37.4286 100.186 37.1126C100.52 36.7966 100.832 36.541 101.12 36.3458C101.445 36.1228 101.849 35.9369 102.333 35.7882C102.825 35.6395 103.355 35.5651 103.922 35.5651C104.814 35.5651 105.581 35.8068 106.222 36.29C106.863 36.764 107.323 37.3403 107.602 38.0187C107.937 37.6935 108.23 37.41 108.481 37.1683C108.741 36.9174 109.08 36.6525 109.498 36.3737C109.851 36.132 110.265 35.9369 110.739 35.7882C111.222 35.6395 111.757 35.5651 112.342 35.5651C113.504 35.5651 114.424 35.9462 115.103 36.7083C115.781 37.4704 116.12 38.6415 116.12 40.2215V47.206C116.12 47.5313 116.176 47.8008 116.288 48.0146C116.399 48.219 116.59 48.377 116.859 48.4886C117.073 48.5722 117.282 48.6373 117.487 48.6837C117.7 48.7209 117.937 48.7488 118.198 48.7674V49.6875ZM132.822 49.4366C132.385 49.5946 131.999 49.72 131.665 49.813C131.339 49.9152 130.968 49.9663 130.549 49.9663C129.825 49.9663 129.244 49.799 128.807 49.4644C128.379 49.1206 128.105 48.6233 127.984 47.9727H127.901C127.297 48.6419 126.646 49.1531 125.949 49.5063C125.261 49.8594 124.429 50.036 123.453 50.036C122.422 50.036 121.571 49.72 120.902 49.088C120.242 48.456 119.912 47.6289 119.912 46.6065C119.912 46.0767 119.987 45.6027 120.135 45.1845C120.284 44.7663 120.507 44.3899 120.805 44.0553C121.037 43.7764 121.344 43.5302 121.725 43.3164C122.106 43.0933 122.464 42.9167 122.798 42.7866C123.216 42.6286 124.062 42.3359 125.335 41.9083C126.618 41.4808 127.482 41.1462 127.929 40.9046V39.5244C127.929 39.4036 127.901 39.1712 127.845 38.8273C127.798 38.4835 127.692 38.1582 127.524 37.8515C127.338 37.5076 127.073 37.2102 126.73 36.9592C126.395 36.699 125.916 36.5689 125.294 36.5689C124.866 36.5689 124.466 36.6432 124.095 36.7919C123.732 36.9313 123.477 37.08 123.328 37.238C123.328 37.4239 123.37 37.6981 123.453 38.0606C123.546 38.423 123.593 38.7576 123.593 39.0643C123.593 39.3896 123.444 39.687 123.147 39.9566C122.859 40.2261 122.454 40.3609 121.934 40.3609C121.469 40.3609 121.125 40.1982 120.902 39.8729C120.688 39.5383 120.582 39.1666 120.582 38.7576C120.582 38.3301 120.73 37.9212 121.028 37.5308C121.334 37.1405 121.729 36.7919 122.213 36.4852C122.631 36.225 123.137 36.0066 123.732 35.83C124.327 35.6441 124.908 35.5512 125.475 35.5512C126.256 35.5512 126.934 35.6069 127.51 35.7185C128.096 35.8207 128.626 36.0484 129.1 36.4016C129.574 36.7455 129.931 37.2148 130.173 37.8096C130.424 38.3952 130.549 39.1526 130.549 40.082C130.549 41.4111 130.536 42.5914 130.508 43.6231C130.48 44.6454 130.466 45.7654 130.466 46.9829C130.466 47.3454 130.526 47.6335 130.647 47.8473C130.777 48.061 130.972 48.2423 131.233 48.391C131.372 48.4746 131.59 48.5211 131.888 48.5304C132.195 48.5397 132.506 48.5443 132.822 48.5443V49.4366ZM127.956 42.0756C127.166 42.308 126.474 42.5357 125.879 42.7587C125.284 42.9818 124.731 43.2606 124.22 43.5952C123.755 43.9112 123.388 44.2876 123.119 44.7244C122.849 45.152 122.715 45.6632 122.715 46.258C122.715 47.0294 122.914 47.5963 123.314 47.9588C123.723 48.3213 124.239 48.5025 124.861 48.5025C125.521 48.5025 126.102 48.3445 126.604 48.0285C127.106 47.7032 127.529 47.3221 127.873 46.8853L127.956 42.0756ZM149.37 49.6875H142.636V48.7674C142.85 48.7488 143.083 48.7302 143.334 48.7116C143.594 48.693 143.808 48.6559 143.975 48.6001C144.235 48.5164 144.426 48.3724 144.546 48.1679C144.677 47.9541 144.742 47.68 144.742 47.3454V40.2772C144.742 39.3013 144.509 38.5485 144.045 38.0187C143.589 37.489 143.031 37.2241 142.372 37.2241C141.879 37.2241 141.428 37.3031 141.019 37.4611C140.61 37.6098 140.248 37.7957 139.932 38.0187C139.625 38.2325 139.379 38.4649 139.193 38.7158C139.016 38.9575 138.886 39.1526 138.803 39.3013V47.206C138.803 47.522 138.868 47.7822 138.998 47.9867C139.128 48.1911 139.323 48.3491 139.583 48.4607C139.779 48.5536 139.988 48.6233 140.211 48.6698C140.443 48.7163 140.68 48.7488 140.922 48.7674V49.6875H134.188V48.7674C134.402 48.7488 134.62 48.7302 134.843 48.7116C135.076 48.693 135.276 48.6559 135.443 48.6001C135.703 48.5164 135.894 48.3724 136.014 48.1679C136.145 47.9541 136.21 47.68 136.21 47.3454V38.8552C136.21 38.5392 136.14 38.2511 136 37.9909C135.87 37.7213 135.684 37.5029 135.443 37.3356C135.266 37.2241 135.057 37.1451 134.815 37.0986C134.574 37.0429 134.314 37.0057 134.035 36.9871V36.0809L138.607 35.7742L138.803 35.9694V37.9072H138.872C139.095 37.6842 139.374 37.4193 139.709 37.1126C140.043 36.7966 140.359 36.541 140.657 36.3458C141.001 36.1228 141.41 35.9369 141.884 35.7882C142.358 35.6395 142.892 35.5651 143.487 35.5651C144.807 35.5651 145.783 35.9787 146.415 36.8059C147.056 37.6237 147.376 38.7158 147.376 40.082V47.2339C147.376 47.5591 147.432 47.824 147.544 48.0285C147.655 48.2237 147.846 48.377 148.115 48.4886C148.338 48.5815 148.529 48.6466 148.687 48.6837C148.854 48.7209 149.082 48.7488 149.37 48.7674V49.6875Z" fill="#1A1A4E" fill-opacity="0.5"/>
</svg>
