<svg width="164" height="79" viewBox="0 0 164 79" fill="none" xmlns="http://www.w3.org/2000/svg">
<g clip-path="url(#clip0_4026_14263)">
<path d="M132.086 27.9346C132.086 27.451 132.273 27.0884 132.584 26.7257C132.958 26.3631 133.331 26.2422 133.829 26.2422C134.327 26.2422 134.763 26.4235 135.075 26.7257C135.448 27.0279 135.573 27.451 135.573 27.9346C135.573 28.4181 135.386 28.8412 135.075 29.1434C134.763 29.506 134.327 29.6269 133.829 29.6269C133.331 29.6269 132.895 29.4456 132.584 29.1434C132.273 28.7807 132.086 28.4181 132.086 27.9346Z" fill="#1A1A4E" fill-opacity="0.5"/>
<path d="M50.2097 33.1256V36.6312C49.587 35.9059 49.0267 35.4223 48.5285 35.1202C48.0304 34.8179 47.4701 34.6971 46.8474 34.6971C45.8512 34.6971 44.9795 35.0597 44.2946 35.7246C43.672 36.3894 43.3607 37.296 43.3607 38.3235C43.3607 39.4115 43.672 40.2577 44.3569 40.9226C45.0418 41.5874 45.8512 41.95 46.8474 41.95C47.4701 41.95 48.0927 41.8291 48.5908 41.527C49.0889 41.2852 49.6493 40.7412 50.2719 40.0159V43.4611C49.1512 44.0051 48.0927 44.3073 46.972 44.3073C45.1663 44.3073 43.672 43.7633 42.4267 42.6149C41.1815 41.4665 40.6211 40.0763 40.6211 38.384C40.6211 36.6916 41.2437 35.241 42.489 34.0926C43.7343 32.9442 45.2286 32.3398 47.0342 32.3398C48.0927 32.3398 49.2134 32.5816 50.2097 33.1256Z" fill="#1A1A4E" fill-opacity="0.5"/>
<path d="M52.8242 32.642H55.5015V33.6695C55.9997 33.186 56.4355 32.8234 56.8091 32.642C57.1827 32.4607 57.6808 32.3398 58.1789 32.3398C58.8638 32.3398 59.6109 32.5816 60.4204 33.0047L59.1751 35.4223C58.677 35.0597 58.1789 34.8784 57.6808 34.8784C56.1864 34.8784 55.5015 35.9663 55.5015 38.1422V44.0051H52.8242V32.642Z" fill="#1A1A4E" fill-opacity="0.5"/>
<path d="M66.7692 41.8921L61.5391 32.6445H64.6522L68.2012 39.1723L71.5635 32.6445H74.6144L65.2749 50.1726H62.1617L66.7692 41.8921Z" fill="#1A1A4E" fill-opacity="0.5"/>
<path d="M79.1617 50.172H76.4844V32.6439H79.1617V33.8528C80.2202 32.8252 81.4032 32.2812 82.773 32.2812C84.3918 32.2812 85.6994 32.8857 86.7578 34.0341C87.8163 35.1825 88.3144 36.6331 88.3144 38.3859C88.3144 40.0782 87.8163 41.5289 86.7578 42.6168C85.6994 43.7652 84.3918 44.3092 82.8352 44.3092C81.4654 44.3092 80.2202 43.7652 79.1617 42.7377V50.172ZM85.5748 38.3859C85.5748 37.2979 85.2635 36.3913 84.6409 35.7264C84.0183 35.0616 83.2711 34.6989 82.3371 34.6989C81.3409 34.6989 80.5315 35.0616 79.9089 35.7264C79.2862 36.3913 78.9749 37.2979 78.9749 38.3859C78.9749 39.4738 79.2862 40.32 79.9089 41.0453C80.5315 41.7101 81.3409 42.0728 82.3371 42.0728C83.2711 42.0728 84.0183 41.7101 84.6409 41.0453C85.2635 40.2596 85.5748 39.4134 85.5748 38.3859Z" fill="#1A1A4E" fill-opacity="0.5"/>
<path d="M94.2278 35.0647V43.9496H91.5504V35.0647H90.4297V32.647H91.5504V28.4766H94.2278V32.647H96.3447V35.0647H94.2278Z" fill="#1A1A4E" fill-opacity="0.5"/>
<path d="M97.7773 38.2045C97.7773 36.5726 98.4 35.1825 99.583 34.0341C100.766 32.8857 102.26 32.2812 104.004 32.2812C105.747 32.2812 107.241 32.8857 108.424 34.0341C109.607 35.1825 110.23 36.6331 110.23 38.3254C110.23 40.0178 109.607 41.4684 108.424 42.6168C107.179 43.7652 105.747 44.3092 103.941 44.3092C102.198 44.3092 100.704 43.7048 99.5207 42.5564C98.3377 41.408 97.7773 39.9573 97.7773 38.2045ZM100.517 38.265C100.517 39.4134 100.828 40.32 101.451 40.9849C102.074 41.6497 102.945 42.0124 104.004 42.0124C105.062 42.0124 105.934 41.7101 106.556 41.0453C107.179 40.3805 107.49 39.4738 107.49 38.3859C107.49 37.2979 107.179 36.3913 106.556 35.7264C105.934 35.0616 105.062 34.6989 104.004 34.6989C102.945 34.6989 102.136 35.0616 101.513 35.7264C100.828 36.3309 100.517 37.2375 100.517 38.265Z" fill="#1A1A4E" fill-opacity="0.5"/>
<path d="M113.098 32.6439H115.775V33.6714C116.273 33.1274 116.709 32.7648 117.083 32.5835C117.456 32.4021 117.954 32.2812 118.577 32.2812C119.884 32.2812 120.943 32.8252 121.69 33.9736C122.562 32.8252 123.682 32.2812 125.114 32.2812C127.73 32.2812 129.037 33.8528 129.037 36.9353V43.9465H126.298V37.6606C126.298 36.5726 126.173 35.7869 125.862 35.3638C125.613 34.8803 125.114 34.6989 124.492 34.6989C123.745 34.6989 123.184 35.0012 122.873 35.4847C122.562 36.0286 122.375 36.8748 122.375 38.0837V43.9465H119.635V37.721C119.635 35.7264 119.013 34.6989 117.83 34.6989C117.083 34.6989 116.522 35.0012 116.149 35.5451C115.775 36.0891 115.65 36.9957 115.65 38.1441V44.0069H113.098V32.6439Z" fill="#1A1A4E" fill-opacity="0.5"/>
<path d="M135.197 32.6445H132.52V44.0076H135.197V32.6445Z" fill="#1A1A4E" fill-opacity="0.5"/>
<path d="M138.621 32.6439H141.361V33.6714C142.295 32.7648 143.353 32.2812 144.536 32.2812C145.906 32.2812 146.964 32.7044 147.712 33.5505C148.396 34.2758 148.708 35.4242 148.708 36.9957V43.9465H145.968V37.6606C145.968 36.5122 145.781 35.7869 145.47 35.3638C145.159 34.9407 144.598 34.6989 143.789 34.6989C142.917 34.6989 142.232 35.0012 141.859 35.5451C141.485 36.0891 141.298 37.1166 141.298 38.5068V44.0069H138.621V32.6439Z" fill="#1A1A4E" fill-opacity="0.5"/>
<path d="M160.727 24.3047H163.467V44.0087H160.727V42.7999C159.668 43.8274 158.485 44.3109 157.116 44.3109C155.497 44.3109 154.189 43.7669 153.131 42.6185C152.072 41.4701 151.574 40.0195 151.574 38.2667C151.574 36.5743 152.072 35.1842 153.131 34.0358C154.189 32.8874 155.497 32.3434 157.053 32.3434C158.423 32.3434 159.668 32.8874 160.727 33.9754V24.3047ZM154.314 38.2667C154.314 39.3547 154.625 40.2613 155.185 40.9262C155.808 41.591 156.555 41.9536 157.489 41.9536C158.485 41.9536 159.295 41.591 159.918 40.9262C160.54 40.2613 160.851 39.3547 160.851 38.2667C160.851 37.1787 160.54 36.3326 159.918 35.6073C159.295 34.9424 158.485 34.5798 157.489 34.5798C156.555 34.5798 155.808 34.9424 155.185 35.6073C154.625 36.393 154.314 37.2392 154.314 38.2667Z" fill="#1A1A4E" fill-opacity="0.5"/>
<path d="M34.9548 43.1627L28.3549 29.5633C28.1681 29.1402 27.7323 28.8984 27.2964 28.8984H9.67586C9.24002 28.8984 8.86644 29.1402 8.61739 29.5029L0.585405 43.0418C0.398615 43.4044 0.398615 43.8275 0.585405 44.1902C0.772195 44.5528 1.20804 44.7946 1.64388 44.7946H8.30607C8.74191 44.7946 9.11549 44.5528 9.30228 44.2506L13.7853 36.9372L22.3776 36.9976C23.0625 36.9976 23.5606 36.4536 23.5606 35.8492C23.5606 35.1844 23.0625 34.7008 22.3776 34.7008L13.1004 34.5799C12.6645 34.5799 12.2909 34.8217 12.0419 35.1239L7.55891 42.4374H3.69858L10.3608 31.2557H26.5493L32.5265 43.5858L30.3473 47.2727L25.3662 47.3332L27.4209 44.1297C27.6077 43.8275 27.67 43.4044 27.4832 43.0418L26.3002 40.5637C26.0511 39.9592 25.304 39.7175 24.7436 40.0197C24.121 40.2615 23.8719 40.9868 24.1832 41.5307L25.1172 43.4649L22.6267 47.3936L14.0966 47.454L16.7116 43.5858H19.389C20.0739 43.5858 20.572 43.0418 20.572 42.4374C20.572 41.833 20.0116 41.2285 19.389 41.2285H16.089C15.7154 41.2285 15.2796 41.4099 15.0928 41.7725L7.68344 52.7729C7.68344 52.7729 7.62117 52.8333 7.62117 52.8938C7.62117 52.9542 7.55891 52.9542 7.55891 53.0147C7.55891 53.0751 7.55891 53.0751 7.55891 53.1356C7.55891 53.196 7.55891 53.196 7.49665 53.2564C7.49665 53.3169 7.49665 53.3169 7.49665 53.3773C7.49665 53.4378 7.49665 53.4378 7.49665 53.4982C7.49665 53.5587 7.49665 53.5587 7.49665 53.6191C7.49665 53.6796 7.49665 53.6796 7.49665 53.74C7.49665 53.8004 7.49665 53.8004 7.55891 53.8608C7.55891 53.9213 7.55891 53.9213 7.62117 53.9817C7.62117 54.0422 7.68344 54.0422 7.68344 54.1026C7.68344 54.1631 7.7457 54.1631 7.7457 54.2235C7.7457 54.284 7.80796 54.284 7.80796 54.3444L7.87023 54.4048C7.93249 54.4652 7.93249 54.4652 7.99475 54.4652L8.05702 54.5257C8.11928 54.5861 8.18154 54.5861 8.24381 54.6466C8.30607 54.6466 8.30607 54.707 8.36833 54.707C8.49286 54.7675 8.61739 54.7675 8.67965 54.7675C8.80418 54.7675 8.86644 54.7675 8.99097 54.707C8.99097 54.707 8.99097 54.707 9.05323 54.707C9.11549 54.707 9.24002 54.6466 9.30228 54.6466L9.36455 54.5861C9.42681 54.5257 9.48907 54.5257 9.48907 54.4652L9.55134 54.4048C9.6136 54.3444 9.67586 54.284 9.67586 54.2235L12.54 49.9321L31.0322 49.6904C31.4681 49.6904 31.8416 49.4486 32.0284 49.086L34.8303 44.3111C35.0793 43.888 35.0793 43.5253 34.9548 43.1627Z" fill="#1A1A4E" fill-opacity="0.5"/>
</g>
<defs>
<clipPath id="clip0_4026_14263">
<rect width="163.279" height="78.5166" fill="white"/>
</clipPath>
</defs>
</svg>
