<svg width="164" height="79" viewBox="0 0 164 79" fill="none" xmlns="http://www.w3.org/2000/svg">
<path d="M124.535 33.2461C124.428 32.9406 124.926 32.7502 124.726 32.4226C124.971 32.2146 125.193 32.3916 125.095 32.5554C124.948 32.7945 125.277 33.4187 124.535 33.2461Z" fill="#FF7900"/>
<path d="M102.48 40.3776C102.618 40.1341 102.867 40.1651 103.103 40.1562C103.103 40.3023 103.459 40.413 103.116 40.6078C102.738 40.8247 102.632 40.5945 102.485 40.3732L102.48 40.3776Z" fill="#FF7900"/>
<path d="M126.637 45.3234C126.828 45.3146 127.006 45.2747 127.104 45.0977C127.228 45.1552 127.566 45.0977 127.437 45.2924C127.259 45.5581 126.921 45.7175 126.637 45.3234Z" fill="#FF7900"/>
<path d="M128.895 43.1349C128.415 43.2677 127.957 43.4935 127.494 43.5068C125.364 43.5687 123.47 44.4409 121.579 45.1315C120.023 45.6982 118.364 46.2339 116.994 47.2167C116.816 47.3451 116.572 47.3584 116.403 47.2123C116.207 47.0396 116.287 46.7784 116.487 46.7164C117.012 46.5615 117.034 46.1011 117.261 45.769C117.63 45.2289 117.977 44.7508 118.818 45.0961C119.098 45.2112 119.391 45.1094 119.409 44.7375C119.627 44.6003 119.845 44.463 120.063 44.3258C120.877 43.9893 121.771 43.7547 122.135 42.8781C122.207 42.701 122.287 42.4088 122.54 42.5505C123.216 42.9224 123.394 42.462 123.679 42.0768C123.87 41.8156 124.168 41.5942 124.541 41.6297C125.288 41.7005 125.524 41.1205 125.924 40.7575C126.36 40.3635 125.747 40.2351 125.667 39.9739C125.582 39.6994 125.48 39.3585 125.818 39.177C126.116 39.0221 126.16 38.752 126.036 38.6103C125.907 38.4598 125.538 38.3359 125.351 38.3978C124.039 38.845 122.602 38.8937 121.33 39.4604C120.512 39.8234 119.649 40.0713 118.742 40.1643C118.818 39.9518 118.889 39.7437 118.964 39.5312C119.298 39.5755 119.663 39.5489 119.614 39.1637C119.569 38.8229 119.334 39.1637 119.173 39.1505C119.031 38.3359 119.796 38.513 120.241 38.3713C120.619 38.2518 121.384 38.5572 121.006 37.6984C120.992 37.6629 121.348 37.4903 121.544 37.3752C121.544 37.3752 121.548 37.3752 121.553 37.3752C121.548 37.5523 121.539 37.8976 121.637 37.8577C121.966 37.7338 122.34 37.5744 122.411 37.1715C122.553 37.1051 122.691 37.0387 122.834 36.9723C123.038 36.8218 123.145 36.534 123.487 36.5783C123.852 36.3835 124.279 36.2551 124.43 35.8345C125.653 35.0642 125.769 34.7499 125.297 33.559C125.266 33.4793 125.4 33.3421 125.457 33.2358C125.757 32.8167 125.821 32.5422 125.649 32.4124C123.91 32.4301 122.287 32.9215 120.703 33.5059C119.374 33.9973 118.097 34.6038 116.799 35.1572C116.652 34.9137 117.448 34.6702 117.506 34.3249C117.95 34.3382 117.67 34.0106 117.83 33.8113C118.533 32.9259 119.191 32.9126 119.596 31.735C120.263 32.0848 119.956 32.4965 120.601 32.6072C121.05 32.6824 121.851 36.0736 121.366 34.989C121.295 34.8296 121.513 35.715 121.637 35.6707C122.629 35.3166 123.372 33.7007 124.337 33.2668C125.071 32.9392 125.382 27.5779 125.373 26.7943C125.364 25.9222 124.995 26.0019 124.47 26.0816C123.612 26.2144 122.767 26.4047 121.926 26.6084C119.712 27.1441 118.569 27.9542 116.416 28.667C116.47 28.0649 116.95 27.8878 117.443 27.7196C118.453 27.3831 118.658 27.392 119.663 27.0378C120.023 26.9094 120.419 26.7545 120.259 26.2631C120.25 25.931 120.236 25.6034 120.227 25.2714C120.668 24.7047 121.415 24.5055 121.957 24.0451C122.527 23.5581 121.833 23.0623 122.104 22.6107C122.104 22.6107 121.944 22.4912 121.9 22.5089C121.193 22.8188 120.356 22.531 119.672 22.9471C119.294 23.1774 118.898 23.4209 118.351 23.2128C118.875 22.7524 118.555 22.2167 118.533 21.7031H117.884C117.608 22.4469 116.834 22.075 116.314 22.2787C113.877 23.2216 111.533 24.3638 109.287 25.6123C107.152 26.7988 104.978 27.9365 102.928 29.2514C102.661 29.424 102.065 28.9725 102.123 29.6321C102.096 29.6321 102.074 29.6498 102.047 29.6897C102.025 29.7295 102.047 29.7649 102.127 29.8004C102.269 29.8092 102.443 29.8712 102.549 29.8225C104.333 28.9636 106.103 28.0871 107.886 27.2282C108.415 26.9714 108.887 26.5066 109.652 26.7368C108.647 27.3079 107.891 28.0074 107.148 28.8087C105.796 30.2652 104.115 31.465 102.616 32.8108C101.58 33.7405 101.611 33.7671 102.705 34.6569C103.048 34.9358 103.154 35.1129 102.656 35.4715C101.976 35.9585 101.215 36.264 100.486 36.6358C100.188 36.7908 99.5876 36.8218 99.9701 37.4106C100.33 37.964 100.65 37.6364 101.091 37.4903C102.029 37.176 102.336 36.2861 103.088 35.8257C104.893 34.7278 106.472 33.3686 108.171 32.1467C108.74 31.7394 109.22 31.1241 110.114 31.04C109.732 31.465 109.403 31.8324 109.074 32.1954C109.963 32.1202 110.31 31.1993 111.142 31.0311C110.408 31.9254 109.305 32.4478 108.451 33.1871C106.21 35.1351 103.684 36.7908 101.54 38.8273C100.757 39.571 99.7121 40.0624 98.9961 41.063C99.6454 41.0763 100.006 41.3862 100.299 41.7403C100.815 42.3557 101.242 42.2893 101.709 41.6961C102.158 41.1294 102.727 40.6734 103.417 40.3591C103.652 40.3546 103.884 40.3414 104.039 40.1377C104.115 39.5843 104.591 39.2169 105.018 39.0354C105.992 38.6281 106.499 37.7338 107.393 37.2955C108.722 36.6447 109.612 35.4538 110.99 34.8694C111.311 34.7322 111.702 34.5418 111.898 34.8296C112.08 35.0996 111.738 35.3874 111.493 35.5999C110.439 36.5075 109.394 37.4283 108.309 38.3049C108.051 38.5174 108.015 38.8494 107.628 39.0044C106.814 39.3231 106.49 40.1687 105.796 40.6158C105.245 40.9744 106.725 41.0586 105.898 41.2002C105.534 41.2622 105.107 41.2445 104.751 41.4083C104.542 41.5013 104.417 41.7138 104.266 41.8953C103.835 42.4044 103.639 43.1172 102.776 43.2854C102.407 43.3562 102.163 43.7325 102.705 43.9229C103.568 44.2284 104.377 44.5383 104.764 45.3883C104.786 45.437 105.04 45.4591 105.049 45.437C105.414 44.6401 106.379 45.2333 106.935 44.7065C107.757 43.9273 108.415 42.9312 109.661 42.5903C109.75 42.5638 109.612 42.2804 109.861 42.1565C110.145 42.4265 110.435 42.7054 110.733 42.9932C110.292 43.3252 109.523 43.25 109.394 43.7016C109.1 44.7242 108.051 45.1005 107.353 45.6141C106.032 46.588 104.724 47.6019 103.35 48.5271C102.176 49.3152 102.216 49.3771 103.443 50.0766C103.523 50.1209 103.572 50.205 103.639 50.2714C104.324 50.993 105.133 51.0063 106.09 50.5725C106.41 50.4264 107.019 50.0235 107.477 50.5725C107.019 51.1834 106.299 51.635 105.725 52.0511C105.173 52.4496 104.795 53.0428 104.137 53.3571C103.737 53.5475 103.519 54.1629 103.999 54.3931C104.911 54.8269 105.916 55.2608 106.908 55.3139C107.437 55.3449 107.997 54.5525 108.776 54.5702C108.776 53.8485 109.438 53.915 109.896 53.8441C110.417 53.7644 110.986 53.4988 111.079 53.1889C111.248 52.6222 111.893 52.5647 112.062 52.5868C112.925 52.6975 112.996 52.0644 113.219 51.6394C113.307 51.4712 113.352 51.2454 113.525 51.3428C114.686 51.9803 115.238 50.8248 116.029 50.5371C116.652 50.3113 116.994 49.448 117.982 49.6915C118.119 49.7269 118.6 49.479 118.493 49.0717C118.924 49.3196 119.294 49.2133 119.623 48.899C119.796 48.5625 120.405 48.7573 120.49 48.3058C121.068 48.0977 121.646 47.8896 122.224 47.6771C122.442 47.5974 122.567 47.4381 122.647 47.2433C122.802 47.261 122.967 47.3052 123.011 47.0927C123.407 47.0662 123.679 46.9112 123.714 46.5128C124.154 46.3357 124.47 45.6185 125.102 46.256C125.226 46.38 125.351 46.2516 125.409 46.1276C125.849 45.2333 126.881 45.6495 127.57 45.3042C127.823 45.4016 128.059 45.468 128.037 45.0784C128.998 44.556 128.584 44.1487 127.855 43.7724C128.268 43.6219 128.891 43.8521 128.886 43.1127L128.895 43.1349Z" fill="white" fill-opacity="0.2"/>
<path d="M107.531 32.5397C107.531 32.5397 107.634 32.6017 107.696 32.615C108.038 32.6681 108.136 32.5088 108.092 32.2343C107.82 32.1989 107.616 32.283 107.531 32.5397Z" fill="#FF7900"/>
<path d="M108.094 32.2344C108.094 32.2344 108.108 32.2344 108.113 32.2344C108.113 32.2344 108.108 32.2298 108.099 32.2253C108.104 32.2298 108.113 32.2344 108.113 32.2344C108.122 32.2253 108.126 32.2161 108.135 32.207C108.122 32.207 108.104 32.2116 108.09 32.2116C108.09 32.2207 108.09 32.2253 108.09 32.2298L108.094 32.2344Z" fill="#FF7900"/>
<path d="M49.4505 47.2693C49.6551 47.5659 49.9042 47.8049 50.1799 47.9997C50.5001 48.2299 50.3222 48.7435 49.922 48.7435H45.488C45.19 48.7435 44.9988 48.4469 45.1055 48.1724C45.1945 47.9422 45.1678 47.6456 44.9944 47.2693L40.5648 39.5439C40.4225 39.2916 40.1557 39.141 39.8666 39.141H37.5362C37.2027 39.141 36.9359 39.4111 36.9359 39.7387V47.2029C36.9359 47.2471 36.9403 47.2958 36.9536 47.3401C37.0381 47.5969 37.1893 47.8448 37.3761 48.0573C37.6163 48.3273 37.434 48.7479 37.0737 48.7479H32.3374C31.9771 48.7479 31.7992 48.3273 32.0349 48.0573C32.2217 47.8404 32.3729 47.5969 32.4574 47.3357C32.4708 47.2914 32.4752 47.2471 32.4752 47.2029V26.6344C32.4752 26.5901 32.4708 26.5414 32.4574 26.5016C32.3596 26.1961 32.1728 25.9083 31.9326 25.6693C31.7192 25.4568 31.8837 25.0938 32.1861 25.0938H43.5445C47.3025 25.2487 50.3089 28.3388 50.3089 32.1063C50.3089 35.3071 48.1475 38.0077 45.2078 38.8533C44.9543 38.9285 44.8342 39.2207 44.9677 39.4509L49.455 47.2693H49.4505ZM36.9359 37.7996C36.9359 38.1272 37.2027 38.3929 37.5318 38.3929H39.1684C42.6951 38.3929 45.6348 35.679 45.8393 32.1417C45.8393 32.1196 45.8393 32.093 45.8393 32.0709C45.6348 28.5513 42.6818 25.8375 39.1684 25.8375H37.5852C37.2294 25.8375 36.9403 26.1253 36.9403 26.4794V37.7996H36.9359Z" fill="#1A1A4E" fill-opacity="0.5"/>
<path d="M67.477 43.7522C67.5481 43.7522 67.6326 43.8585 67.6015 43.9603C67.1479 45.6648 64.9109 47.927 63.0252 48.4317C62.2381 48.6398 61.4331 48.746 60.6504 48.746C56.6167 48.746 52.9121 46.0676 51.8269 41.9991C50.515 37.1292 53.4191 32.1399 58.2933 30.8339C59.0805 30.6258 59.8499 30.5195 60.5837 30.5195C64.0748 30.5195 66.761 32.8261 68.1085 36.4209C68.1085 36.4298 68.1129 36.4386 68.1174 36.4475L68.2641 36.961C68.3086 37.1115 68.2197 37.2665 68.0685 37.3063L57.982 39.998C57.7552 39.998 57.5817 39.9803 57.5106 39.7014C57.4394 39.4756 57.564 39.2498 57.773 39.1967L62.4071 37.9615C62.9007 37.8287 63.1764 37.3063 63.0119 36.8282C61.9179 33.6938 60.6815 31.5643 59.0494 31.5643C58.8759 31.5643 58.698 31.582 58.5068 31.6352C56.2876 32.2284 55.4515 36.2969 56.6567 40.7152C57.7418 44.766 60.1701 47.7057 62.2647 47.7057C62.456 47.7057 62.6472 47.688 62.8251 47.6348C64.6752 47.1478 66.7743 45.4434 67.4014 43.8275C67.4192 43.7921 67.4547 43.7567 67.4903 43.7567L67.477 43.7522Z" fill="#1A1A4E" fill-opacity="0.5"/>
<path d="M84.3584 47.139C84.3673 47.108 84.3718 47.077 84.3718 47.0416V37.1425C84.3718 34.0125 82.5039 31.4714 80.1957 31.4714C77.8876 31.4714 76.0375 34.0125 76.0375 37.1425V47.0416C76.0375 47.0726 76.042 47.108 76.0509 47.139C76.1887 47.5596 76.4778 47.958 76.8425 48.2635C77.0382 48.4273 76.9136 48.746 76.6557 48.746H70.4428C70.1849 48.746 70.0604 48.4273 70.256 48.2635C70.6207 47.9624 70.9098 47.564 71.0432 47.139C71.0521 47.108 71.0566 47.077 71.0566 47.046V35.4912C71.0566 34.6722 70.8831 32.7597 70.216 32.1709L71.0566 31.9451L76.0197 30.5195H76.0375V31.3695C76.0375 31.582 76.2643 31.7104 76.4511 31.613C77.772 30.9313 79.3463 30.5195 81.0363 30.5195C85.6303 30.5195 89.3527 33.4946 89.3527 37.147V47.046C89.3527 47.077 89.3527 47.108 89.3661 47.139C89.495 47.564 89.7886 47.958 90.1532 48.2635C90.3489 48.4273 90.2244 48.746 89.9665 48.746H83.7536C83.5001 48.746 83.3711 48.4273 83.5668 48.2635C83.927 47.9624 84.2161 47.564 84.3584 47.139Z" fill="#1A1A4E" fill-opacity="0.5"/>
<path d="M92.531 27.96L97.5519 25.1266C97.7387 25.0203 97.97 25.1576 97.97 25.3701V27.9378C97.97 28.0928 98.0945 28.2167 98.2502 28.2167H99.3709C99.5265 28.2167 99.6511 28.3407 99.6511 28.4956V29.5936C99.6511 29.7485 99.5265 29.8725 99.3709 29.8725H98.2502C98.0945 29.8725 97.97 29.9964 97.97 30.1514V47.094C97.97 47.1295 97.9744 47.1649 97.9878 47.1959C98.1345 47.5987 98.4147 47.975 98.7572 48.2628C98.9528 48.4266 98.8328 48.7454 98.5748 48.7454H94.0742C93.4738 48.7454 92.989 48.2628 92.989 47.6651V29.8636C92.989 29.3102 92.7756 28.6904 92.4687 28.3894C92.3353 28.261 92.3708 28.0485 92.531 27.9555V27.96Z" fill="#1A1A4E" fill-opacity="0.5"/>
<path d="M121.019 32.0414C121.019 32.0414 121.002 32.0724 120.997 32.0901L114.909 48.7406V48.7583C113.09 53.73 110.279 57.037 106.592 57.037C103.693 57.037 100.895 55.7797 99.9525 52.5878C99.9214 52.4815 99.957 52.3664 100.041 52.2911L102.007 50.6442C102.176 50.5026 102.439 50.6044 102.461 50.8213C102.821 53.9203 104.471 56.2003 106.588 56.2003C108.589 56.2003 109.883 54.6198 110.915 52.4549C111.044 52.1805 111.053 51.8661 110.951 51.5828L103.862 32.1831C103.702 31.7581 103.23 31.3508 102.714 31.0409C102.474 30.8948 102.581 30.5273 102.861 30.5273H108.936C109.172 30.5273 109.31 30.8018 109.154 30.9789C108.896 31.2667 108.772 31.6518 108.825 32.1123L113.401 44.6145C113.49 44.858 113.837 44.858 113.926 44.6145L118.467 32.1831C118.529 31.6961 118.404 31.28 118.133 30.9789C117.977 30.8063 118.124 30.5318 118.355 30.5318H121.958C122.242 30.5318 122.345 30.8992 122.1 31.0453C121.642 31.3198 121.219 31.6651 121.01 32.0414H121.019Z" fill="#1A1A4E" fill-opacity="0.5"/>
<path d="M125.258 47.1364C125.266 47.1055 125.271 47.0745 125.271 47.0391V30.0654C125.271 29.2287 125.097 27.3162 124.43 26.7451L125.271 26.5193L130.234 25.0938H130.252V47.0435C130.252 47.0745 130.252 47.1055 130.265 47.1364C130.394 47.5615 130.688 47.9555 131.052 48.2609C131.248 48.4247 131.124 48.7435 130.866 48.7435H124.653C124.399 48.7435 124.27 48.4247 124.466 48.2609C124.826 47.9599 125.115 47.5615 125.258 47.1364Z" fill="#1A1A4E" fill-opacity="0.5"/>
</svg>
