<svg width="164" height="79" viewBox="0 0 164 79" fill="none" xmlns="http://www.w3.org/2000/svg">
<path d="M90.9192 37.0782C94.296 32.7696 99.839 34.4947 100.025 39.7977C100.074 41.1614 100.296 49.147 99.9497 49.7172C99.4302 49.9684 97.3893 49.8544 96.733 49.8417C96.4441 46.4661 96.9653 42.7519 96.5746 39.3617C96.345 37.3697 93.5821 36.8274 92.2921 38.1339C91.1019 39.3403 91.3702 40.9715 91.3747 42.5324L91.3891 47.6109C91.3963 48.3511 91.3873 49.0912 91.3621 49.8309C90.3655 49.8963 89.097 49.8603 88.0987 49.8365C88.0518 49.3051 88.0581 48.7666 88.0581 48.2335C88.0563 46.1964 88.0707 44.1582 88.068 42.1212C88.0662 40.7495 88.1698 39.1831 87.2011 38.0861C86.8212 37.6557 86.2819 37.4267 85.7193 37.4129C84.4409 37.357 83.6559 37.8981 82.7673 38.7435C82.6908 39.8502 82.7322 41.3538 82.7331 42.4818C82.7493 44.935 82.7439 47.3883 82.7178 49.8414C81.6204 49.8621 80.523 49.8623 79.4255 49.8419C79.2743 48.9193 79.2887 44.0639 79.3274 42.9549C79.4039 40.7612 79.1879 37.0384 79.3895 34.961C80.2844 34.8766 81.4952 34.9142 82.4009 34.9312C82.4972 35.5449 82.6098 36.1409 82.5963 36.7633L82.6224 36.7329C83.7 35.4491 84.675 34.8873 86.3098 34.7547C88.4101 34.386 89.8407 35.3619 90.9192 37.0782Z" fill="#1A1A4E" fill-opacity="0.5"/>
<path d="M130.311 34.7576C134.21 34.238 137.142 36.8308 137.656 40.6946C138.253 45.1827 136.747 49.384 131.91 50.1268C127.611 50.3149 124.857 48.1693 124.359 43.7092C123.88 39.4086 125.578 35.1442 130.311 34.7576ZM131.477 47.4019C133.892 46.9338 134.504 44.3506 134.463 42.2133C134.415 39.7769 133.512 37.2803 130.681 37.3844C127.548 37.9452 127.401 41.6946 127.801 44.228C128.135 46.3476 129.343 47.4583 131.477 47.4019Z" fill="#1A1A4E" fill-opacity="0.5"/>
<path d="M60.0578 34.7514C60.2189 34.7256 60.3819 34.7084 60.5448 34.7C65.1443 34.4755 67.1284 37.2978 67.2554 41.7154C67.2689 42.203 67.3211 42.8573 66.9772 43.2379C66.356 43.5299 59.3925 43.3969 58.0502 43.403C58.224 46.2271 59.7202 47.6822 62.6118 47.3343C63.7299 47.1999 64.6374 46.7219 65.6448 46.2405C66.0166 46.5839 67.0699 48.2322 66.4361 48.6609C61.8052 51.7324 55.4945 50.2118 54.6667 44.0924C54.1265 40.0997 55.5635 35.366 60.0578 34.7514ZM58.1222 40.8205L61.085 40.8156L63.8632 40.8158C63.7561 38.9858 63.2087 37.4602 61.0868 37.3938C59.0027 37.6206 58.4607 38.9817 58.1222 40.8205Z" fill="#1A1A4E" fill-opacity="0.5"/>
<path d="M41.1395 28.3635C41.8348 28.3509 43.613 28.2267 44.1571 28.5338C44.4707 29.4505 44.2873 39.0008 44.3241 40.6424L45.5054 40.6461C46.4881 39.0575 48.2461 36.331 49.311 34.9024C49.9901 34.8955 52.249 34.8058 52.7701 35.024L52.8102 35.1826C52.5002 36.1692 49.1818 40.5901 48.3681 41.7271C49.7455 43.6419 51.1111 45.7174 52.4497 47.6748C52.742 48.1075 53.6293 49.2077 53.4798 49.6989C53.062 50.0703 50.7991 49.8538 50.0701 49.8404C48.7979 48.3303 46.9278 45.1543 45.616 43.3637L44.3063 43.3872C44.3042 44.3186 44.4135 49.1789 44.1424 49.7122C43.5829 49.9887 41.6753 49.8626 40.9828 49.847C40.958 49.6543 40.94 49.4606 40.9288 49.2666C40.8543 47.983 40.8907 46.4178 40.8896 45.1165L40.8863 38.1558L40.8867 32.2881C40.887 31.5731 40.7624 28.793 41.1395 28.3635Z" fill="#1A1A4E" fill-opacity="0.5"/>
<path d="M108.762 34.7541C113.469 34.1959 115.71 37.6863 115.544 42.0188C115.527 42.465 115.576 42.7664 115.346 43.1853C114.901 43.5378 107.539 43.3714 106.338 43.4125C106.74 46.9849 108.961 48.1644 112.226 47.0172C112.655 46.8662 113.756 46.2896 114.133 46.3286C114.531 46.903 114.881 47.7647 115.161 48.4212C107.967 53.192 101.12 47.8076 103.28 39.5668C103.998 36.8281 105.947 34.9965 108.762 34.7541ZM106.41 40.8244C107.523 40.8472 108.635 40.8546 109.748 40.8465L112.21 40.8339C112.146 38.9519 111.477 37.2584 109.261 37.3689C109.215 37.3712 109.168 37.375 109.123 37.3801C107.308 37.7548 106.784 39.1915 106.41 40.8244Z" fill="#1A1A4E" fill-opacity="0.5"/>
<path d="M32.1349 34.6683C33.7373 34.4158 35.9262 35.2997 37.0319 36.4919C37.9152 37.4506 38.3847 38.7264 38.3364 40.0368C38.3165 40.6147 35.8912 40.3744 35.369 40.3547C35.079 39.1007 34.6093 37.8858 33.2853 37.5129C31.5694 37.0299 29.8651 37.9782 29.4342 39.7463C28.9615 41.6611 28.9081 44.0701 29.7768 45.8805C30.5334 47.4572 32.5624 47.7976 33.9924 46.9806C34.8558 46.4872 35.0824 45.8324 35.3389 44.9401C35.7202 44.7849 37.7867 44.8291 38.2154 44.953C38.2829 45.0346 38.3431 45.1476 38.3393 45.256C38.2394 48.0722 35.6047 49.9115 33.0639 50.1432C28.7505 50.5363 25.9992 47.5998 25.7487 43.3786C25.6023 40.91 25.8846 38.655 27.5111 36.6958C28.7828 35.1835 30.2582 34.8197 32.1349 34.6683Z" fill="#1A1A4E" fill-opacity="0.5"/>
<path d="M70.6206 31.3315C71.7118 31.3247 72.8029 31.3282 73.894 31.342C73.9687 32.4913 73.8778 33.6808 73.9705 34.8878C76.4282 34.991 76.8423 34.3902 76.5011 37.4238C75.8809 37.483 74.6205 37.4622 73.9489 37.4691C73.8769 39.0151 73.6923 45.5638 74.1596 46.6389C74.6142 47.6856 75.5451 46.9897 76.2617 47.2852C76.3598 47.3255 76.4156 47.5369 76.4588 47.6387C76.5741 48.2836 76.6587 49.0077 76.7496 49.6621C74.8573 50.3866 72.6129 50.5687 71.303 48.6423C70.9177 48.0744 70.6639 47.1082 70.6107 46.4244C70.4055 43.7665 70.5738 41.067 70.5135 38.4002C70.5072 37.1361 70.4172 32.3221 70.6206 31.3315Z" fill="#1A1A4E" fill-opacity="0.5"/>
<path d="M10.4095 31.332L13.6737 31.3419C13.7323 32.4472 13.7041 33.7494 13.7318 34.8884C14.5665 34.9262 16.2224 34.5061 16.3829 35.5673C16.7614 38.0704 15.4042 37.4038 13.7227 37.4944C13.7019 38.9574 13.4808 45.732 13.9119 46.634C14.3903 47.6357 15.4032 47.0252 16.1348 47.2855L16.2263 47.4997C16.3583 48.1296 16.4518 49.003 16.5401 49.6573C13.963 50.6775 10.9919 50.2501 10.5208 47.0964C10.1715 44.7585 10.3598 41.6378 10.3551 39.2072L10.3448 34.3517C10.3436 33.4604 10.3086 32.1874 10.4095 31.332Z" fill="#1A1A4E" fill-opacity="0.5"/>
<path d="M118.479 28.4546C119.141 28.4374 121.056 28.3111 121.58 28.5811C121.772 29.2472 121.835 48.7448 121.611 49.8442C120.549 49.8823 119.463 49.8595 118.398 49.8503C118.323 47.8307 118.208 29.0601 118.479 28.4546Z" fill="#1A1A4E" fill-opacity="0.5"/>
<path d="M19.3946 35.6523C19.99 35.7615 22.6677 37.6883 22.6993 38.3884C22.7525 39.5655 22.7234 40.8885 22.7225 42.078C22.7341 44.6662 22.7253 47.2546 22.6963 49.8428C21.6016 49.8858 20.4953 49.8636 19.3994 49.8534C19.283 48.4681 19.3514 45.7094 19.3576 44.2078C19.3691 41.4327 19.2958 38.4041 19.3946 35.6523Z" fill="#1A1A4E" fill-opacity="0.5"/>
<path d="M19.4487 27.8242C19.9543 28.0544 22.1356 29.8223 22.6858 30.2681C22.7503 31.5175 22.7192 33.5266 22.6786 34.7712C21.8462 34.1635 20.0629 32.9087 19.3941 32.1611C19.3487 31.3098 19.3192 28.5696 19.4487 27.8242Z" fill="#1A1A4E" fill-opacity="0.5"/>
<path d="M143.416 37.0089C145.115 34.784 147.552 33.9658 150.292 35.3023C151.421 35.8532 152.023 37.1144 152.329 38.3251V49.8476C148.735 49.9667 149.132 50.316 149.154 46.9044L149.182 42.0172C149.195 39.6843 149.279 36.9456 145.827 37.5106C145.225 37.609 143.916 38.2514 143.726 38.8578C143.175 40.6288 144.032 48.6502 143.366 49.7204C142.991 49.9815 140.805 49.8513 140.256 49.8287C140.099 48.6931 140.109 35.8187 140.317 35.1087C140.755 34.7817 142.605 34.9209 143.192 34.944C143.319 35.5784 143.373 36.3651 143.416 37.0089Z" fill="#1A1A4E" fill-opacity="0.5"/>
</svg>
