<svg width="173" height="79" viewBox="0 0 173 79" fill="none" xmlns="http://www.w3.org/2000/svg">
<path d="M109.535 26.7148H113.949C114.103 26.7148 114.231 26.8435 114.231 26.9937V27.6972C114.231 27.8516 114.103 27.9803 113.949 27.9803H109.535V26.7148Z" fill="#1A1A4E" fill-opacity="0.5"/>
<path d="M110.68 37.0721V25.288C110.68 23.8038 111.232 22.5597 112.359 21.4916C113.306 20.5993 114.369 20.0802 115.586 19.9258V21.1913C114.703 21.32 113.919 21.6932 113.251 22.3023C112.385 23.0831 111.944 24.0869 111.944 25.2837V37.0678H110.68V37.0721Z" fill="#1A1A4E" fill-opacity="0.5"/>
<path d="M119.317 29.9917V30.6952C119.317 30.8454 119.441 30.9741 119.595 30.9741H128.357C128.366 30.8325 128.383 30.6866 128.383 30.5408C128.383 26.9374 125.461 24.0117 121.857 24.0117C118.254 24.0117 115.336 26.9374 115.336 30.5408C115.336 34.1442 118.258 37.0699 121.857 37.0699C124.638 37.0699 127.008 35.3282 127.942 32.8744H126.571C125.709 34.6118 123.927 35.813 121.853 35.813C118.952 35.813 116.591 33.4536 116.591 30.5451C116.591 27.6366 118.948 25.2772 121.853 25.2772C124.48 25.2772 126.648 27.199 127.046 29.7171H119.595C119.441 29.7171 119.317 29.8458 119.317 29.996V29.9917Z" fill="#1A1A4E" fill-opacity="0.5"/>
<path d="M106.559 37.0738V24.2945C106.559 24.1443 106.687 24.0156 106.841 24.0156H107.548C107.698 24.0156 107.827 24.1443 107.827 24.2945V37.0738H106.563H106.559Z" fill="#1A1A4E" fill-opacity="0.5"/>
<path d="M106.841 21.1913C106.687 21.1913 106.559 21.0626 106.559 20.9124V20.2046C106.559 20.0545 106.687 19.9258 106.841 19.9258H107.548C107.698 19.9258 107.827 20.0545 107.827 20.2046V20.9124C107.827 21.0626 107.703 21.1913 107.548 21.1913H106.841Z" fill="#1A1A4E" fill-opacity="0.5"/>
<path d="M104.844 37.085H99.4447C96.711 37.085 94.5 34.8671 94.5 32.1345V20.2003C94.5 20.0459 94.6243 19.9258 94.7742 19.9258H95.4555C95.6098 19.9258 95.7297 20.0502 95.7297 20.2003V32.1303C95.7297 34.1808 97.3922 35.8452 99.4404 35.8452H104.839V37.0807L104.844 37.085Z" fill="#1A1A4E" fill-opacity="0.5"/>
<path d="M47.3734 28.5601C47.3734 32.6268 50.3385 35.9643 53.5906 35.9643C55.3774 35.9643 57.0827 35.1921 58.4239 33.6478L58.5481 33.5277L59.9707 35.1535L59.7693 35.2736C57.9825 36.5734 56.033 37.1868 53.7963 37.1868C48.9973 37.1826 45.1367 33.3217 45.1367 28.5601C45.1367 23.7984 48.9973 19.9805 53.7877 19.9805C56.0201 19.9805 57.9697 20.6325 59.7607 21.8937L59.9621 22.0138L58.5396 23.6397L58.4153 23.4767C57.0742 21.9709 55.3688 21.1602 53.5821 21.1602C50.3342 21.1602 47.3648 24.5362 47.3648 28.5601H47.3734Z" fill="#1A1A4E" fill-opacity="0.5"/>
<path d="M61.6797 21.6089V20.3477H76.1837L76.1452 21.6089H70.0093V36.739H67.8969V21.6089H61.6797Z" fill="#1A1A4E" fill-opacity="0.5"/>
<path d="M87.6506 20.3477V21.6089H79.9723V27.4258H86.2281V28.7256H79.9723V36.739H77.8984V20.3477H87.6506Z" fill="#1A1A4E" fill-opacity="0.5"/>
<path d="M48.6423 49.6797H51.963V48.2469H49.1308V47.2345H51.963V45.8317H53.2313V47.2345H56.0636V48.2469H53.2313V49.6797H56.552V50.7221H48.6423V49.6797ZM49.4264 51.6358H55.7122V55.8742H49.4264V51.6358ZM54.5382 54.7974V52.7126H50.6005V54.7974H54.5382ZM80.2898 53.5276L80.0327 52.6611C81.3953 51.3398 82.8307 49.2893 83.512 47.5948H80.4826V46.4538H82.4708V44.0086H83.6448V46.4538H85.3373C85.0759 47.5305 84.2618 49.1263 83.8719 49.8427C84.2961 50.3661 84.6218 50.6578 85.046 51.0481V52.1549C84.4632 51.919 84.0733 51.6273 83.7091 51.3398V57.7617H82.4065V51.7002C81.6567 52.5152 81.044 53.0858 80.2898 53.5276ZM85.4316 44.4976H93.8641V45.5744H85.4316V44.4976ZM85.5301 50.9838H93.8641V57.47H85.5301V50.9838ZM93.2128 46.5825V49.9414H86.1471V46.5825H93.2128ZM89.078 53.6563V51.9919H86.7984V53.6563H89.078ZM89.078 56.4576V54.6988H86.7984V56.4576H89.078ZM91.9445 48.929V47.6249H87.4197V48.929H91.9445ZM92.5958 53.6563V51.9919H90.3163V53.6563H92.5958ZM92.5958 56.4576V54.6988H90.3163V56.4576H92.5958ZM45.2188 57.2683C46.8513 54.8575 46.8513 52.4509 46.8513 49.551V44.3046H58.3431V55.7798C58.3431 57.1825 57.8203 57.7016 56.2907 57.7016C55.378 57.7016 54.791 57.4743 54.3368 57.2126V56.5948C54.8595 56.6935 55.4123 56.7235 56.0293 56.7235C56.8434 56.7235 57.0705 56.4619 57.0705 55.6168V45.4457H48.0896V49.9457C48.0896 52.9442 47.9353 55.8784 45.5487 57.7703L45.2188 57.2726V57.2683ZM73.7769 54.9948C73.2113 54.4886 72.3801 53.7164 71.7502 52.807C70.7733 51.4042 70.2977 49.8642 70.1049 48.7316H76.1293V47.5262H69.9892V44H68.7166V47.5262H62.5765V48.7316H68.6009C68.4081 49.8985 67.941 51.5029 66.9555 52.9614C66.3214 53.8966 65.4944 54.6945 64.9288 55.2135C64.2433 55.8227 63.3606 56.4662 62.3665 57.0882L62.6236 57.7531C64.4404 57.0496 66.3557 55.7712 67.3155 54.6644C67.9196 53.9652 68.8151 52.7169 69.3507 51.1168C69.7964 52.2793 70.589 53.4719 71.6902 54.7202C72.6543 55.8184 74.154 56.8737 75.9579 57.7574L76.3392 56.8093C75.3452 56.2088 74.4582 55.5825 73.7769 54.9905V54.9948Z" fill="#1A1A4E" fill-opacity="0.5"/>
<path d="M108.914 54.8932C108.349 54.387 107.517 53.6148 106.888 52.7054C105.911 51.3026 105.435 49.7626 105.242 48.6301L105.127 47.4246V43.8984H103.854V47.4246L103.738 48.6301C103.545 49.7969 103.078 51.4013 102.093 52.8598C101.459 53.795 100.632 54.5929 100.066 55.112C99.3806 55.7211 98.498 56.3646 97.5039 56.9866L97.761 57.6515C99.5778 56.948 101.493 55.6696 102.453 54.5629C103.057 53.8636 103.953 52.6153 104.488 51.0152C104.934 52.1777 105.726 53.3703 106.828 54.6186C107.792 55.7168 109.291 56.7721 111.095 57.6558L111.477 56.7078C110.483 56.1072 109.596 55.4809 108.914 54.8889V54.8932Z" fill="#1A1A4E" fill-opacity="0.5"/>
<path d="M115.125 47.5391H128.429V48.53L127.864 49.9113L126.882 49.6582L127.191 48.53H115.125V47.5391Z" fill="#1A1A4E" fill-opacity="0.5"/>
<path d="M115.328 44.5748H120.941V43.957H122.689V44.5748H128.23V45.57H122.689V46.0891H127.098V47.0242H116.541V46.0891H120.941V45.57H115.328V44.5748Z" fill="#1A1A4E" fill-opacity="0.5"/>
<path d="M127.275 51.4827H115.758V50.4875H120.84V49.9899H116.559V49.0547H126.256V49.9899H122.575V50.4875H127.275V51.4827Z" fill="#1A1A4E" fill-opacity="0.5"/>
<path d="M115.348 53.003H125.417V53.6036H121.788V54.5988H125.417V55.5726C125.417 56.422 125.168 56.6794 124.281 56.6794C123.604 56.6794 123.005 56.6451 122.435 56.5507V57.1684C122.932 57.4301 123.57 57.6575 124.569 57.6575C126.24 57.6575 126.805 57.1341 126.805 55.7356V54.5988H127.367V53.6036H126.805V53.003H128.228V52.0078H115.348V53.003Z" fill="#1A1A4E" fill-opacity="0.5"/>
<path d="M115.762 56.9133H121.088V53.6016H115.762V56.9133ZM117.03 54.5968H119.819V55.9181H117.03V54.5968Z" fill="#1A1A4E" fill-opacity="0.5"/>
<path d="M124.624 55.5527L122.374 54.832L121.719 55.4798L123.685 56.4793L124.624 55.5527Z" fill="#1A1A4E" fill-opacity="0.5"/>
</svg>
