<svg width="164" height="79" viewBox="0 0 164 79" fill="none" xmlns="http://www.w3.org/2000/svg">
<path d="M38.1637 51.1711C36.1624 51.1711 34.4427 50.8778 33.0018 50.2914C31.5637 49.705 30.4592 48.787 29.6963 47.5346C28.9308 46.285 28.5508 44.6655 28.5508 42.6815V42.3773H35.5336V42.6486C35.5336 43.731 35.7359 44.4901 36.1405 44.9313C36.5452 45.3698 37.1412 45.5917 37.9286 45.5917C38.716 45.5917 39.312 45.3725 39.7167 44.9313C40.1213 44.4928 40.3236 43.731 40.3236 42.6486V27.5H47.7794V42.6815C47.7794 44.6655 47.3967 46.2823 46.6339 47.5346C45.8683 48.787 44.7665 49.705 43.3284 50.2914C41.8875 50.8778 40.1678 51.1711 38.1665 51.1711H38.1637Z" fill="#1A1A4E" fill-opacity="0.5"/>
<path d="M52.2969 50.7667L60.7643 27.5039H69.434L77.9013 50.7667H70.0081L69.0293 47.4865H60.901L59.9222 50.7667H52.2996H52.2969ZM62.4512 42.2798H67.5119L66.3991 38.5612C66.3089 38.2899 66.2078 37.9638 66.0957 37.5801C65.9836 37.1965 65.8715 36.7909 65.7594 36.3634C65.6473 35.9359 65.5352 35.5139 65.4231 35.0947C65.311 34.6781 65.2098 34.3109 65.1196 33.9958H64.8489C64.7587 34.4013 64.6411 34.8645 64.4935 35.3824C64.3459 35.9003 64.1955 36.4374 64.0369 36.9882C63.8784 37.5418 63.7225 38.0652 63.5639 38.5612L62.4512 42.2798Z" fill="#1A1A4E" fill-opacity="0.5"/>
<path d="M92.9807 51.1727C89.112 51.1727 86.2166 50.1588 84.2946 48.1309C82.3725 46.1031 81.4102 43.1052 81.4102 39.1371C81.4102 36.4763 81.905 34.2566 82.8947 32.4754C83.8845 30.6942 85.3226 29.3541 87.2118 28.4526C89.1011 27.551 91.384 27.1016 94.0606 27.1016C95.6792 27.1016 97.2021 27.2879 98.632 27.6606C100.059 28.0333 101.32 28.5841 102.41 29.3185C103.501 30.0502 104.349 30.9709 104.959 32.0753C105.566 33.1796 105.869 34.4649 105.869 35.9309H98.7523C98.7523 35.4349 98.6347 34.9855 98.3969 34.58C98.1617 34.1744 97.8391 33.8318 97.4345 33.5496C97.0298 33.2673 96.5623 33.0536 96.0346 32.9083C95.507 32.7631 94.9492 32.6891 94.3641 32.6891C93.4865 32.6891 92.71 32.807 92.0374 33.0454C91.3649 33.2838 90.8071 33.6373 90.3669 34.1114C89.9267 34.5854 89.5959 35.1472 89.3717 35.8021C89.1475 36.4571 89.0354 37.2107 89.0354 38.0684V40.2333C89.0354 41.3596 89.2323 42.3242 89.626 43.1243C90.0197 43.9245 90.6157 44.5383 91.4141 44.9658C92.2124 45.3933 93.1967 45.6071 94.3669 45.6071C95.1543 45.6071 95.8788 45.4893 96.5432 45.2536C97.2076 45.0179 97.7407 44.6726 98.1453 44.2232C98.55 43.7738 98.7523 43.2531 98.7523 42.6694V42.5352H93.4892V37.8026H105.869V50.7863H102.022L101.281 48.4872C100.584 49.0736 99.8186 49.5696 98.9874 49.9752C98.1563 50.3808 97.2431 50.6849 96.2561 50.8877C95.2664 51.0905 94.1755 51.1919 92.9834 51.1919L92.9807 51.1727Z" fill="#1A1A4E" fill-opacity="0.5"/>
<path d="M110.016 50.7667L118.483 27.5039H127.153L135.62 50.7667H127.727L126.748 47.4865H118.62L117.641 50.7667H110.018H110.016ZM120.167 42.2798H125.228L124.115 38.5612C124.025 38.2899 123.924 37.9638 123.812 37.5801C123.7 37.1965 123.587 36.7909 123.475 36.3634C123.363 35.9359 123.251 35.5139 123.139 35.0947C123.027 34.6781 122.926 34.3109 122.836 33.9958H122.565C122.475 34.4013 122.357 34.8645 122.21 35.3824C122.062 35.9003 121.912 36.4374 121.753 36.9882C121.594 37.5418 121.439 38.0652 121.28 38.5612L120.167 42.2798Z" fill="#1A1A4E" fill-opacity="0.5"/>
</svg>
