<svg width="164" height="79" viewBox="0 0 164 79" fill="none" xmlns="http://www.w3.org/2000/svg">
<path d="M70.4433 41.8772C71.4755 38.5087 72.4787 35.2195 73.4919 31.9325C73.8787 30.6769 74.3658 30.3048 75.7257 30.2167C76.2998 30.1797 76.8794 30.1884 77.4456 30.3015C78.2426 30.4604 78.7008 30.9609 78.8468 31.7334C79.3239 34.2609 79.8021 36.7874 80.2702 39.3171C80.6715 41.4899 81.0561 43.6649 81.4551 45.8377C81.5744 46.4884 81.5889 47.1173 81.0349 47.5993C80.5879 47.9877 80.0618 48.1052 79.4788 47.9105C78.849 47.6994 78.5291 47.2457 78.4154 46.6298C78.1145 45.0097 77.8157 43.3885 77.5181 41.7674C77.0867 39.4161 76.6576 37.0648 76.2295 34.7135C76.1905 34.5003 76.1638 34.2859 76.1248 34.0248C75.3111 36.7101 74.5152 39.3519 73.7104 41.9926C73.2289 43.5713 72.7696 45.1566 72.2346 46.718C71.7921 48.0095 70.3118 48.4121 69.2584 47.5906C68.8716 47.2892 68.7223 46.8605 68.5885 46.4264C67.738 43.6703 66.8898 40.9143 66.0471 38.1572C65.6391 36.8244 65.2434 35.4893 64.8165 34.0705C64.501 35.7798 64.2001 37.4097 63.9002 39.0407C63.4354 41.5693 62.9795 44.1001 62.5035 46.6266C62.3274 47.5623 61.5839 48.1172 60.739 47.991C59.8428 47.8571 59.3011 47.1978 59.4449 46.2131C59.7013 44.4581 60.0312 42.7129 60.35 40.9676C60.894 37.994 61.4524 35.0226 62.0075 32.05C62.2438 30.7857 62.6707 30.3929 63.9782 30.2406C64.6281 30.1644 65.2802 30.1829 65.9189 30.307C66.6612 30.4517 67.1149 30.9282 67.33 31.6268C68.1895 34.4165 69.05 37.2073 69.9049 39.9982C70.0877 40.601 70.2516 41.2081 70.4433 41.8772Z" fill="#1A1A4E" fill-opacity="0.5"/>
<path d="M100.355 39.0922C100.4 41.0823 100.052 42.9037 99.063 44.5586C97.4635 47.2352 94.9321 48.3232 91.8768 48.3145C87.0034 48.3015 84.1131 45.3496 83.5235 40.8712C83.2693 38.9443 83.4009 37.0434 84.054 35.1927C85.1475 32.095 87.7235 30.1735 91.0842 29.9744C93.0316 29.8591 94.9053 30.1202 96.584 31.168C98.7899 32.5455 99.8176 34.6291 100.23 37.0696C100.349 37.7692 100.369 38.4742 100.355 39.0922ZM97.2227 39.1368C97.2227 38.7745 97.2495 38.41 97.2171 38.0499C97.1525 37.3263 96.9953 36.6191 96.7133 35.9423C95.7068 33.528 93.5098 32.7228 90.9182 33.0536C88.7735 33.3267 87.4504 34.5758 86.8664 36.5821C86.4751 37.9258 86.4506 39.2935 86.6323 40.6743C87.0269 43.6773 89.0946 45.3985 92.1878 45.2789C94.7259 45.1809 96.3934 43.8513 96.9987 41.4511C97.1904 40.6906 97.2762 39.9202 97.2227 39.1368Z" fill="#1A1A4E" fill-opacity="0.5"/>
<path d="M120.3 38.9857C120.313 41.0139 119.98 42.7743 119.071 44.4086C118.133 46.0929 116.736 47.2484 114.874 47.8511C112.913 48.4855 110.929 48.4964 108.961 47.9099C106.713 47.2397 105.107 45.81 104.235 43.6959C102.99 40.6809 102.959 37.6072 104.231 34.5966C105.473 31.6578 107.877 30.2226 111.062 29.98C112.97 29.8353 114.811 30.129 116.461 31.1355C118.741 32.526 119.773 34.6684 120.173 37.1709C120.279 37.8346 120.314 38.5037 120.3 38.9857ZM117.178 39.0924C117.206 38.5505 117.168 37.9739 117.058 37.4026C116.67 35.3843 115.728 33.8056 113.554 33.2017C112.757 32.9797 111.943 32.9416 111.129 33.0167C109.223 33.1941 107.815 34.0852 107.057 35.8478C106.452 37.2536 106.336 38.7355 106.503 40.2207C106.815 42.9919 108.11 44.9809 111.19 45.2518C113.571 45.4607 115.67 44.6675 116.641 42.3195C117.063 41.2989 117.222 40.2305 117.178 39.0924Z" fill="#1A1A4E" fill-opacity="0.5"/>
<path d="M129.346 44.0488C130.363 41.4451 131.343 38.9306 132.326 36.4172C133.007 34.6753 133.683 32.93 134.381 31.1946C134.678 30.458 135.317 30.0968 136.038 30.1849C136.748 30.273 137.268 30.7877 137.39 31.5058C137.445 31.8257 137.35 32.1162 137.237 32.4045C135.372 37.1941 133.509 41.9837 131.636 46.7689C131.357 47.4805 130.786 47.8417 130.014 47.9027C129.811 47.919 129.606 47.9179 129.402 47.919C127.807 47.9222 127.411 47.6665 126.84 46.2031C125.055 41.6377 123.297 37.0614 121.484 32.5057C120.975 31.2294 121.728 30.2665 122.72 30.1795C123.424 30.1175 124.045 30.5048 124.319 31.2011C125.537 34.2934 126.747 37.3878 127.959 40.4822C128.412 41.6442 128.864 42.8073 129.346 44.0488Z" fill="#1A1A4E" fill-opacity="0.5"/>
<path d="M49.7002 43.0993C49.6857 39.6557 49.4595 37.0825 48.2534 34.6996C46.8679 31.9599 44.5505 30.5389 41.4628 30.2963C39.8956 30.1734 38.3485 30.3018 36.8704 30.886C34.2253 31.9306 32.793 33.9739 32.0239 36.5417C31.2313 39.1889 31.2113 41.8981 31.4063 44.6204C31.4832 45.6867 31.6683 46.7399 31.8109 47.7986C32.0305 49.4361 30.9304 50.4295 29.2506 50.1423C27.3969 49.8256 25.8754 48.3187 25.4618 46.321C24.9011 43.6173 25.5454 41.2595 27.6744 39.3652C27.9163 39.1497 28.059 38.9147 28.1548 38.6035C28.9351 36.0477 29.9996 33.6301 31.9135 31.6662C34.6054 28.9025 37.9483 27.796 41.7928 28.179C46.6539 28.6642 49.7638 31.4398 51.7334 35.6277C52.1893 36.5961 52.5772 37.5938 52.8525 38.6275C52.9305 38.9223 53.0788 39.1378 53.3073 39.3401C55.7049 41.4695 56.4473 44.7477 55.1108 47.5125C54.3473 49.0934 53.1067 50.1194 51.2329 50.164C49.8485 50.1967 49.0136 49.3295 49.1819 47.9934C49.4216 46.0871 49.727 44.1907 49.7002 43.0993Z" fill="#1A1A4E" fill-opacity="0.5"/>
<path d="M40.5407 40.832C41.1527 40.8396 41.7713 40.8342 42.3487 41.067C43.2616 41.4348 43.4656 42.2737 42.7979 42.9864C42.3989 43.4129 41.9653 43.8155 41.5027 44.1756C41.2084 44.4041 41.1226 44.6206 41.2497 44.9536C41.3466 45.206 41.3868 45.4802 41.4994 45.725C41.8627 46.5149 42.4111 46.7924 43.2873 46.6596C43.8379 46.5758 44.1768 46.7499 44.208 47.1623C44.2437 47.6454 43.9204 47.838 43.4935 47.8924C42.3955 48.0327 41.4169 47.8195 40.7258 46.8979C40.5296 46.6368 40.4449 46.6661 40.2621 46.9077C39.5498 47.8489 38.5499 48.0447 37.4342 47.8782C37.0206 47.8162 36.7342 47.6019 36.8033 47.1449C36.8724 46.6846 37.2012 46.5856 37.6237 46.6368C38.9033 46.7934 39.8842 45.8817 39.8229 44.6141C39.8129 44.4095 39.6691 44.3355 39.5498 44.2354C39.0705 43.835 38.5789 43.4477 38.1776 42.9679C37.5311 42.1954 37.763 41.3782 38.7272 41.0398C39.3135 40.8342 39.9288 40.8353 40.5407 40.832Z" fill="#1A1A4E" fill-opacity="0.5"/>
</svg>
