<svg width="164" height="79" viewBox="0 0 164 79" fill="none" xmlns="http://www.w3.org/2000/svg">
<g clip-path="url(#clip0_4026_14228)">
<g clip-path="url(#clip1_4026_14228)">
<path d="M67.8287 40.287V40.1796C69.5816 39.9912 70.5107 38.9929 70.5107 37.3698C70.5107 35.2393 68.9167 34.1055 65.9186 34.1055H58.5927V46.2206C58.5927 46.814 58.3803 47.3264 58.0625 47.4338V47.5991H66.2364C69.1032 47.5991 71.0149 46.0074 71.0149 43.5794C71.0182 41.7398 69.8994 40.5796 67.8287 40.287ZM61.539 35.8905H65.6786C67.0066 35.8905 67.4834 36.2938 67.4834 37.2392V37.859C67.4834 38.9929 66.9791 39.4507 65.6786 39.4507H61.539V35.8905ZM67.9374 43.7579C67.9374 45.2686 67.4055 45.8091 65.9462 45.8091H61.3006V45.7016C61.5114 45.4306 61.539 44.9992 61.539 44.4868V41.1994H65.9446C67.3244 41.1994 67.9357 41.7944 67.9357 43.1431L67.9374 43.7579Z" fill="#1A1A4E" fill-opacity="0.5"/>
<path d="M11.0836 29.3281C5.03221 29.3281 0.625 33.3742 0.625 38.9327C0.625 43.9787 4.39496 47.648 9.54319 47.6215C10.1269 47.6215 10.3134 47.6215 10.8712 47.5934V45.41H10.709C10.6296 45.6795 10.0994 45.815 9.43617 45.815C6.35534 45.815 4.20687 42.9821 4.20687 38.9343C4.20687 34.2139 6.91476 31.1661 11.082 31.1661C15.1681 31.1661 17.6912 34.1874 17.6912 39.0996C17.6912 44.4151 14.346 48.2463 10.0702 48.3008L10.0961 49.514C16.8642 49.514 21.2439 45.4134 21.2439 39.1012C21.2487 33.2668 17.1609 29.3281 11.0836 29.3281Z" fill="#1A1A4E" fill-opacity="0.5"/>
<path d="M34.0667 43.5177H33.9613C33.8819 43.1673 33.637 42.6549 33.0322 41.9806L25.9982 34.1016H23.1055V34.2668C23.3973 34.3743 23.6098 34.8602 23.6098 35.4536V47.5952H26.1571V39.6055C26.1571 38.3923 26.0517 38.1493 25.8652 37.9328L25.9723 37.8518L34.1202 46.9423V47.5902H36.6157V34.1016H34.0667V43.5177Z" fill="#1A1A4E" fill-opacity="0.5"/>
<path d="M39.7233 46.2167C39.7233 46.7291 39.4833 47.296 39.1914 47.4299V47.5952H50.3116V45.7391H42.4279V45.6316C42.5609 45.4663 42.6679 45.0647 42.6679 44.6052V41.2764H49.2236V39.417H42.6679V35.9643H50.3116V34.1016H39.7233V46.2167Z" fill="#1A1A4E" fill-opacity="0.5"/>
<path d="M80.0623 34.1016H76.9312V34.2668C77.3561 34.4024 77.3561 34.7528 76.9312 35.6965L71.6484 47.5968H74.405L76.4529 42.9293H81.1244L83.1675 47.5968H86.0862L80.0623 34.1016ZM77.1161 41.3062L77.1696 41.0368L78.1782 38.6617C78.603 37.67 78.71 37.3394 78.6289 37.07H78.736L80.3818 41.0368L80.4337 41.3062H77.1161Z" fill="#1A1A4E" fill-opacity="0.5"/>
<path d="M157.143 41.1112C156.772 40.7608 156.454 40.5723 156.083 40.5723V40.4649L163.12 34.1016H160.015L153.141 40.3079H153.009V34.1016H150.09V47.5919H153.009V40.8748C153.354 40.8748 153.592 41.0087 154.144 41.5492L160.54 47.5919H163.991L157.143 41.1112Z" fill="#1A1A4E" fill-opacity="0.5"/>
<path d="M125.639 40.5773V40.4699L132.671 34.1016H129.566L122.692 40.3079H122.559V34.1016H119.641V47.5919H122.559V40.8748C122.905 40.8748 123.143 41.0087 123.694 41.5492L130.091 47.5919H133.542L126.699 41.1112C126.328 40.7657 126.01 40.5773 125.639 40.5773Z" fill="#1A1A4E" fill-opacity="0.5"/>
<path d="M140.417 33.6758H140.391C135.986 33.6758 133.012 36.5352 133.012 40.8259C133.012 45.1166 135.986 47.976 140.391 47.976H140.417C144.823 47.976 147.796 45.1149 147.796 40.8259C147.796 36.5368 144.826 33.6758 140.417 33.6758ZM144.61 41.1498C144.61 44.4406 143.071 46.3843 140.417 46.3843H140.391C137.737 46.3843 136.196 44.4406 136.196 41.1498V40.5019C136.196 37.2112 137.737 35.2674 140.391 35.2674H140.417C143.071 35.2674 144.61 37.2112 144.61 40.5019V41.1498Z" fill="#1A1A4E" fill-opacity="0.5"/>
<path d="M98.5134 43.5177H98.4064C98.3269 43.1673 98.0821 42.6549 97.4772 41.9806L90.4448 34.1016H87.5586V34.2668C87.8505 34.3743 88.0629 34.8602 88.0629 35.4536V47.5952H90.6119V39.6055C90.6119 38.3923 90.5048 38.1493 90.32 37.9328L90.4254 37.8518L98.5734 46.9423V47.5902H101.069V34.1016H98.5134V43.5177Z" fill="#1A1A4E" fill-opacity="0.5"/>
<path d="M113.663 40.6343C114.088 40.7417 114.274 41.0921 114.274 41.7912V44.4622C114.274 45.082 114.436 45.4539 114.779 45.6754L114.725 45.7844C114.403 45.796 114.083 45.8409 113.77 45.9183C112.967 46.0948 112.149 46.1944 111.328 46.2158C108.085 46.2158 106.206 44.3812 106.206 41.2243V40.8937C106.206 37.5484 108.152 35.5237 111.328 35.5237C113.133 35.5237 114.699 36.1716 116.291 37.5484V34.8064C114.735 34.0787 113.04 33.7101 111.328 33.7271C106.045 33.7271 103.02 36.3716 103.02 41.0392C103.02 45.4092 106.1 47.9728 111.328 47.9728C112.735 47.9583 114.134 47.7679 115.495 47.4059C116.238 47.2174 116.504 47.2406 116.742 47.5943H116.904V40.4723H113.663V40.6343Z" fill="#1A1A4E" fill-opacity="0.5"/>
</g>
</g>
<defs>
<clipPath id="clip0_4026_14228">
<rect width="163.433" height="21.3629" fill="white" transform="translate(0 28.5508)"/>
</clipPath>
<clipPath id="clip1_4026_14228">
<rect width="163.252" height="21.3233" fill="white" transform="translate(0.625 29.3281)"/>
</clipPath>
</defs>
</svg>
