<svg width="164" height="79" viewBox="0 0 164 79" fill="none" xmlns="http://www.w3.org/2000/svg">
<path d="M110.229 35.877C112.167 35.8382 113.352 36.4873 114.603 37.96C114.59 37.3643 114.598 36.7514 114.6 36.1543L116.697 36.1572L116.692 48.4424L114.597 48.4512C114.592 47.8118 114.595 47.1725 114.603 46.5332C114.23 46.9678 113.932 47.3096 113.487 47.666C112.657 48.2919 111.667 48.6529 110.64 48.7051C109.081 48.7819 107.555 48.2244 106.392 47.1523C103.412 44.3981 103.805 38.9723 107.193 36.8086C108.229 36.1466 109.029 35.9389 110.229 35.877ZM86.6096 30.7539C87.2418 32.2415 88.0428 33.8875 88.7219 35.3682L93.2717 45.2617L97.5998 35.8643C98.3544 34.2234 99.2326 32.4138 99.9241 30.7578H102.54L102.547 48.4473L100.377 48.4521C100.341 47.3201 100.372 45.9947 100.371 44.8496V37.9033C100.369 36.8896 100.343 35.7355 100.388 34.7334C99.9225 35.5489 99.1966 37.2445 98.7786 38.1455C97.7342 40.4188 96.6776 42.6858 95.6077 44.9463C95.1152 46.0016 94.4951 47.4586 93.9622 48.4521L92.4807 48.4443C92.0242 47.3371 91.3729 46.0285 90.8596 44.9307L87.7366 38.2402C87.1996 37.0848 86.5768 35.8088 86.0842 34.6455L86.0793 48.457C85.3647 48.4434 84.6495 48.4435 83.9348 48.4561C83.8687 46.3493 83.9241 43.984 83.9241 41.8477L83.9309 30.7549L86.6096 30.7539ZM125.83 30.7578C125.876 32.8459 125.834 35.0785 125.834 37.1826L125.829 48.4492L123.711 48.4521C123.645 46.4686 123.706 44.1536 123.705 42.1299L123.711 30.7588L125.83 30.7578ZM121.273 30.7588C121.259 32.4181 121.34 48.2337 121.22 48.4453L119.123 48.4482C119.068 46.5822 119.119 44.4005 119.119 42.5137V30.7578L121.273 30.7588ZM110.334 37.9678C108.014 38.1328 106.265 40.2076 106.429 42.5986C106.594 44.9895 108.609 46.7883 110.929 46.6143C113.242 46.4406 114.982 44.3698 114.819 41.9854C114.655 39.6007 112.648 37.8033 110.334 37.9678Z" fill="#1A1A4E" fill-opacity="0.5"/>
<path d="M122.011 23.2599C125.497 23.2599 129.147 23.2006 132.622 23.2628V55.9386L101.516 55.9415L91.752 55.9435C89.9022 55.9445 87.2525 56.0251 85.4951 55.7911C83.4766 55.5171 81.5301 54.8359 79.7666 53.7862C76.6617 51.9408 73.5932 48.4603 72.6543 44.8624C72.4241 45.3027 72.2025 46.0336 71.9678 46.5558C71.211 48.2598 70.1633 49.8096 68.874 51.131C66.7728 53.285 64.1399 54.8059 61.2607 55.5294C59.1627 56.0354 57.0161 55.9449 54.877 55.9435L49.5898 55.9415L31.543 55.9454V23.2638L50.5908 23.2599L55.7646 23.2579C57.3456 23.2574 59.201 23.1861 60.7305 23.5284C63.8338 24.2231 66.5713 25.6757 68.8271 27.9943C70.8691 30.0929 71.5767 31.7509 72.6572 34.3585C72.733 33.8917 72.9658 33.3402 73.1494 32.9015C74.1882 30.4193 76.0678 28.0303 78.1729 26.4357C80.1084 24.9695 82.6948 23.796 85.0752 23.4298C86.8347 23.1592 89.4308 23.2576 91.291 23.2589L101.153 23.2599H122.011ZM87.8262 25.4034C87.0708 25.435 86.2396 25.4747 85.4961 25.6007C82.4395 26.1289 79.6383 27.6874 77.5332 30.0323C75.1642 32.6829 73.7734 36.4615 73.9199 40.0675C74.0669 43.8631 75.6744 47.4422 78.3867 50.0138C80.1416 51.6713 82.2699 52.8119 84.5908 53.3683C86.6329 53.8576 88.5717 53.7372 90.6621 53.7374L96.499 53.7364L117.102 53.7355C121.71 53.7346 126.392 53.6878 130.995 53.7374L130.993 25.3985L87.8262 25.4034ZM57.5752 30.3829C55.9586 30.4843 54.5365 30.9275 53.4385 32.212C52.0061 33.8883 51.8299 36.7486 53.2676 38.4689C53.9892 39.332 54.9443 39.8867 55.9541 40.3048C57.4526 41.0217 60.4012 41.3414 60.5859 43.4152C60.7146 44.8635 59.473 45.7783 58.166 45.839C56.2933 45.9254 55.1118 44.9518 54.2139 43.378C53.3595 43.8533 52.4102 44.3446 51.5771 44.8302C52.8984 47.2432 54.5468 48.543 57.2939 48.7579C59.135 48.8229 60.8487 48.449 62.2383 47.1085C63.2146 46.1684 63.784 44.8631 63.8184 43.4864C63.9431 39.166 59.5903 38.5676 56.7002 37.1564C54.3718 36.0187 55.5139 33.1119 57.875 33.2511C59.1707 33.2951 60.2761 34.1525 60.8291 35.3302C61.4392 34.9483 62.793 34.1 63.3926 33.8194C62.0706 31.6591 60.1491 30.2582 57.5752 30.3829ZM41.7725 30.7335C40.5635 30.739 39.3535 30.7382 38.1445 30.7306L38.1377 41.6583C38.1379 43.8845 38.0996 46.2409 38.1514 48.4571L41.1846 48.4474C41.1905 46.254 41.1444 43.8573 41.1953 41.6788L42.7939 41.6837C43.1142 42.0319 44.3967 44.0886 44.7314 44.6017L46.3867 47.1349C46.6258 47.5007 47.042 48.0968 47.2383 48.4571L47.9141 48.4542C48.8555 48.4538 49.8827 48.4324 50.8174 48.462C49.7642 46.7493 48.4149 44.9979 47.3057 43.3019C46.9196 42.7117 46.3619 41.9936 46.0225 41.4054C47.6005 40.7351 48.8151 40.1016 49.5293 38.3263C50.0779 36.9315 50.067 35.3685 49.5 33.9816C48.9833 32.701 47.9955 31.8047 46.7734 31.2853C45.2147 30.6231 43.4302 30.7328 41.7725 30.7335ZM42.582 33.4728C44.9651 33.2931 47.2385 34.1085 46.7393 37.0519C46.6442 37.6115 46.3349 38.0269 45.9375 38.4318C44.7932 39.4555 42.6977 39.1922 41.1934 39.1866C41.1533 37.3373 41.1907 35.3359 41.1943 33.4757C41.5834 33.4746 42.2125 33.5006 42.582 33.4728Z" fill="#1A1A4E" fill-opacity="0.5"/>
</svg>
