<svg width="164" height="79" viewBox="0 0 164 79" fill="none" xmlns="http://www.w3.org/2000/svg">
<path d="M42.6279 19.2891C53.7115 19.2892 62.6961 28.1783 62.6963 39.1436C62.6963 50.1089 53.7116 58.9989 42.6279 58.999C31.5441 58.999 22.5586 50.109 22.5586 39.1436C22.5587 28.1782 31.5442 19.2891 42.6279 19.2891ZM42.5596 27.2344C42.5371 27.2325 42.5147 27.2305 42.4922 27.2305C42.2247 27.2305 41.9575 27.3631 41.7568 27.5615C41.5562 27.76 41.422 28.0244 41.4219 28.2891V39.2168L36.0039 42.1875C35.8701 42.2537 35.6694 42.4526 35.6025 42.585C35.5357 42.7173 35.4688 42.9158 35.4688 43.1143V45.3643C35.4688 45.629 35.603 45.8942 35.8037 46.0928C36.0044 46.2911 36.2717 46.4238 36.5391 46.4238C36.8066 46.4238 37.0747 46.2913 37.2754 46.0928C37.476 45.8942 37.6094 45.629 37.6094 45.3643V43.7764L41.4219 41.6943V51.3213C41.422 51.5859 41.5558 51.8504 41.8232 52.0488C41.9989 52.2226 42.2257 52.346 42.459 52.374L42.5596 52.3799C42.5931 52.3799 42.6267 52.3781 42.6602 52.374C42.8933 52.346 43.1203 52.2225 43.2959 52.0488C43.5632 51.8504 43.6971 51.5858 43.6973 51.3213V41.6943L47.5098 43.7764V45.3643C47.5098 45.629 47.6431 45.8942 47.8438 46.0928C48.0444 46.2913 48.3125 46.4238 48.5801 46.4238C48.8475 46.4237 49.1148 46.2911 49.3154 46.0928C49.5161 45.8942 49.6504 45.629 49.6504 45.3643V43.1143C49.6504 42.9158 49.5835 42.7173 49.5166 42.585C49.4497 42.4526 49.249 42.2537 49.1152 42.1875L43.6973 39.2168V28.2891C43.6972 28.0244 43.563 27.76 43.3623 27.5615C43.1617 27.3631 42.8944 27.2305 42.627 27.2305C42.6045 27.2305 42.582 27.2326 42.5596 27.2344ZM38.6152 27.2969C38.3476 27.2969 38.0796 27.4294 37.8789 27.6279C37.6784 27.8264 37.545 28.0909 37.5449 28.3555V35.6357L32.5947 38.3496C32.4609 38.4158 32.3267 38.4819 32.2598 38.6143C32.193 38.7464 32.1264 38.8786 32.0596 39.0107C31.9927 39.1431 31.9922 39.2759 31.9922 39.4082C31.9922 39.5406 32.0591 39.6733 32.126 39.8057C32.1928 39.938 32.2598 40.0706 32.3936 40.1367C32.5273 40.2029 32.6612 40.2688 32.7949 40.335H33.1963C33.3301 40.335 33.4639 40.2683 33.5977 40.2021L39.083 37.1582C39.2837 37.092 39.418 36.9595 39.5518 36.8271C39.6186 36.6948 39.6855 36.4963 39.6855 36.2979V28.3555C39.6854 28.0908 39.5512 27.8264 39.3506 27.6279C39.15 27.4295 38.8827 27.297 38.6152 27.2969ZM46.5078 27.2969C46.2403 27.2969 45.9731 27.4295 45.7725 27.6279C45.5719 27.8264 45.4376 28.0908 45.4375 28.3555V36.2979C45.4375 36.4963 45.5044 36.6948 45.5713 36.8271C45.705 36.9594 45.8386 37.092 46.0391 37.1582L51.5254 40.2021C51.6591 40.2683 51.793 40.335 51.9268 40.335H52.3281C52.4619 40.2688 52.5958 40.2029 52.7295 40.1367C52.8632 40.0705 52.9302 39.938 52.9971 39.8057C53.064 39.6733 53.1309 39.5406 53.1309 39.4082C53.1309 39.2759 53.1304 39.1431 53.0635 39.0107C52.9967 38.8786 52.9301 38.7464 52.8633 38.6143C52.7964 38.4819 52.6621 38.4158 52.5283 38.3496L47.5781 35.6357V28.3555C47.578 28.091 47.4446 27.8264 47.2441 27.6279C47.0435 27.4294 46.7754 27.2969 46.5078 27.2969Z" fill="#1A1A4E" fill-opacity="0.5"/>
<path d="M84.499 43.9771V46.2935C83.4956 45.4331 82.2245 44.9037 80.8866 44.8375C80.2176 44.8375 79.6155 44.9699 79.0135 45.1684C78.4114 45.4331 77.8762 45.764 77.4748 46.2273C77.0066 46.6906 76.6721 47.2201 76.4045 47.8819C76.1369 48.4775 76.07 49.1394 76.07 49.8012C76.07 50.463 76.2038 51.0586 76.4045 51.6543C76.6721 52.2499 77.0066 52.7794 77.4748 53.2427C77.9431 53.706 78.4783 54.103 79.0135 54.3016C79.6155 54.5663 80.2176 54.6987 80.8866 54.6987C81.4887 54.6987 82.0907 54.6325 82.6928 54.3678C82.9604 54.2354 83.2949 54.103 83.5625 53.9045C83.8969 53.706 84.2314 53.4412 84.499 53.1765V55.5591C83.4287 56.1547 82.1576 56.4856 80.8866 56.4856C80.0169 56.4856 79.0804 56.3533 78.2776 56.0223C77.4748 55.6914 76.6721 55.162 76.07 54.5663C75.401 53.9707 74.9328 53.1765 74.5983 52.3823C74.2638 51.5881 74.0631 50.6616 74.13 49.8012C74.13 48.1466 74.7321 46.5582 75.8024 45.3669C76.4714 44.5728 77.2742 43.9771 78.2107 43.58C79.1473 43.1829 80.1507 42.9844 81.1542 42.9844C82.2914 43.0506 83.4287 43.3815 84.499 43.9771Z" fill="#1A1A4E" fill-opacity="0.5"/>
<path d="M95.0676 53.1747H89.4483L87.9766 56.3515H85.8359L92.3918 42.4531L98.6801 56.3515H96.4725L95.0676 53.1747ZM94.2649 51.3216L92.3249 46.8874L90.2511 51.3216H94.2649Z" fill="#1A1A4E" fill-opacity="0.5"/>
<path d="M102.362 51.0595V56.3542H100.355V43.25H102.63C103.5 43.25 104.302 43.3162 105.172 43.4485C105.774 43.5809 106.242 43.9118 106.711 44.3089C107.112 44.6398 107.38 45.1031 107.58 45.5664C107.781 46.0297 107.848 46.5591 107.848 47.0886C107.848 47.6181 107.781 48.1475 107.58 48.677C107.38 49.1403 107.045 49.6035 106.644 50.0006C105.707 50.7286 104.57 51.1257 103.366 51.0595H102.362ZM102.362 49.2726H103.098C104.904 49.2726 105.841 48.5446 105.841 47.1548C105.841 45.7649 104.904 45.1031 103.031 45.1031H102.362V49.2726Z" fill="#1A1A4E" fill-opacity="0.5"/>
<path d="M111.792 43.25V56.3542H109.785V43.25H111.792Z" fill="#1A1A4E" fill-opacity="0.5"/>
<path d="M118.615 45.1031V56.3542H116.608V45.1031H113.598V43.25H121.625V45.1031H118.615Z" fill="#1A1A4E" fill-opacity="0.5"/>
<path d="M130.521 53.1747H124.835L123.363 56.3515H121.223L127.779 42.4531L134.067 56.3515H131.859L130.521 53.1747ZM129.719 51.3216L127.779 46.8874L125.705 51.3216H129.719Z" fill="#1A1A4E" fill-opacity="0.5"/>
<path d="M137.746 43.25V54.501H141.626V56.3542H135.672V43.25H137.746Z" fill="#1A1A4E" fill-opacity="0.5"/>
<path d="M126.777 36.4354L129.587 21.9414L134.203 32.3983L139.086 21.9414L141.628 36.4354H139.555L138.217 28.2949L134.203 37.031L130.323 28.2949L128.851 36.4354H126.777Z" fill="#1A1A4E" fill-opacity="0.5"/>
<path d="M123.829 25.1146H118.277V28.3576H123.629V30.2768H118.277V34.7111H123.829V36.6304H116.203V23.1953H123.829V25.1146Z" fill="#1A1A4E" fill-opacity="0.5"/>
<path d="M108.917 30.8725L113.199 36.5642H110.656L106.71 31.071H106.308V36.5642H104.234V23.1953H106.643C108.449 23.1953 109.787 23.5262 110.59 24.1881C111.058 24.519 111.392 24.9822 111.593 25.5117C111.794 26.0412 111.928 26.5706 111.928 27.1663C111.928 28.0266 111.66 28.887 111.125 29.615C110.59 30.2769 109.854 30.7401 108.917 30.8725ZM106.375 29.3503H107.044C108.984 29.3503 109.987 28.6223 109.987 27.1001C109.987 25.7764 109.051 25.1146 107.111 25.1146H106.375V29.3503Z" fill="#1A1A4E" fill-opacity="0.5"/>
<path d="M94.5352 28.5561L99.8201 23.1953H102.563L96.3414 29.2841L102.563 36.6304H99.7532L94.8697 30.6739L94.4683 31.071V36.6304H92.3945V23.1953H94.4683V28.5561H94.5352Z" fill="#1A1A4E" fill-opacity="0.5"/>
<path d="M86.3741 23.1953V34.7111H90.3211V36.6304H84.3672V23.1953H86.3741Z" fill="#1A1A4E" fill-opacity="0.5"/>
<path d="M82.2278 34.7111H76.7423V31.4681H82.094V29.5488H76.7423V25.1146H82.2947V23.1953H74.6016V36.6304H82.2278V34.7111Z" fill="#1A1A4E" fill-opacity="0.5"/>
</svg>
