<svg width="164" height="79" viewBox="0 0 164 79" fill="none" xmlns="http://www.w3.org/2000/svg">
<path d="M124.567 43.9022C122.799 43.9022 121.159 43.6291 119.646 43.0831C118.155 42.5161 116.856 41.718 115.748 40.689C114.662 39.6599 113.81 38.4523 113.192 37.0662C112.574 35.6592 112.266 34.1156 112.266 32.4355C112.266 30.7554 112.574 29.2223 113.192 27.8362C113.81 26.4291 114.662 25.211 115.748 24.1819C116.856 23.1529 118.155 22.3653 119.646 21.8193C121.159 21.2523 122.799 20.9688 124.567 20.9688C126.633 20.9688 128.475 21.3258 130.094 22.0398C131.734 22.7539 133.097 23.7829 134.184 25.127L130.158 28.7182C129.434 27.8782 128.635 27.2376 127.762 26.7966C126.91 26.3556 125.951 26.1351 124.886 26.1351C123.97 26.1351 123.129 26.2821 122.362 26.5761C121.595 26.8701 120.935 27.3006 120.381 27.8677C119.849 28.4137 119.423 29.0752 119.103 29.8523C118.805 30.6293 118.656 31.4904 118.656 32.4355C118.656 33.3805 118.805 34.2416 119.103 35.0186C119.423 35.7957 119.849 36.4677 120.381 37.0347C120.935 37.5808 121.595 38.0008 122.362 38.2948C123.129 38.5888 123.97 38.7358 124.886 38.7358C125.951 38.7358 126.91 38.5153 127.762 38.0743C128.635 37.6333 129.434 36.9927 130.158 36.1527L134.184 39.7439C133.097 41.067 131.734 42.096 130.094 42.8311C128.475 43.5451 126.633 43.9022 124.567 43.9022Z" fill="#1A1A4E" fill-opacity="0.5"/>
<path d="M102.403 43.9022C100.635 43.9022 98.9945 43.6291 97.4822 43.0831C95.9911 42.5161 94.6918 41.718 93.5842 40.689C92.4979 39.6599 91.6458 38.4523 91.0281 37.0662C90.4104 35.6592 90.1016 34.1156 90.1016 32.4355C90.1016 30.7554 90.4104 29.2223 91.0281 27.8362C91.6458 26.4291 92.4979 25.211 93.5842 24.1819C94.6918 23.1529 95.9911 22.3653 97.4822 21.8193C98.9945 21.2523 100.635 20.9688 102.403 20.9688C104.469 20.9688 106.311 21.3258 107.93 22.0398C109.57 22.7539 110.933 23.7829 112.02 25.127L107.994 28.7182C107.27 27.8782 106.471 27.2376 105.598 26.7966C104.746 26.3556 103.787 26.1351 102.722 26.1351C101.806 26.1351 100.965 26.2821 100.198 26.5761C99.4312 26.8701 98.7709 27.3006 98.217 27.8677C97.6845 28.4137 97.2585 29.0752 96.939 29.8523C96.6408 30.6293 96.4917 31.4904 96.4917 32.4355C96.4917 33.3805 96.6408 34.2416 96.939 35.0186C97.2585 35.7957 97.6845 36.4677 98.217 37.0347C98.7709 37.5808 99.4312 38.0008 100.198 38.2948C100.965 38.5888 101.806 38.7358 102.722 38.7358C103.787 38.7358 104.746 38.5153 105.598 38.0743C106.471 37.6333 107.27 36.9927 107.994 36.1527L112.02 39.7439C110.933 41.067 109.57 42.096 107.93 42.8311C106.311 43.5451 104.469 43.9022 102.403 43.9022Z" fill="#1A1A4E" fill-opacity="0.5"/>
<path d="M67.6562 43.4615V21.4102H79.0946C82.0341 21.4102 84.228 21.9457 85.6765 23.0168C87.1249 24.0668 87.8491 25.4529 87.8491 27.175C87.8491 28.3091 87.5402 29.3066 86.9225 30.1677C86.3261 31.0077 85.4741 31.6798 84.3665 32.1838C83.2801 32.6668 81.9808 32.9084 80.4685 32.9084L81.1075 31.3963C82.6837 31.3963 84.0576 31.6378 85.2291 32.1208C86.4007 32.5828 87.3059 33.2654 87.945 34.1684C88.6053 35.0505 88.9354 36.1321 88.9354 37.4131C88.9354 39.3243 88.1473 40.8153 86.5711 41.8864C85.0161 42.9365 82.737 43.4615 79.7336 43.4615H67.6562ZM73.9186 38.9567H79.2224C80.3087 38.9567 81.1288 38.7782 81.6826 38.4212C82.2577 38.0432 82.5453 37.4761 82.5453 36.7201C82.5453 35.9641 82.2577 35.4075 81.6826 35.0505C81.1288 34.6725 80.3087 34.4835 79.2224 34.4835H73.4713V30.1677H78.2639C79.3289 30.1677 80.1277 29.9892 80.6602 29.6322C81.1927 29.2751 81.459 28.7396 81.459 28.0256C81.459 27.3115 81.1927 26.7865 80.6602 26.4505C80.1277 26.0934 79.3289 25.9149 78.2639 25.9149H73.9186V38.9567Z" fill="#1A1A4E" fill-opacity="0.5"/>
<path d="M132.095 53.4986H134.608V54.4248H132.095V53.4986ZM132.185 55.6155H135.025V56.5711H130.984V51.4258H134.928V52.3813H132.185V55.6155Z" fill="#1A1A4E" fill-opacity="0.5"/>
<path d="M126.559 56.5711V51.4258H127.766V55.6008H130.383V56.5711H126.559Z" fill="#1A1A4E" fill-opacity="0.5"/>
<path d="M120.934 56.5711V51.4258H123.483C124.139 51.4258 124.631 51.5483 124.959 51.7933C125.292 52.0383 125.459 52.3617 125.459 52.7636C125.459 53.0331 125.392 53.2683 125.258 53.4692C125.123 53.6652 124.94 53.8171 124.706 53.9249C124.472 54.0327 124.204 54.0866 123.901 54.0866L124.042 53.7853C124.37 53.7853 124.661 53.8392 124.915 53.947C125.168 54.0499 125.364 54.2043 125.504 54.4101C125.648 54.6159 125.72 54.8682 125.72 55.1672C125.72 55.6082 125.543 55.9537 125.19 56.2036C124.838 56.4486 124.318 56.5711 123.632 56.5711H120.934ZM122.134 55.6743H123.543C123.856 55.6743 124.092 55.6253 124.251 55.5273C124.415 55.4244 124.497 55.2627 124.497 55.0422C124.497 54.8266 124.415 54.6673 124.251 54.5644C124.092 54.4566 123.856 54.4027 123.543 54.4027H122.044V53.5354H123.334C123.627 53.5354 123.851 53.4864 124.005 53.3884C124.164 53.2854 124.244 53.1311 124.244 52.9253C124.244 52.7244 124.164 52.5749 124.005 52.4769C123.851 52.374 123.627 52.3225 123.334 52.3225H122.134V55.6743Z" fill="#1A1A4E" fill-opacity="0.5"/>
<path d="M114.613 56.5711L116.939 51.4258H118.132L120.466 56.5711H119.198L117.29 52.0285H117.767L115.851 56.5711H114.613ZM115.776 55.4685L116.097 54.5644H118.781L119.109 55.4685H115.776Z" fill="#1A1A4E" fill-opacity="0.5"/>
<path d="M112.501 56.6577C112.099 56.6577 111.723 56.594 111.376 56.4666C111.033 56.3342 110.734 56.148 110.481 55.9079C110.227 55.6678 110.029 55.386 109.885 55.0626C109.745 54.7392 109.676 54.3839 109.676 53.9968C109.676 53.6097 109.745 53.2544 109.885 52.931C110.029 52.6076 110.227 52.3258 110.481 52.0857C110.739 51.8456 111.04 51.6618 111.383 51.5344C111.726 51.4021 112.101 51.3359 112.509 51.3359C112.961 51.3359 113.369 51.4143 113.731 51.5712C114.099 51.7231 114.407 51.9485 114.656 52.2474L113.88 52.953C113.702 52.7521 113.503 52.6027 113.284 52.5047C113.065 52.4018 112.827 52.3503 112.568 52.3503C112.325 52.3503 112.101 52.3895 111.897 52.4679C111.694 52.5463 111.517 52.659 111.368 52.806C111.219 52.953 111.102 53.127 111.018 53.3279C110.938 53.5288 110.898 53.7518 110.898 53.9968C110.898 54.2418 110.938 54.4648 111.018 54.6657C111.102 54.8666 111.219 55.0406 111.368 55.1876C111.517 55.3346 111.694 55.4473 111.897 55.5257C112.101 55.6041 112.325 55.6433 112.568 55.6433C112.827 55.6433 113.065 55.5943 113.284 55.4963C113.503 55.3934 113.702 55.239 113.88 55.0332L114.656 55.7389C114.407 56.0378 114.099 56.2656 113.731 56.4224C113.369 56.5793 112.959 56.6577 112.501 56.6577Z" fill="#1A1A4E" fill-opacity="0.5"/>
<path d="M103.601 55.395L103.533 54.0205L106.031 51.4258H107.373L105.121 53.8147L104.45 54.5203L103.601 55.395ZM102.52 56.5711V51.4258H103.72V56.5711H102.52ZM106.091 56.5711L104.234 54.3292L105.024 53.4839L107.5 56.5711H106.091Z" fill="#1A1A4E" fill-opacity="0.5"/>
<path d="M98.8393 56.6577C98.4268 56.6577 98.0441 56.5915 97.6912 56.4592C97.3433 56.3269 97.0402 56.1407 96.7817 55.9006C96.5282 55.6605 96.3294 55.3787 96.1853 55.0553C96.0461 54.7318 95.9766 54.379 95.9766 53.9968C95.9766 53.6146 96.0461 53.2618 96.1853 52.9383C96.3294 52.6149 96.5307 52.3331 96.7892 52.093C97.0476 51.8529 97.3508 51.6667 97.6987 51.5344C98.0466 51.4021 98.4243 51.3359 98.8319 51.3359C99.2444 51.3359 99.6221 51.4021 99.9651 51.5344C100.313 51.6667 100.614 51.8529 100.867 52.093C101.126 52.3331 101.327 52.6149 101.471 52.9383C101.615 53.2569 101.687 53.6097 101.687 53.9968C101.687 54.379 101.615 54.7343 101.471 55.0626C101.327 55.386 101.126 55.6678 100.867 55.9079C100.614 56.1431 100.313 56.3269 99.9651 56.4592C99.6221 56.5915 99.2469 56.6577 98.8393 56.6577ZM98.8319 55.6433C99.0655 55.6433 99.2792 55.6041 99.473 55.5257C99.6718 55.4473 99.8458 55.3346 99.9949 55.1876C100.144 55.0406 100.258 54.8666 100.338 54.6657C100.422 54.4648 100.465 54.2418 100.465 53.9968C100.465 53.7518 100.422 53.5288 100.338 53.3279C100.258 53.127 100.144 52.953 99.9949 52.806C99.8508 52.659 99.6793 52.5463 99.4805 52.4679C99.2817 52.3895 99.0655 52.3503 98.8319 52.3503C98.5983 52.3503 98.3821 52.3895 98.1833 52.4679C97.9895 52.5463 97.818 52.659 97.6689 52.806C97.5198 52.953 97.403 53.127 97.3185 53.3279C97.239 53.5288 97.1992 53.7518 97.1992 53.9968C97.1992 54.2369 97.239 54.4599 97.3185 54.6657C97.403 54.8666 97.5173 55.0406 97.6614 55.1876C97.8105 55.3346 97.9845 55.4473 98.1833 55.5257C98.3821 55.6041 98.5983 55.6433 98.8319 55.6433Z" fill="#1A1A4E" fill-opacity="0.5"/>
<path d="M92.1318 55.395L92.0647 54.0205L94.5622 51.4258H95.9041L93.6526 53.8147L92.9817 54.5203L92.1318 55.395ZM91.0508 56.5711V51.4258H92.2511V56.5711H91.0508ZM94.6218 56.5711L92.7655 54.3292L93.5557 53.4839L96.0308 56.5711H94.6218Z" fill="#1A1A4E" fill-opacity="0.5"/>
<path d="M87.8947 56.6577C87.4822 56.6577 87.102 56.594 86.7541 56.4666C86.4112 56.3342 86.1105 56.148 85.852 55.9079C85.5986 55.6678 85.3998 55.386 85.2556 55.0626C85.1165 54.7392 85.0469 54.3839 85.0469 53.9968C85.0469 53.6097 85.1165 53.2544 85.2556 52.931C85.3998 52.6076 85.601 52.3258 85.8595 52.0857C86.1179 51.8456 86.4211 51.6618 86.769 51.5344C87.1169 51.4021 87.4996 51.3359 87.9171 51.3359C88.3793 51.3359 88.7943 51.4119 89.1621 51.5638C89.5349 51.7157 89.848 51.9362 90.1015 52.2253L89.3261 52.931C89.1373 52.735 88.931 52.5904 88.7074 52.4973C88.4837 52.3993 88.2402 52.3503 87.9768 52.3503C87.7233 52.3503 87.4922 52.3895 87.2834 52.4679C87.0747 52.5463 86.8933 52.659 86.7392 52.806C86.5901 52.953 86.4733 53.127 86.3888 53.3279C86.3093 53.5288 86.2695 53.7518 86.2695 53.9968C86.2695 54.2369 86.3093 54.4574 86.3888 54.6583C86.4733 54.8593 86.5901 55.0357 86.7392 55.1876C86.8933 55.3346 87.0722 55.4473 87.276 55.5257C87.4847 55.6041 87.7133 55.6433 87.9618 55.6433C88.2004 55.6433 88.4315 55.6065 88.6552 55.533C88.8838 55.4546 89.105 55.3248 89.3187 55.1435L90.0046 56.0035C89.7213 56.2142 89.3908 56.3759 89.013 56.4886C88.6403 56.6013 88.2675 56.6577 87.8947 56.6577ZM88.9012 55.8491V53.9159H90.0046V56.0035L88.9012 55.8491Z" fill="#1A1A4E" fill-opacity="0.5"/>
<path d="M79.4258 56.5711V51.4258H80.4248L83.5038 55.1304H83.0192V51.4258H84.212V56.5711H83.2205L80.134 52.8665H80.6186V56.5711H79.4258Z" fill="#1A1A4E" fill-opacity="0.5"/>
<path d="M73.1094 56.5711L75.4354 51.4258H76.6282L78.9617 56.5711H77.6943L75.7858 52.0285H76.2629L74.3469 56.5711H73.1094ZM74.2724 55.4685L74.593 54.5644H77.2768L77.6048 55.4685H74.2724Z" fill="#1A1A4E" fill-opacity="0.5"/>
<path d="M68.168 56.5711V51.4258H70.7176C71.3737 51.4258 71.8657 51.5483 72.1938 51.7933C72.5268 52.0383 72.6933 52.3617 72.6933 52.7636C72.6933 53.0331 72.6262 53.2683 72.492 53.4692C72.3578 53.6652 72.1739 53.8171 71.9403 53.9249C71.7067 54.0327 71.4383 54.0866 71.1351 54.0866L71.2768 53.7853C71.6048 53.7853 71.8956 53.8392 72.149 53.947C72.4025 54.0499 72.5988 54.2043 72.738 54.4101C72.8821 54.6159 72.9542 54.8682 72.9542 55.1672C72.9542 55.6082 72.7777 55.9537 72.4249 56.2036C72.072 56.4486 71.5526 56.5711 70.8667 56.5711H68.168ZM69.3683 55.6743H70.7773C71.0904 55.6743 71.3265 55.6253 71.4855 55.5273C71.6495 55.4244 71.7315 55.2627 71.7315 55.0422C71.7315 54.8266 71.6495 54.6673 71.4855 54.5644C71.3265 54.4566 71.0904 54.4027 70.7773 54.4027H69.2788V53.5354H70.5685C70.8618 53.5354 71.0854 53.4864 71.2395 53.3884C71.3985 53.2854 71.4781 53.1311 71.4781 52.9253C71.4781 52.7244 71.3985 52.5749 71.2395 52.4769C71.0854 52.374 70.8618 52.3225 70.5685 52.3225H69.3683V55.6743Z" fill="#1A1A4E" fill-opacity="0.5"/>
<ellipse cx="47.3149" cy="38.7345" rx="2.66256" ry="2.62516" fill="#1A1A4E" fill-opacity="0.5"/>
<path fill-rule="evenodd" clip-rule="evenodd" d="M47.3151 51.337C54.3734 51.337 60.0954 45.6954 60.0954 38.7362C60.0954 31.777 54.3734 26.1354 47.3151 26.1354C40.2567 26.1354 34.5348 31.777 34.5348 38.7362C34.5348 45.6954 40.2567 51.337 47.3151 51.337ZM47.3151 56.0623C57.0203 56.0623 64.888 48.3051 64.888 38.7362C64.888 29.1673 57.0203 21.4102 47.3151 21.4102C37.6098 21.4102 29.7422 29.1673 29.7422 38.7362C29.7422 48.3051 37.6098 56.0623 47.3151 56.0623Z" fill="#1A1A4E" fill-opacity="0.5"/>
<ellipse cx="54.2368" cy="38.7345" rx="2.66256" ry="2.62516" fill="#1A1A4E" fill-opacity="0.5"/>
<ellipse cx="40.393" cy="38.7345" rx="2.66256" ry="2.62516" fill="#1A1A4E" fill-opacity="0.5"/>
<ellipse cx="44.1196" cy="32.4377" rx="2.66256" ry="2.62516" fill="#1A1A4E" fill-opacity="0.5"/>
<ellipse cx="44.1196" cy="44.5119" rx="2.66256" ry="2.62516" fill="#1A1A4E" fill-opacity="0.5"/>
<ellipse cx="51.0415" cy="32.4377" rx="2.66256" ry="2.62516" fill="#1A1A4E" fill-opacity="0.5"/>
<ellipse cx="51.0415" cy="44.5119" rx="2.66256" ry="2.62516" fill="#1A1A4E" fill-opacity="0.5"/>
<rect x="67.5508" y="47.1367" width="67.0965" height="1.05006" fill="#1A1A4E" fill-opacity="0.5"/>
</svg>
