<svg width="164" height="79" viewBox="0 0 164 79" fill="none" xmlns="http://www.w3.org/2000/svg">
<path d="M111.547 50.0167V44.7177L113.274 44.6844C114.781 44.6595 115.307 45.2043 115.307 45.9281C115.307 46.5728 114.79 47.0594 114.106 47.2383V47.2798C115.022 47.4337 115.485 47.9329 115.485 48.5817C115.485 49.5009 114.732 50.0874 113.191 50.0541L111.547 50.0208V50.0167ZM113.104 47.076C113.841 47.076 114.214 46.6351 114.214 46.1568C114.214 45.5787 113.816 45.1794 113.005 45.1794H112.582V47.076H113.108H113.104ZM113.121 49.5508C113.957 49.5508 114.384 49.1432 114.384 48.5318C114.384 47.9786 113.841 47.5377 113.013 47.5377H112.582V49.555H113.125L113.121 49.5508Z" fill="#1A1A4E" fill-opacity="0.5"/>
<path d="M107.242 44.7112H107.768V48.1468C107.768 49.4237 106.94 50.1516 105.677 50.1516C104.414 50.1516 103.594 49.4695 103.594 48.0927V44.707H104.625V47.8972C104.625 49.0369 105.143 49.5027 105.954 49.5027C106.766 49.5027 107.242 48.9412 107.242 47.9971V44.707V44.7112Z" fill="#1A1A4E" fill-opacity="0.5"/>
<path d="M97.0237 50.0227V44.707H98.0466V49.5277H98.8252C99.6783 49.5277 100.051 49.4528 100.44 49.3239V50.0227H97.0195H97.0237Z" fill="#1A1A4E" fill-opacity="0.5"/>
<path d="M93.5309 49.6481C93.0464 49.9809 92.421 50.1514 91.7957 50.1514C90.0521 50.1514 88.8594 49.07 88.8594 47.3979C88.8594 45.7258 90.077 44.582 91.7625 44.582C92.5246 44.582 93.1665 44.7775 93.7007 45.1186L93.3446 45.7841C92.947 45.3515 92.4376 45.0604 91.7791 45.0604C90.7644 45.0604 89.9569 45.8756 89.9569 47.3147C89.9569 48.8287 90.7934 49.6606 91.9282 49.6606C92.4045 49.6606 92.8766 49.54 93.2659 49.2114L93.5268 49.6523L93.5309 49.6481Z" fill="#1A1A4E" fill-opacity="0.5"/>
<path d="M78.5224 50.0227V45.202C77.7024 45.2269 77.251 45.2685 76.8203 45.4224V44.707H81.2475V45.4224C80.8168 45.2685 80.3737 45.2269 79.5537 45.202V50.0227H78.5224Z" fill="#1A1A4E" fill-opacity="0.5"/>
<path d="M72.4981 50.0227V47.5562H70.2617V50.0227H69.2305V44.707H70.2617V47.0612H72.4981V44.707H73.5293V50.0227H72.4981Z" fill="#1A1A4E" fill-opacity="0.5"/>
<path d="M65.7341 49.6481C65.2495 49.9809 64.6241 50.1514 63.9988 50.1514C62.2552 50.1514 61.0625 49.07 61.0625 47.3979C61.0625 45.7258 62.2801 44.582 63.9657 44.582C64.7277 44.582 65.3696 44.7775 65.9039 45.1186L65.5477 45.7841C65.1501 45.3515 64.6407 45.0604 63.9822 45.0604C62.9676 45.0604 62.16 45.8756 62.16 47.3147C62.16 48.8287 62.9966 49.6606 64.1313 49.6606C64.6076 49.6606 65.0797 49.54 65.469 49.2114L65.7299 49.6523L65.7341 49.6481Z" fill="#1A1A4E" fill-opacity="0.5"/>
<path d="M57.1763 50.0242L56.642 48.4104H54.7452L54.211 50.0242H53.6602L55.3043 45.1952V44.8791L56.4225 44.5547L58.2696 50.0242H57.1763ZM55.7433 45.6195H55.6688L54.9067 47.9404H56.4805L55.7433 45.6195Z" fill="#1A1A4E" fill-opacity="0.5"/>
<path d="M48.5796 50.0227V47.8016L46.7656 44.707H47.9169L49.3209 47.1735H49.4037L50.8242 44.707H51.3999L49.6067 47.7933V50.0227H48.5754H48.5796Z" fill="#1A1A4E" fill-opacity="0.5"/>
<path d="M131.013 24.2842C127.224 26.3722 124.084 29.5042 121.989 33.3017V22.5664C119.603 22.5664 117.243 23.1321 115.151 24.2842C111.362 26.3722 108.223 29.5042 106.127 33.3017V22.5664H103.27V37.0783H106.127C106.947 37.0783 107.688 36.6042 108.04 35.8597C110.256 31.1554 114.24 27.4495 119.131 25.611V37.0783H121.989C122.809 37.0783 123.55 36.6042 123.902 35.8597C125.468 32.5363 127.919 29.7122 130.943 27.6907C132.989 26.3264 135.395 25.611 137.851 25.611V22.5664C135.465 22.5664 133.105 23.1321 131.013 24.2842Z" fill="#1A1A4E" fill-opacity="0.5"/>
<path d="M84.273 21.9727C77.4231 21.9727 74.2383 25.5164 74.2383 29.7423C74.2383 33.9682 77.4231 37.5119 84.273 37.5119C91.123 37.5119 94.3078 33.9682 94.3078 29.7423C94.3078 25.5164 91.123 21.9727 84.273 21.9727ZM84.273 35.5196C80.3014 35.5196 77.0835 32.9325 77.0835 29.7423C77.0835 26.5521 80.3014 23.965 84.273 23.965C88.2447 23.965 91.4626 26.5521 91.4626 29.7423C91.4626 32.9325 88.2447 35.5196 84.273 35.5196Z" fill="#1A1A4E" fill-opacity="0.5"/>
<path d="M54.0913 34.6618V22.5664H51.2461V37.0783H68.1681V34.6618H54.0913Z" fill="#1A1A4E" fill-opacity="0.5"/>
<path d="M43.2423 24.983V22.5664H26.3203V37.0783H29.1655V31.0223H39.544V28.6058H29.1655V24.983H43.2423Z" fill="#1A1A4E" fill-opacity="0.5"/>
</svg>
