<svg width="164" height="79" viewBox="0 0 164 79" fill="none" xmlns="http://www.w3.org/2000/svg">
<g clip-path="url(#clip0_4026_14230)">
<path d="M65.5118 40.2725C63.5344 40.931 48.596 48.3671 37.5667 66.0306C36.1482 63.6277 34.5476 61.3351 32.7788 59.1726C39.8754 47.7714 52.2627 41.9172 65.5118 40.2736V40.2725ZM30.5467 56.5252C28.5784 54.285 26.4883 52.1345 24.421 50.1408C30.692 45.2973 39.7873 42.7194 48.7467 41.4139C50.0078 41.2298 52.8481 40.9643 53.015 40.9772C40.8995 44.8628 34.0721 51.6813 30.5467 56.5252V56.5252ZM22.1911 48.0383C20.2654 46.2614 18.4088 44.6475 16.7447 43.2521C22.6782 40.7021 33.5145 38.9173 39.2355 39.0355C42.0464 39.0935 44.7169 39.3221 45.8334 39.632C33.9073 41.5278 26.5815 44.9663 22.1911 48.0383ZM14.2012 41.1628C11.5484 39.0291 9.8125 37.7737 9.8125 37.7737C15.2993 36.454 26.7633 34.7813 34.6289 36.5528C35.202 36.6822 35.7582 36.8147 36.2955 36.9469C24.9851 37.8357 18.1916 39.5886 14.2012 41.1646" fill="#1A1A4E" fill-opacity="0.5"/>
<path d="M18.2109 32.9972C31.6797 27.3767 37.5658 12.4922 37.5658 12.4922C38.7777 14.9547 40.2781 17.2672 42.0358 19.3816C36.8832 27.6622 27.8454 31.8691 18.2109 32.9972V32.9972ZM43.6402 21.2825C45.0545 22.891 46.556 24.4351 48.0408 25.8681C43.5358 29.3456 37.0021 31.1981 30.5664 32.1374C29.6605 32.2685 27.621 32.4599 27.4999 32.452C36.2028 29.6598 41.1078 24.7597 43.6402 21.2825ZM49.6423 27.3795C51.0256 28.6553 52.3601 29.8156 53.5543 30.8187C49.2904 32.6511 41.5071 33.933 37.3982 33.8477C35.3778 33.8061 33.4594 33.6399 32.6579 33.4178C41.2278 32.0565 46.488 29.5846 49.6416 27.3792L49.6423 27.3795ZM55.3817 32.318C57.2875 33.8513 58.5335 34.7523 58.5335 34.7523C54.5925 35.7006 46.3558 36.9018 40.7067 35.63C40.2938 35.5366 39.8948 35.4425 39.5096 35.3477C47.6346 34.7104 52.5133 33.449 55.3817 32.3183" fill="#1A1A4E" fill-opacity="0.5"/>
<path d="M89.3123 40.2971L85.3789 33.3972H85.1708V40.2971H81.8633V25.375H87.3667C90.4939 25.375 92.0643 26.6668 92.0643 28.864C92.0643 31.0794 90.5528 32.5378 88.6069 32.8885L93.3045 40.296L89.3123 40.2971ZM86.1432 26.6676H85.1708V32.4769C86.9945 32.4769 88.6705 32.047 88.6705 29.3175C88.6705 27.9587 88.3597 26.6665 86.1432 26.6665" fill="#1A1A4E" fill-opacity="0.5"/>
<path d="M73.6236 26.9549V31.7984H78.8976V33.3969H73.6236V40.2967H70.3125V25.375H79.0035V26.9542L73.6236 26.9549Z" fill="#1A1A4E" fill-opacity="0.5"/>
<path d="M104.539 40.2975L102.983 35.8803H98.0154L96.321 40.2975H94.3086L100.518 25.375H102.197L108.239 40.2985L104.539 40.2975ZM100.518 29.5031L98.5086 34.5676H102.508L100.518 29.5031Z" fill="#1A1A4E" fill-opacity="0.5"/>
<path d="M113.006 40.5833C111.727 40.6387 110.462 40.3018 109.383 39.6186L110.067 36.85H110.461C110.59 37.5486 110.969 38.1776 111.528 38.6223C112.086 39.067 112.788 39.2978 113.504 39.2725C115.205 39.2725 116.091 38.3457 116.091 37.1137C116.091 35.6338 114.951 35.0029 113.627 34.4118C111.764 33.5405 109.486 32.7208 109.486 29.5812C109.486 26.9559 111.433 25.0938 114.518 25.0938C115.964 25.0938 117.082 25.3732 118.078 26.114L117.376 28.2886H117.044C116.896 27.7389 116.568 27.254 116.11 26.9114C115.652 26.5687 115.092 26.388 114.518 26.3981C113.109 26.3981 112.095 26.9556 112.095 28.3921C112.095 29.8287 113.627 30.47 115.217 31.2621C116.959 32.1695 118.799 33.2543 118.799 35.9021C118.799 38.7201 116.317 40.5837 113.006 40.5837" fill="#1A1A4E" fill-opacity="0.5"/>
<path d="M121.121 40.2967V25.375H129.468V26.9542H124.427V31.7984H129.364V33.3972H124.427V38.7136H129.469V40.2967H121.121Z" fill="#1A1A4E" fill-opacity="0.5"/>
<path d="M139.697 40.2971L135.764 33.3972H135.553V40.2971H132.242V25.375H137.751C140.875 25.375 142.449 26.6668 142.449 28.864C142.449 31.0794 140.937 32.5378 138.992 32.8885L143.69 40.296L139.697 40.2971ZM136.528 26.6676H135.552V32.4769C137.371 32.4769 139.049 32.047 139.049 29.3175C139.049 27.9587 138.743 26.6665 136.527 26.6665" fill="#1A1A4E" fill-opacity="0.5"/>
<path d="M148.558 40.5833C147.28 40.6379 146.016 40.301 144.938 39.6186L145.624 36.85H146.014C146.143 37.5489 146.522 38.1783 147.081 38.6231C147.64 39.0679 148.342 39.2984 149.058 39.2725C150.754 39.2725 151.642 38.3457 151.642 37.1137C151.642 35.6338 150.505 35.0029 149.179 34.4118C147.318 33.5405 145.042 32.7209 145.042 29.5812C145.042 26.9559 146.986 25.0938 150.071 25.0938C151.52 25.0938 152.637 25.3732 153.628 26.114L152.928 28.2886H152.597C152.449 27.7391 152.12 27.2544 151.663 26.9118C151.205 26.5692 150.644 26.3884 150.071 26.3981C148.662 26.3981 147.645 26.9556 147.645 28.3921C147.645 29.8287 149.178 30.47 150.773 31.2621C152.517 32.1695 154.355 33.2543 154.355 35.9021C154.355 38.7201 151.873 40.5837 148.557 40.5837" fill="#1A1A4E" fill-opacity="0.5"/>
<path d="M72.1807 49.2537V52.8791H70.3125V44.4102H73.1983C74.733 44.4102 76.0429 44.7827 76.0429 46.5217C76.0429 48.6823 74.4923 49.2537 72.1822 49.2537H72.1807ZM72.7809 45.1388H72.1807V48.5121C73.1687 48.5121 74.114 48.1607 74.114 46.7631C74.114 45.4867 73.4162 45.1381 72.7791 45.1381" fill="#1A1A4E" fill-opacity="0.5"/>
<path d="M81.8307 52.8788L79.6164 48.9624H79.4942V52.8788H77.6289V44.4102H80.7365C82.4942 44.4102 83.3824 45.1388 83.3824 46.3866C83.3967 46.9371 83.2069 47.4737 82.8489 47.8948C82.4908 48.3158 81.9895 48.5921 81.4398 48.6712L84.0863 52.8788H81.8307ZM80.0449 45.1388H79.4935V48.4404C80.528 48.4404 81.4658 48.1951 81.4658 46.6453C81.4658 45.8747 81.2941 45.1406 80.0449 45.1406" fill="#1A1A4E" fill-opacity="0.5"/>
<path d="M89.4184 53.0386C86.9662 53.0386 84.7695 51.8259 84.7695 48.7396C84.7695 46.2369 86.5196 44.2461 89.59 44.2461C92.6109 44.2461 94.3068 45.8539 94.3068 48.7396C94.3068 51.2416 92.0996 53.0386 89.4184 53.0386ZM89.59 44.978C87.3857 44.978 86.8513 47.1508 86.8513 48.9599C86.8513 51.276 88.0354 52.2895 89.4169 52.2895C91.0668 52.2895 92.2355 50.8651 92.2355 48.4021C92.2355 46.6428 91.353 44.978 89.5878 44.978" fill="#1A1A4E" fill-opacity="0.5"/>
<path d="M97.8902 49.2537V52.8791H96.0195V44.4102H98.9071C100.442 44.4102 101.755 44.7827 101.755 46.5217C101.755 48.6823 100.201 49.2537 97.8902 49.2537ZM98.4818 45.1388H97.8902V48.5121C98.8793 48.5121 99.826 48.1607 99.826 46.7631C99.826 45.4867 99.1236 45.1381 98.4818 45.1381" fill="#1A1A4E" fill-opacity="0.5"/>
<path d="M103.336 52.8788V44.4102H107.991V45.3033H105.207V48.0535H107.931V48.9621H105.207V51.9799H107.991V52.8788H103.336Z" fill="#1A1A4E" fill-opacity="0.5"/>
<path d="M114.28 52.8788L112.064 48.9624H111.944V52.8788H110.078V44.4102H113.183C114.942 44.4102 115.834 45.1388 115.834 46.3866C115.848 46.9384 115.657 47.476 115.297 47.8973C114.938 48.3185 114.434 48.5939 113.883 48.6712L116.53 52.8788H114.28ZM112.498 45.1388H111.945V48.4404C112.977 48.4404 113.918 48.1951 113.918 46.6453C113.918 45.8747 113.742 45.1406 112.498 45.1406" fill="#1A1A4E" fill-opacity="0.5"/>
<path d="M121.011 45.3033V52.8788H119.127V45.3033H116.887V44.4102H123.247V45.3033H121.011Z" fill="#1A1A4E" fill-opacity="0.5"/>
<path d="M128.976 49.0004V52.8795H127.093V49.3042L124.465 44.4102H126.471L128.537 48.1821L130.452 44.4102H131.594L128.976 49.0004Z" fill="#1A1A4E" fill-opacity="0.5"/>
</g>
<defs>
<clipPath id="clip0_4026_14230">
<rect width="144.245" height="53.6447" fill="white" transform="translate(9.81641 12.4922)"/>
</clipPath>
</defs>
</svg>
